<?xml version="1.0" encoding="UTF-8"?>
<svg xmlns="http://www.w3.org/2000/svg" xmlns:xlink="http://www.w3.org/1999/xlink" width="32px" height="32px" viewBox="0 0 32 32" version="1.1">
<g id="surface1">
<path style=" stroke:none;fill-rule:nonzero;fill:rgb(65.098039%,84.705882%,39.215686%);fill-opacity:1;" d="M 19.339844 32 C 20.410156 32 21.34375 31.066406 21.34375 29.996094 L 21.34375 25.320312 L 22.679688 25.320312 C 23.484375 25.320312 24.019531 24.785156 24.019531 23.980469 L 24.019531 10.621094 L 7.980469 10.621094 L 7.980469 23.980469 C 7.980469 24.785156 8.515625 25.320312 9.320312 25.320312 L 10.65625 25.320312 L 10.65625 29.996094 C 10.65625 31.066406 11.589844 32 12.660156 32 C 13.730469 32 14.664062 31.066406 14.664062 29.996094 L 14.664062 25.320312 L 17.335938 25.320312 L 17.335938 29.996094 C 17.335938 31.066406 18.269531 32 19.339844 32 Z M 19.339844 32 "/>
<path style=" stroke:none;fill-rule:nonzero;fill:rgb(65.098039%,84.705882%,39.215686%);fill-opacity:1;" d="M 27.359375 23.980469 C 28.429688 23.980469 29.363281 23.046875 29.363281 21.980469 L 29.363281 12.625 C 29.363281 11.558594 28.429688 10.621094 27.359375 10.621094 C 26.289062 10.621094 25.355469 11.558594 25.355469 12.625 L 25.355469 21.980469 C 25.355469 23.046875 26.289062 23.980469 27.359375 23.980469 Z M 27.359375 23.980469 "/>
<path style=" stroke:none;fill-rule:nonzero;fill:rgb(65.098039%,84.705882%,39.215686%);fill-opacity:1;" d="M 4.640625 23.980469 C 5.710938 23.980469 6.644531 23.046875 6.644531 21.980469 L 6.644531 12.625 C 6.644531 11.558594 5.710938 10.621094 4.640625 10.621094 C 3.570312 10.621094 2.636719 11.558594 2.636719 12.625 L 2.636719 21.980469 C 2.636719 23.046875 3.570312 23.980469 4.640625 23.980469 Z M 4.640625 23.980469 "/>
<path style=" stroke:none;fill-rule:nonzero;fill:rgb(65.098039%,84.705882%,39.215686%);fill-opacity:1;" d="M 22.414062 0.203125 C 22.144531 -0.0664062 21.746094 -0.0664062 21.480469 0.203125 L 19.6875 1.988281 L 19.605469 2.070312 C 18.539062 1.539062 17.347656 1.273438 16.019531 1.269531 C 16.011719 1.269531 16.007812 1.269531 16 1.269531 C 15.992188 1.269531 15.988281 1.269531 15.980469 1.269531 C 14.652344 1.273438 13.460938 1.539062 12.394531 2.070312 L 12.3125 1.988281 L 10.519531 0.203125 C 10.253906 -0.0664062 9.855469 -0.0664062 9.585938 0.203125 C 9.320312 0.46875 9.320312 0.867188 9.585938 1.132812 L 11.320312 2.871094 C 10.761719 3.242188 10.253906 3.699219 9.816406 4.222656 C 8.757812 5.472656 8.085938 7.101562 7.992188 8.867188 C 7.992188 8.882812 7.992188 8.902344 7.988281 8.921875 C 7.984375 9.039062 7.980469 9.160156 7.980469 9.28125 L 24.019531 9.28125 C 24.019531 9.160156 24.015625 9.039062 24.011719 8.921875 C 24.007812 8.902344 24.007812 8.882812 24.007812 8.867188 C 23.914062 7.101562 23.242188 5.472656 22.183594 4.222656 C 21.742188 3.699219 21.238281 3.242188 20.675781 2.871094 L 22.414062 1.132812 C 22.679688 0.867188 22.679688 0.46875 22.414062 0.203125 Z M 12.65625 6.949219 C 12.105469 6.949219 11.65625 6.5 11.65625 5.945312 C 11.65625 5.390625 12.105469 4.945312 12.65625 4.945312 C 13.210938 4.945312 13.660156 5.390625 13.660156 5.945312 C 13.660156 6.5 13.210938 6.949219 12.65625 6.949219 Z M 19.34375 6.949219 C 18.789062 6.949219 18.339844 6.5 18.339844 5.945312 C 18.339844 5.390625 18.789062 4.945312 19.34375 4.945312 C 19.894531 4.945312 20.34375 5.390625 20.34375 5.945312 C 20.34375 6.5 19.894531 6.949219 19.34375 6.949219 Z M 19.34375 6.949219 "/>
</g>
</svg>
