<?xml version="1.0" encoding="UTF-8"?>
<svg xmlns="http://www.w3.org/2000/svg" xmlns:xlink="http://www.w3.org/1999/xlink" width="32px" height="32px" viewBox="0 0 32 32" version="1.1">
<g id="surface1">
<path style=" stroke:none;fill-rule:nonzero;fill:rgb(50.196078%,87.058824%,91.764706%);fill-opacity:1;" d="M 16 22.667969 C 7.398438 22.667969 0.667969 19.734375 0.667969 16 C 0.667969 12.265625 7.398438 9.332031 16 9.332031 C 24.601562 9.332031 31.332031 12.265625 31.332031 16 C 31.332031 19.734375 24.601562 22.667969 16 22.667969 Z M 16 10.667969 C 7.601562 10.667969 2 13.398438 2 16 C 2 18.601562 7.601562 21.332031 16 21.332031 C 24.398438 21.332031 30 18.601562 30 16 C 30 13.398438 24.398438 10.667969 16 10.667969 Z M 16 10.667969 "/>
<path style=" stroke:none;fill-rule:nonzero;fill:rgb(50.196078%,87.058824%,91.764706%);fill-opacity:1;" d="M 10.066406 29.734375 C 9.398438 29.734375 8.867188 29.601562 8.332031 29.265625 C 5.066406 27.398438 5.933594 20.132812 10.199219 12.667969 C 12.199219 9.199219 14.667969 6.265625 17.066406 4.398438 C 19.667969 2.398438 22 1.800781 23.601562 2.734375 C 25.265625 3.667969 25.867188 6 25.464844 9.265625 C 25.066406 12.332031 23.734375 15.933594 21.734375 19.398438 C 19.734375 22.867188 17.265625 25.800781 14.867188 27.667969 C 13.132812 29 11.464844 29.734375 10.066406 29.734375 Z M 21.933594 3.601562 C 20.867188 3.601562 19.464844 4.199219 17.933594 5.398438 C 15.667969 7.199219 13.332031 10 11.398438 13.332031 C 7.199219 20.601562 6.800781 26.867188 9 28.132812 C 10.132812 28.800781 12 28.199219 14.066406 26.601562 C 16.332031 24.800781 18.667969 22 20.601562 18.667969 C 22.535156 15.332031 23.800781 11.933594 24.199219 9.066406 C 24.535156 6.398438 24.132812 4.535156 23 3.867188 C 22.667969 3.734375 22.332031 3.601562 21.933594 3.601562 Z M 21.933594 3.601562 "/>
<path style=" stroke:none;fill-rule:nonzero;fill:rgb(50.196078%,87.058824%,91.764706%);fill-opacity:1;" d="M 22 29.734375 C 18.667969 29.734375 13.867188 25.667969 10.265625 19.332031 C 5.933594 11.867188 5.066406 4.601562 8.332031 2.734375 C 11.601562 0.867188 17.464844 5.199219 21.800781 12.667969 C 23.800781 16.132812 25.132812 19.734375 25.535156 22.800781 C 26 26.066406 25.332031 28.332031 23.667969 29.332031 C 23.132812 29.601562 22.601562 29.734375 22 29.734375 Z M 9 3.867188 C 6.800781 5.132812 7.199219 11.398438 11.398438 18.667969 C 15.601562 25.933594 20.800781 29.398438 23 28.132812 C 24.132812 27.464844 24.535156 25.601562 24.199219 22.933594 C 23.800781 20.066406 22.535156 16.667969 20.601562 13.332031 C 16.398438 6.066406 11.199219 2.601562 9 3.867188 Z M 9 3.867188 "/>
<path style=" stroke:none;fill-rule:nonzero;fill:rgb(50.196078%,87.058824%,91.764706%);fill-opacity:1;" d="M 18.667969 16 C 18.667969 17.472656 17.472656 18.667969 16 18.667969 C 14.527344 18.667969 13.332031 17.472656 13.332031 16 C 13.332031 14.527344 14.527344 13.332031 16 13.332031 C 17.472656 13.332031 18.667969 14.527344 18.667969 16 Z M 18.667969 16 "/>
</g>
</svg>
