<?xml version="1.0" encoding="UTF-8"?>
<svg xmlns="http://www.w3.org/2000/svg" xmlns:xlink="http://www.w3.org/1999/xlink" width="1247px" height="532px" viewBox="0 0 1246 532" version="1.1">
<g id="surface1">
<rect x="0" y="0" width="1246" height="532" style="fill:rgb(100%,100%,100%);fill-opacity:1;stroke:none;"/>
<path style="fill-rule:nonzero;fill:rgb(95.686275%,85.098039%,100%);fill-opacity:1;stroke-width:1;stroke-linecap:butt;stroke-linejoin:miter;stroke:rgb(22.745098%,25.490196%,29.019608%);stroke-opacity:1;stroke-miterlimit:4;" d="M 771.762427 284.238825 C 774.101193 281.897615 777.899039 281.897615 780.237805 284.238825 L 827.761901 331.761337 C 830.100666 334.100623 830.100666 337.898114 827.761901 340.2374 L 780.237805 387.761836 C 777.899039 390.101122 774.101193 390.101122 771.762427 387.761836 L 724.238331 340.2374 C 721.897641 337.898114 721.897641 334.100623 724.238331 331.761337 Z M 771.762427 284.238825 " transform="matrix(2.029316,0,0,2.030534,-769.110749,-497.480916)"/>
<path style=" stroke:none;fill-rule:nonzero;fill:rgb(22.745098%,25.490196%,29.019608%);fill-opacity:1;" d="M 777.339844 170.136719 L 772.328125 170.136719 L 765.3125 143.8125 L 758.425781 170.136719 L 753.414062 170.136719 L 744.265625 139.050781 L 748.652344 139.050781 L 756.046875 166.375 L 757.925781 158.351562 L 763.308594 139.050781 L 767.320312 139.050781 L 774.707031 166.375 L 782.09375 139.050781 L 786.488281 139.050781 "/>
<path style=" stroke:none;fill-rule:nonzero;fill:rgb(22.745098%,25.490196%,29.019608%);fill-opacity:1;" d="M 802.515625 165.625 C 800.636719 168.257812 798.632812 170.761719 794 170.636719 C 789.492188 170.507812 786.734375 168.003906 786.734375 163.488281 C 786.605469 155.472656 794.628906 155.597656 802.386719 155.597656 C 802.769531 151.203125 801.261719 148.824219 797.257812 148.824219 C 794.246094 148.949219 792.121094 149.703125 791.996094 152.710938 L 787.859375 152.335938 C 788.484375 147.699219 791.996094 145.816406 797.378906 145.816406 C 803.015625 145.816406 806.398438 148.324219 806.398438 153.835938 L 806.398438 164.117188 C 806.273438 166.621094 807.28125 168.128906 809.910156 167.503906 L 809.910156 170.007812 C 806.027344 171.136719 802.269531 169.753906 802.515625 165.625 Z M 790.871094 163.488281 C 790.871094 165.996094 792.367188 167.628906 794.875 167.628906 C 800.011719 167.25 802.769531 163.988281 802.386719 158.351562 C 797.007812 158.605469 790.871094 157.722656 790.871094 163.488281 "/>
<path style=" stroke:none;fill-rule:nonzero;fill:rgb(22.745098%,25.490196%,29.019608%);fill-opacity:1;" d="M 812.914062 170.136719 L 812.914062 137.417969 L 816.925781 137.417969 L 816.925781 170.136719 L 812.914062 170.136719 "/>
<path style=" stroke:none;fill-rule:nonzero;fill:rgb(22.745098%,25.490196%,29.019608%);fill-opacity:1;" d="M 822.808594 170.136719 L 822.808594 137.417969 L 826.820312 137.417969 L 826.820312 170.136719 L 822.808594 170.136719 "/>
<path style=" stroke:none;fill-rule:nonzero;fill:rgb(22.745098%,25.490196%,29.019608%);fill-opacity:1;" d="M 842.230469 145.816406 C 850.117188 145.816406 853.003906 151.085938 852.75 159.101562 L 835.839844 159.101562 C 835.839844 164.117188 837.59375 167.503906 842.476562 167.628906 C 845.734375 167.75 847.867188 166.125 848.617188 163.988281 L 852.121094 164.996094 C 850.742188 168.503906 847.484375 170.636719 842.476562 170.636719 C 835.214844 170.636719 831.457031 165.996094 831.574219 158.105469 C 831.703125 150.457031 834.832031 145.816406 842.230469 145.816406 Z M 848.738281 155.96875 C 849.492188 148.449219 839.21875 146.316406 836.585938 152.464844 C 836.214844 153.335938 835.839844 154.589844 835.839844 155.96875 L 848.738281 155.96875 "/>
<path style=" stroke:none;fill-rule:nonzero;fill:rgb(22.745098%,25.490196%,29.019608%);fill-opacity:1;" d="M 862.140625 164.242188 C 861.894531 167.25 864.402344 167.875 866.90625 167.003906 L 866.90625 170.007812 C 862.769531 171.261719 858.140625 170.636719 858.140625 165.125 L 858.140625 149.203125 L 855.378906 149.203125 L 855.378906 146.316406 L 858.386719 146.316406 L 859.511719 140.933594 L 862.140625 140.933594 L 862.140625 146.316406 L 866.527344 146.316406 L 866.527344 149.203125 L 862.140625 149.203125 L 862.140625 164.242188 "/>
<path style=" stroke:none;fill-rule:nonzero;fill:rgb(22.745098%,25.490196%,29.019608%);fill-opacity:1;" d="M 791.242188 224.277344 L 787.738281 215.261719 L 773.582031 215.261719 L 770.070312 224.277344 L 765.6875 224.277344 L 778.335938 193.195312 L 783.101562 193.195312 L 795.5 224.277344 Z M 786.488281 211.875 L 780.597656 196.453125 C 779.089844 202.09375 776.710938 206.734375 774.835938 211.875 L 786.488281 211.875 "/>
<path style=" stroke:none;fill-rule:nonzero;fill:rgb(22.745098%,25.490196%,29.019608%);fill-opacity:1;" d="M 810.03125 199.96875 C 816.925781 200.085938 818.804688 205.109375 818.804688 212.246094 C 818.804688 219.394531 816.800781 224.53125 810.03125 224.785156 C 806.144531 224.785156 803.894531 223.152344 802.515625 220.519531 L 802.640625 233.6875 L 798.632812 233.6875 L 798.511719 200.46875 L 802.386719 200.46875 L 802.640625 204.226562 C 803.894531 201.59375 806.144531 199.96875 810.03125 199.96875 Z M 809.03125 221.773438 C 814.042969 221.773438 814.667969 217.511719 814.667969 212.375 C 814.667969 207.234375 813.914062 203.226562 809.03125 203.101562 C 803.769531 203.101562 802.640625 207.105469 802.640625 212.628906 C 802.640625 218.011719 803.894531 221.773438 809.03125 221.773438 "/>
<path style=" stroke:none;fill-rule:nonzero;fill:rgb(22.745098%,25.490196%,29.019608%);fill-opacity:1;" d="M 835.085938 199.96875 C 841.976562 200.085938 843.855469 205.109375 843.855469 212.246094 C 843.855469 219.394531 841.847656 224.53125 835.085938 224.785156 C 831.203125 224.785156 828.953125 223.152344 827.574219 220.519531 L 827.699219 233.6875 L 823.6875 233.6875 L 823.5625 200.46875 L 827.445312 200.46875 L 827.699219 204.226562 C 828.953125 201.59375 831.203125 199.96875 835.085938 199.96875 Z M 834.082031 221.773438 C 839.097656 221.773438 839.722656 217.511719 839.722656 212.375 C 839.722656 207.234375 838.972656 203.226562 834.082031 203.101562 C 828.824219 203.101562 827.699219 207.105469 827.699219 212.628906 C 827.699219 218.011719 828.953125 221.773438 834.082031 221.773438 "/>
<path style="fill-rule:nonzero;fill:rgb(81.176471%,89.411765%,100%);fill-opacity:1;stroke-width:1;stroke-linecap:butt;stroke-linejoin:miter;stroke:rgb(22.745098%,25.490196%,29.019608%);stroke-opacity:1;stroke-miterlimit:4;" d="M 794.672703 439.999471 C 805.17116 439.999471 813.671561 448.500543 813.671561 459.000396 C 813.671561 469.50025 805.17116 477.999398 794.672703 477.999398 L 756.671135 477.999398 C 746.172678 477.999398 737.672276 469.50025 737.672276 459.000396 C 737.672276 448.500543 746.172678 439.999471 756.671135 439.999471 Z M 794.672703 439.999471 " transform="matrix(2.029316,0,0,2.030534,-769.110749,-497.480916)"/>
<path style=" stroke:none;fill-rule:nonzero;fill:rgb(22.745098%,25.490196%,29.019608%);fill-opacity:1;" d="M 786.683594 423.699219 C 786.558594 428.839844 783.800781 431.71875 779.171875 432.472656 L 787.9375 445.882812 L 783.171875 445.882812 L 775.03125 432.972656 L 765.386719 432.972656 L 765.386719 445.882812 L 761.253906 445.882812 L 761.253906 414.800781 C 772.28125 415.179688 786.929688 412.167969 786.683594 423.699219 Z M 765.386719 429.71875 C 772.90625 429.464844 782.546875 431.347656 782.546875 423.828125 C 782.546875 416.179688 772.527344 418.558594 765.386719 418.1875 L 765.386719 429.71875 "/>
<path style=" stroke:none;fill-rule:nonzero;fill:rgb(22.745098%,25.490196%,29.019608%);fill-opacity:1;" d="M 793.699219 414.800781 C 804.601562 414.925781 817.625 412.921875 817.625 424.199219 C 817.625 433.980469 807.976562 434.226562 797.832031 433.726562 L 797.832031 445.882812 L 793.699219 445.882812 Z M 797.832031 430.464844 C 804.972656 430.464844 813.367188 431.84375 813.367188 424.199219 C 813.367188 416.808594 804.847656 418.3125 797.832031 418.1875 L 797.832031 430.464844 "/>
<path style=" stroke:none;fill-rule:nonzero;fill:rgb(22.745098%,25.490196%,29.019608%);fill-opacity:1;" d="M 846.558594 423.445312 C 845.304688 419.941406 842.175781 417.804688 837.417969 417.804688 C 830.023438 417.804688 826.519531 422.820312 826.519531 430.21875 C 826.519531 437.738281 830.148438 442.878906 837.664062 442.878906 C 843.054688 442.878906 845.433594 439.871094 847.4375 436.359375 L 850.824219 438.113281 C 848.5625 442.878906 844.433594 446.382812 837.417969 446.382812 C 827.398438 446.382812 822.761719 440.117188 822.261719 430.21875 C 821.507812 417.179688 834.660156 411.039062 845.6875 416.308594 C 848.0625 417.433594 849.570312 419.566406 850.570312 422.074219 "/>
<path style="fill:none;stroke-width:1;stroke-linecap:butt;stroke-linejoin:miter;stroke:rgb(22.745098%,25.490196%,29.019608%);stroke-opacity:1;stroke-miterlimit:4;" d="M 775.999154 390.518577 L 775.999154 414.590519 C 775.995304 414.679012 775.922157 414.750191 775.827837 414.750191 C 775.737366 414.754038 775.668069 414.829065 775.671919 414.921405 L 775.671919 423.120448 " transform="matrix(2.029316,0,0,2.030534,-769.110749,-497.480916)"/>
<path style="fill-rule:nonzero;fill:rgb(22.745098%,25.490196%,29.019608%);fill-opacity:1;stroke-width:0.05;stroke-linecap:butt;stroke-linejoin:miter;stroke:rgb(22.745098%,25.490196%,29.019608%);stroke-opacity:1;stroke-miterlimit:4;" d="M 775.999154 390.020324 L 776.49963 389.979925 L 776.49963 390.532043 L 775.500602 390.532043 L 775.500602 389.979925 Z M 775.999154 390.020324 " transform="matrix(2.029316,0,0,2.030534,-769.110749,-497.480916)"/>
<path style="fill-rule:nonzero;fill:rgb(22.745098%,25.490196%,29.019608%);fill-opacity:1;stroke-width:1;stroke-linecap:butt;stroke-linejoin:miter;stroke:rgb(22.745098%,25.490196%,29.019608%);stroke-opacity:1;stroke-miterlimit:4;" d="M 775.671919 437.879494 L 771.030962 423.620624 L 780.301327 423.620624 Z M 775.671919 437.879494 " transform="matrix(2.029316,0,0,2.030534,-769.110749,-497.480916)"/>
<path style="fill-rule:nonzero;fill:rgb(89.019608%,98.039216%,89.019608%);fill-opacity:1;stroke-width:1;stroke-linecap:butt;stroke-linejoin:miter;stroke:rgb(22.745098%,25.490196%,29.019608%);stroke-opacity:1;stroke-miterlimit:4;" d="M 973.000188 369.601592 C 973.000188 374.237841 951.058142 378.000705 923.999686 378.000705 C 896.941231 378.000705 874.999185 374.237841 874.999185 369.601592 L 874.999185 302.399069 C 874.999185 297.760896 896.941231 293.999956 923.999686 293.999956 C 951.058142 293.999956 973.000188 297.760896 973.000188 302.399069 Z M 973.000188 369.601592 " transform="matrix(2.029316,0,0,2.030534,-769.110749,-497.480916)"/>
<path style="fill:none;stroke-width:1;stroke-linecap:butt;stroke-linejoin:miter;stroke:rgb(22.745098%,25.490196%,29.019608%);stroke-opacity:1;stroke-miterlimit:4;" d="M 973.000188 302.399069 C 973.000188 307.039165 951.058142 310.800106 923.999686 310.800106 C 896.941231 310.800106 874.999185 307.039165 874.999185 302.399069 " transform="matrix(2.029316,0,0,2.030534,-769.110749,-497.480916)"/>
<path style=" stroke:none;fill-rule:nonzero;fill:rgb(22.745098%,25.490196%,29.019608%);fill-opacity:1;" d="M 1076.535156 163.53125 C 1075.910156 157.515625 1061.132812 156.761719 1061.007812 163.785156 C 1062.757812 173.183594 1080.800781 165.535156 1081.425781 178.695312 C 1081.800781 188.476562 1066.269531 189.601562 1059.5 185.585938 C 1057.375 184.335938 1055.996094 182.335938 1055.371094 179.828125 L 1059.5 178.949219 C 1060.128906 185.96875 1077.164062 186.847656 1077.164062 178.820312 C 1077.164062 169.050781 1057.75 177.070312 1056.871094 164.027344 C 1056.242188 153.757812 1075.039062 153.503906 1079.292969 159.769531 C 1079.921875 160.648438 1080.292969 161.777344 1080.675781 162.902344 "/>
<path style=" stroke:none;fill-rule:nonzero;fill:rgb(22.745098%,25.490196%,29.019608%);fill-opacity:1;" d="M 1095.957031 162.902344 C 1103.84375 162.902344 1106.730469 168.167969 1106.476562 176.1875 L 1089.566406 176.1875 C 1089.566406 181.203125 1091.320312 184.589844 1096.203125 184.714844 C 1099.460938 184.84375 1101.59375 183.207031 1102.347656 181.082031 L 1105.851562 182.082031 C 1104.472656 185.585938 1101.222656 187.722656 1096.203125 187.722656 C 1088.941406 187.722656 1085.183594 183.082031 1085.3125 175.1875 C 1085.429688 167.542969 1088.5625 162.902344 1095.957031 162.902344 Z M 1102.472656 173.054688 C 1103.21875 165.535156 1092.953125 163.402344 1090.320312 169.550781 C 1089.941406 170.421875 1089.566406 171.675781 1089.566406 173.054688 L 1102.472656 173.054688 "/>
<path style=" stroke:none;fill-rule:nonzero;fill:rgb(22.745098%,25.490196%,29.019608%);fill-opacity:1;" d="M 1121.007812 162.902344 C 1128.902344 162.902344 1131.78125 168.167969 1131.535156 176.1875 L 1114.617188 176.1875 C 1114.617188 181.203125 1116.378906 184.589844 1121.261719 184.714844 C 1124.519531 184.84375 1126.644531 183.207031 1127.394531 181.082031 L 1130.90625 182.082031 C 1129.527344 185.585938 1126.269531 187.722656 1121.261719 187.722656 C 1113.992188 187.722656 1110.234375 183.082031 1110.359375 175.1875 C 1110.488281 167.542969 1113.617188 162.902344 1121.007812 162.902344 Z M 1127.523438 173.054688 C 1128.277344 165.535156 1118.003906 163.402344 1115.371094 169.550781 C 1115 170.421875 1114.617188 171.675781 1114.617188 173.054688 L 1127.523438 173.054688 "/>
<path style=" stroke:none;fill-rule:nonzero;fill:rgb(22.745098%,25.490196%,29.019608%);fill-opacity:1;" d="M 1144.183594 162.902344 C 1148.070312 162.902344 1150.195312 164.535156 1151.699219 167.042969 L 1151.574219 154.503906 L 1155.585938 154.503906 L 1155.710938 187.222656 L 1151.953125 187.222656 C 1151.699219 185.96875 1151.953125 184.335938 1151.574219 183.335938 C 1150.320312 186.214844 1148.070312 187.722656 1144.183594 187.722656 C 1137.542969 187.722656 1135.535156 182.835938 1135.417969 175.433594 C 1135.417969 167.171875 1138.296875 162.902344 1144.183594 162.902344 Z M 1145.3125 165.910156 C 1140.300781 165.910156 1139.546875 170.175781 1139.546875 175.316406 C 1139.546875 180.328125 1140.300781 184.589844 1145.183594 184.589844 C 1150.449219 184.589844 1151.574219 180.574219 1151.574219 175.0625 C 1151.574219 169.796875 1150.449219 165.789062 1145.3125 165.910156 "/>
<path style=" stroke:none;fill-rule:nonzero;fill:rgb(22.745098%,25.490196%,29.019608%);fill-opacity:1;" d="M 1073.53125 241.371094 L 1069.273438 241.371094 L 1056.625 210.289062 L 1061.007812 210.289062 L 1071.40625 237.613281 L 1081.800781 210.289062 L 1086.308594 210.289062 "/>
<path style=" stroke:none;fill-rule:nonzero;fill:rgb(22.745098%,25.490196%,29.019608%);fill-opacity:1;" d="M 1100.714844 236.859375 C 1098.835938 239.492188 1096.828125 242 1092.199219 241.871094 C 1087.691406 241.746094 1084.929688 239.238281 1084.929688 234.726562 C 1084.804688 226.707031 1092.828125 226.824219 1100.585938 226.824219 C 1100.96875 222.4375 1099.460938 220.058594 1095.457031 220.058594 C 1092.445312 220.1875 1090.320312 220.941406 1090.195312 223.945312 L 1086.054688 223.574219 C 1086.683594 218.933594 1090.195312 217.054688 1095.578125 217.054688 C 1101.222656 217.054688 1104.597656 219.558594 1104.597656 225.070312 L 1104.597656 235.351562 C 1104.472656 237.859375 1105.476562 239.363281 1108.109375 238.738281 L 1108.109375 241.246094 C 1104.226562 242.371094 1100.46875 240.992188 1100.714844 236.859375 Z M 1089.070312 234.726562 C 1089.070312 237.230469 1090.566406 238.867188 1093.070312 238.867188 C 1098.207031 238.484375 1100.96875 235.226562 1100.585938 229.585938 C 1095.203125 229.839844 1089.070312 228.957031 1089.070312 234.726562 "/>
<path style=" stroke:none;fill-rule:nonzero;fill:rgb(22.745098%,25.490196%,29.019608%);fill-opacity:1;" d="M 1118.628906 241.871094 C 1107.484375 242.371094 1111.867188 227.332031 1110.988281 217.550781 L 1115 217.550781 L 1115 232.589844 C 1115 236.476562 1115.871094 238.867188 1119.882812 238.738281 C 1128.902344 238.484375 1125.515625 226.078125 1126.144531 217.550781 L 1130.027344 217.550781 L 1130.15625 241.371094 L 1126.398438 241.371094 C 1126.269531 240.117188 1126.523438 238.238281 1126.144531 237.230469 C 1124.765625 239.992188 1122.640625 241.746094 1118.628906 241.871094 "/>
<path style=" stroke:none;fill-rule:nonzero;fill:rgb(22.745098%,25.490196%,29.019608%);fill-opacity:1;" d="M 1136.164062 241.371094 L 1136.164062 208.652344 L 1140.175781 208.652344 L 1140.175781 241.371094 L 1136.164062 241.371094 "/>
<path style=" stroke:none;fill-rule:nonzero;fill:rgb(22.745098%,25.490196%,29.019608%);fill-opacity:1;" d="M 1150.449219 235.480469 C 1150.195312 238.484375 1152.699219 239.109375 1155.203125 238.238281 L 1155.203125 241.246094 C 1151.074219 242.5 1146.4375 241.871094 1146.4375 236.351562 L 1146.4375 220.441406 L 1143.6875 220.441406 L 1143.6875 217.550781 L 1146.691406 217.550781 L 1147.816406 212.167969 L 1150.449219 212.167969 L 1150.449219 217.550781 L 1154.832031 217.550781 L 1154.832031 220.441406 L 1150.449219 220.441406 L 1150.449219 235.480469 "/>
<path style="fill:none;stroke-width:1;stroke-linecap:butt;stroke-linejoin:miter;stroke:rgb(22.745098%,25.490196%,29.019608%);stroke-opacity:1;stroke-miterlimit:4;" d="M 830.520296 335.999369 L 874.000157 335.999369 " transform="matrix(2.029316,0,0,2.030534,-769.110749,-497.480916)"/>
<path style="fill-rule:nonzero;fill:rgb(22.745098%,25.490196%,29.019608%);fill-opacity:1;stroke-width:0.05;stroke-linecap:butt;stroke-linejoin:miter;stroke:rgb(22.745098%,25.490196%,29.019608%);stroke-opacity:1;stroke-miterlimit:4;" d="M 830.531846 336.499545 L 829.981321 336.499545 L 830.01982 335.999369 L 829.981321 335.499192 L 830.531846 335.499192 Z M 874.500633 336.499545 L 874.000157 336.499545 L 874.000157 335.499192 L 874.500633 335.499192 Z M 874.500633 336.499545 " transform="matrix(2.029316,0,0,2.030534,-769.110749,-497.480916)"/>
<path style="fill-rule:nonzero;fill:rgb(95.686275%,85.098039%,100%);fill-opacity:1;stroke-width:1;stroke-linecap:butt;stroke-linejoin:miter;stroke:rgb(22.745098%,25.490196%,29.019608%);stroke-opacity:1;stroke-miterlimit:4;" d="M 451.761587 284.238825 C 454.102277 281.897615 457.898199 281.897615 460.238889 284.238825 L 507.76106 331.761337 C 510.101751 334.100623 510.101751 337.898114 507.76106 340.2374 L 460.238889 387.761836 C 457.898199 390.101122 454.102277 390.101122 451.761587 387.761836 L 404.237491 340.2374 C 401.898726 337.898114 401.898726 334.100623 404.237491 331.761337 Z M 451.761587 284.238825 " transform="matrix(2.029316,0,0,2.030534,-769.110749,-497.480916)"/>
<path style=" stroke:none;fill-rule:nonzero;fill:rgb(22.745098%,25.490196%,29.019608%);fill-opacity:1;" d="M 114.300781 171.429688 C 118.183594 171.429688 120.316406 173.0625 121.824219 175.570312 L 121.695312 163.039062 L 125.699219 163.039062 L 125.824219 195.75 L 122.066406 195.75 C 121.824219 194.496094 122.066406 192.867188 121.695312 191.863281 C 120.441406 194.75 118.183594 196.246094 114.300781 196.246094 C 107.664062 196.246094 105.660156 191.363281 105.53125 183.96875 C 105.53125 175.695312 108.417969 171.429688 114.300781 171.429688 Z M 115.433594 174.445312 C 110.421875 174.445312 109.671875 178.703125 109.671875 183.84375 C 109.671875 188.855469 110.421875 193.113281 115.304688 193.113281 C 120.570312 193.113281 121.695312 189.109375 121.695312 183.589844 C 121.695312 178.332031 120.570312 174.316406 115.433594 174.445312 "/>
<path style=" stroke:none;fill-rule:nonzero;fill:rgb(22.745098%,25.490196%,29.019608%);fill-opacity:1;" d="M 154.386719 195.75 L 150.882812 186.722656 L 136.726562 186.722656 L 133.222656 195.75 L 128.835938 195.75 L 141.488281 164.664062 L 146.246094 164.664062 L 158.652344 195.75 Z M 149.628906 183.34375 L 143.742188 167.921875 C 142.234375 173.5625 139.855469 178.203125 137.976562 183.34375 L 149.628906 183.34375 "/>
<path style=" stroke:none;fill-rule:nonzero;fill:rgb(22.745098%,25.490196%,29.019608%);fill-opacity:1;" d="M 173.179688 171.429688 C 180.070312 171.554688 181.949219 176.570312 181.949219 183.714844 C 181.949219 190.863281 179.941406 196.003906 173.179688 196.246094 C 169.296875 196.246094 167.039062 194.621094 165.660156 191.988281 L 165.785156 205.148438 L 161.78125 205.148438 L 161.65625 171.9375 L 165.539062 171.9375 L 165.785156 175.695312 C 167.039062 173.0625 169.296875 171.429688 173.179688 171.429688 Z M 172.175781 193.242188 C 177.183594 193.242188 177.8125 188.984375 177.8125 183.84375 C 177.8125 178.703125 177.058594 174.6875 172.175781 174.5625 C 166.910156 174.5625 165.785156 178.574219 165.785156 184.089844 C 165.785156 189.480469 167.039062 193.242188 172.175781 193.242188 "/>
<path style=" stroke:none;fill-rule:nonzero;fill:rgb(22.745098%,25.490196%,29.019608%);fill-opacity:1;" d="M 198.230469 171.429688 C 205.121094 171.554688 207 176.570312 207 183.714844 C 207 190.863281 204.992188 196.003906 198.230469 196.246094 C 194.347656 196.246094 192.09375 194.621094 190.714844 191.988281 L 190.84375 205.148438 L 186.832031 205.148438 L 186.703125 171.9375 L 190.589844 171.9375 L 190.84375 175.695312 C 192.09375 173.0625 194.347656 171.429688 198.230469 171.429688 Z M 197.230469 193.242188 C 202.242188 193.242188 202.867188 188.984375 202.867188 183.84375 C 202.867188 178.703125 202.113281 174.6875 197.230469 174.5625 C 191.96875 174.5625 190.84375 178.574219 190.84375 184.089844 C 190.84375 189.480469 192.09375 193.242188 197.230469 193.242188 "/>
<path style="fill-rule:nonzero;fill:rgb(81.176471%,89.411765%,100%);fill-opacity:1;stroke-width:1;stroke-linecap:butt;stroke-linejoin:miter;stroke:rgb(22.745098%,25.490196%,29.019608%);stroke-opacity:1;stroke-miterlimit:4;" d="M 476.00005 439.999471 C 487.050957 439.999471 495.999862 448.948778 495.999862 460.000749 C 495.999862 471.050796 487.050957 480.000103 476.00005 480.000103 L 436.000426 480.000103 C 424.94952 480.000103 416.000614 471.050796 416.000614 460.000749 C 416.000614 448.948778 424.94952 439.999471 436.000426 439.999471 Z M 476.00005 439.999471 " transform="matrix(2.029316,0,0,2.030534,-769.110749,-497.480916)"/>
<path style=" stroke:none;fill-rule:nonzero;fill:rgb(22.745098%,25.490196%,29.019608%);fill-opacity:1;" d="M 137.976562 423.953125 C 137.851562 429.09375 135.101562 431.972656 130.460938 432.726562 L 139.230469 446.136719 L 134.472656 446.136719 L 126.324219 433.226562 L 116.6875 433.226562 L 116.6875 446.136719 L 112.546875 446.136719 L 112.546875 415.054688 C 123.574219 415.433594 138.230469 412.421875 137.976562 423.953125 Z M 116.6875 429.972656 C 124.199219 429.71875 133.847656 431.597656 133.847656 424.082031 C 133.847656 416.433594 123.820312 418.8125 116.6875 418.441406 L 116.6875 429.972656 "/>
<path style=" stroke:none;fill-rule:nonzero;fill:rgb(22.745098%,25.490196%,29.019608%);fill-opacity:1;" d="M 144.992188 415.054688 C 155.894531 415.179688 168.917969 413.175781 168.917969 424.453125 C 168.917969 434.234375 159.277344 434.480469 149.132812 433.980469 L 149.132812 446.136719 L 144.992188 446.136719 Z M 149.132812 430.71875 C 156.265625 430.71875 164.660156 432.097656 164.660156 424.453125 C 164.660156 417.0625 156.136719 418.566406 149.132812 418.441406 L 149.132812 430.71875 "/>
<path style=" stroke:none;fill-rule:nonzero;fill:rgb(22.745098%,25.490196%,29.019608%);fill-opacity:1;" d="M 197.859375 423.699219 C 196.605469 420.195312 193.476562 418.058594 188.710938 418.058594 C 181.324219 418.058594 177.8125 423.074219 177.8125 430.472656 C 177.8125 437.992188 181.449219 443.132812 188.964844 443.132812 C 194.347656 443.132812 196.726562 440.125 198.730469 436.613281 L 202.113281 438.367188 C 199.863281 443.132812 195.726562 446.636719 188.710938 446.636719 C 178.691406 446.636719 174.054688 440.371094 173.554688 430.472656 C 172.800781 417.433594 185.953125 411.292969 196.976562 416.5625 C 199.355469 417.6875 200.863281 419.820312 201.863281 422.328125 "/>
<path style="fill:none;stroke-width:1;stroke-linecap:butt;stroke-linejoin:miter;stroke:rgb(22.745098%,25.490196%,29.019608%);stroke-opacity:1;stroke-miterlimit:4;" d="M 456.000238 390.518577 L 456.000238 423.120448 " transform="matrix(2.029316,0,0,2.030534,-769.110749,-497.480916)"/>
<path style="fill-rule:nonzero;fill:rgb(22.745098%,25.490196%,29.019608%);fill-opacity:1;stroke-width:0.05;stroke-linecap:butt;stroke-linejoin:miter;stroke:rgb(22.745098%,25.490196%,29.019608%);stroke-opacity:1;stroke-miterlimit:4;" d="M 456.000238 390.020324 L 456.500715 389.979925 L 456.500715 390.532043 L 455.499762 390.532043 L 455.499762 389.979925 Z M 456.000238 390.020324 " transform="matrix(2.029316,0,0,2.030534,-769.110749,-497.480916)"/>
<path style="fill-rule:nonzero;fill:rgb(22.745098%,25.490196%,29.019608%);fill-opacity:1;stroke-width:1;stroke-linecap:butt;stroke-linejoin:miter;stroke:rgb(22.745098%,25.490196%,29.019608%);stroke-opacity:1;stroke-miterlimit:4;" d="M 456.000238 437.879494 L 451.37083 423.620624 L 460.629646 423.620624 Z M 456.000238 437.879494 " transform="matrix(2.029316,0,0,2.030534,-769.110749,-497.480916)"/>
<path style="fill:none;stroke-width:1;stroke-linecap:butt;stroke-linejoin:miter;stroke:rgb(22.745098%,25.490196%,29.019608%);stroke-opacity:1;stroke-miterlimit:4;" d="M 493.358886 317.148496 L 493.358886 296.000661 C 493.358886 292.13199 496.492639 289.000117 500.359783 289.000117 L 710.640769 289.000117 C 714.507913 289.000117 717.639741 292.13199 717.639741 296.000661 L 717.639741 313.039356 C 717.653215 315.030442 719.270139 316.640625 721.262421 316.640625 " transform="matrix(2.029316,0,0,2.030534,-769.110749,-497.480916)"/>
<path style="fill:none;stroke-width:1;stroke-linecap:butt;stroke-linejoin:miter;stroke:rgb(22.745098%,25.490196%,29.019608%);stroke-opacity:1;stroke-miterlimit:4;" d="M 495.358867 317.148496 L 495.358867 296.000661 C 495.358867 293.238149 497.597537 291.000822 500.359783 291.000822 L 710.640769 291.000822 C 713.403015 291.000822 715.63976 293.238149 715.63976 296.000661 L 715.63976 313.039356 C 715.653234 316.136601 718.163316 318.64133 721.262421 318.64133 " transform="matrix(2.029316,0,0,2.030534,-769.110749,-497.480916)"/>
<path style="fill-rule:nonzero;fill:rgb(22.745098%,25.490196%,29.019608%);fill-opacity:1;stroke-width:0.05;stroke-linecap:butt;stroke-linejoin:miter;stroke:rgb(22.745098%,25.490196%,29.019608%);stroke-opacity:1;stroke-miterlimit:4;" d="M 493.859362 317.148496 Z M 495.859344 319.149201 L 494.860316 318.148849 L 494.860316 317.148496 L 495.859344 317.148496 Z M 495.859344 319.149201 " transform="matrix(2.029316,0,0,2.030534,-769.110749,-497.480916)"/>
<path style="fill-rule:nonzero;fill:rgb(22.745098%,25.490196%,29.019608%);fill-opacity:1;stroke-width:1;stroke-linecap:butt;stroke-linejoin:miter;stroke:rgb(22.745098%,25.490196%,29.019608%);stroke-opacity:1;stroke-miterlimit:4;" d="M 736.018779 317.648672 L 721.760973 322.288769 L 721.760973 313.000881 Z M 736.018779 317.648672 " transform="matrix(2.029316,0,0,2.030534,-769.110749,-497.480916)"/>
<path style=" stroke:none;fill-rule:nonzero;fill:rgb(20%,20%,20%);fill-opacity:1;" d="M 402.019531 72.425781 L 402.167969 57.078125 L 397.359375 72.425781 L 394.574219 72.425781 L 389.84375 57.078125 L 389.992188 72.425781 L 386.539062 72.425781 L 386.539062 53.769531 L 391.800781 53.769531 L 396.011719 67.683594 L 400.289062 53.769531 L 405.476562 53.769531 L 405.476562 72.425781 L 402.019531 72.425781 "/>
<path style=" stroke:none;fill-rule:nonzero;fill:rgb(20%,20%,20%);fill-opacity:1;" d="M 427.875 72.425781 L 423.285156 72.425781 L 419.980469 57.679688 L 416.675781 72.425781 L 412.015625 72.425781 L 407.203125 53.769531 L 411.191406 53.769531 L 414.496094 68.738281 L 417.878906 53.769531 L 422.242188 53.769531 L 425.464844 68.738281 L 428.773438 53.769531 L 432.679688 53.769531 "/>
<path style=" stroke:none;fill-rule:nonzero;fill:rgb(20%,20%,20%);fill-opacity:1;" d="M 446.140625 72.425781 L 444.484375 67.683594 L 437.421875 67.683594 L 435.765625 72.425781 L 431.855469 72.425781 L 438.625 53.769531 L 443.207031 53.769531 L 449.96875 72.425781 Z M 443.660156 64.753906 L 440.949219 56.632812 C 440.203125 59.488281 439.148438 62.042969 438.246094 64.753906 L 443.660156 64.753906 "/>
<path style=" stroke:none;fill-rule:nonzero;fill:rgb(20%,20%,20%);fill-opacity:1;" d="M 475.222656 59.335938 C 475.222656 62.34375 473.496094 63.921875 471.164062 64.605469 L 476.199219 72.425781 L 471.769531 72.425781 L 467.480469 65.351562 L 462.898438 65.351562 L 462.898438 72.425781 L 458.988281 72.425781 L 458.988281 53.769531 C 465.980469 54.070312 475.296875 52.039062 475.222656 59.335938 Z M 462.898438 62.34375 C 466.503906 62.191406 471.316406 63.246094 471.316406 59.488281 C 471.316406 55.878906 466.355469 57.078125 462.898438 56.855469 L 462.898438 62.34375 "/>
<path style=" stroke:none;fill-rule:nonzero;fill:rgb(20%,20%,20%);fill-opacity:1;" d="M 490.554688 68.816406 C 489.582031 71.070312 487.773438 72.796875 484.394531 72.726562 C 479.886719 72.574219 477.707031 69.941406 477.707031 65.199219 C 477.707031 60.464844 479.957031 57.832031 484.46875 57.832031 C 489.128906 57.832031 490.707031 61.21875 490.785156 65.953125 L 481.613281 65.953125 C 481.613281 68.285156 482.214844 70.09375 484.546875 70.164062 C 485.894531 70.164062 486.796875 69.640625 487.097656 68.515625 Z M 487.179688 63.621094 C 487.550781 60.164062 482.890625 58.886719 481.914062 62.042969 C 481.765625 62.496094 481.613281 63.019531 481.613281 63.621094 L 487.179688 63.621094 "/>
<path style=" stroke:none;fill-rule:nonzero;fill:rgb(20%,20%,20%);fill-opacity:1;" d="M 498 72.726562 C 494.089844 72.726562 492.816406 69.339844 492.816406 65.277344 C 492.816406 61.136719 494.164062 57.832031 498.300781 57.832031 C 500.480469 57.832031 501.828125 58.734375 502.660156 60.390625 L 502.8125 58.132812 L 506.417969 58.132812 L 506.339844 78.066406 L 502.660156 78.066406 L 502.660156 70.015625 C 501.90625 71.742188 500.25 72.726562 498 72.726562 Z M 499.578125 70.164062 C 501.976562 70.164062 502.660156 67.984375 502.660156 65.199219 C 502.660156 62.496094 501.976562 60.390625 499.648438 60.390625 C 497.175781 60.390625 496.722656 62.644531 496.644531 65.277344 C 496.644531 68.515625 497.617188 70.164062 499.578125 70.164062 "/>
<path style=" stroke:none;fill-rule:nonzero;fill:rgb(20%,20%,20%);fill-opacity:1;" d="M 514.535156 72.726562 C 507.996094 72.796875 510.175781 64.222656 509.792969 58.132812 L 513.558594 58.132812 C 514.082031 62.421875 511.824219 69.410156 516.03125 69.941406 C 520.542969 69.5625 518.664062 62.644531 519.046875 58.132812 L 522.800781 58.132812 L 522.875 72.425781 L 519.347656 72.425781 C 519.195312 71.519531 519.417969 70.316406 519.117188 69.5625 C 518.210938 71.441406 517.015625 72.726562 514.535156 72.726562 "/>
<path style=" stroke:none;fill-rule:nonzero;fill:rgb(20%,20%,20%);fill-opacity:1;" d="M 538.507812 68.816406 C 537.53125 71.070312 535.730469 72.796875 532.347656 72.726562 C 527.835938 72.574219 525.65625 69.941406 525.65625 65.199219 C 525.65625 60.464844 527.914062 57.832031 532.417969 57.832031 C 537.078125 57.832031 538.65625 61.21875 538.734375 65.953125 L 529.5625 65.953125 C 529.5625 68.285156 530.167969 70.09375 532.496094 70.164062 C 533.851562 70.164062 534.75 69.640625 535.050781 68.515625 Z M 535.128906 63.621094 C 535.5 60.164062 530.839844 58.886719 529.867188 62.042969 C 529.714844 62.496094 529.5625 63.019531 529.5625 63.621094 L 535.128906 63.621094 "/>
<path style=" stroke:none;fill-rule:nonzero;fill:rgb(20%,20%,20%);fill-opacity:1;" d="M 549.9375 62.042969 C 550.007812 59.859375 544.671875 59.488281 544.59375 61.742188 C 545.726562 65.199219 553.464844 62.273438 553.542969 68.214844 C 553.613281 74.457031 541.21875 73.925781 540.613281 68.886719 L 543.847656 68.363281 C 544.148438 69.792969 545.347656 70.242188 547.15625 70.242188 C 549.636719 70.847656 551.433594 67.984375 548.953125 67.160156 C 545.726562 66.101562 541.289062 66.332031 541.136719 62.191406 C 540.988281 56.179688 552.710938 56.632812 553.242188 61.667969 "/>
<path style=" stroke:none;fill-rule:nonzero;fill:rgb(20%,20%,20%);fill-opacity:1;" d="M 563.308594 72.195312 C 560.605469 73.25 556.769531 72.726562 556.769531 69.039062 L 556.769531 60.613281 L 554.96875 60.613281 L 554.96875 58.132812 L 557 58.132812 L 558.125 54.753906 L 560.457031 54.753906 L 560.457031 58.132812 L 563.160156 58.132812 L 563.160156 60.613281 L 560.457031 60.613281 L 560.457031 68.0625 C 560.382812 69.792969 561.660156 70.394531 563.308594 69.941406 L 563.308594 72.195312 "/>
<path style=" stroke:none;fill-rule:nonzero;fill:rgb(20%,20%,20%);fill-opacity:1;" d="M 573.90625 62.042969 C 573.988281 59.859375 568.644531 59.488281 568.574219 61.742188 C 569.699219 65.199219 577.445312 62.273438 577.515625 68.214844 C 577.59375 74.457031 565.1875 73.925781 564.585938 68.886719 L 567.820312 68.363281 C 568.121094 69.792969 569.328125 70.242188 571.125 70.242188 C 573.605469 70.847656 575.414062 67.984375 572.933594 67.160156 C 569.699219 66.101562 565.265625 66.332031 565.117188 62.191406 C 564.964844 56.179688 576.691406 56.632812 577.214844 61.667969 "/>
<path style="fill:none;stroke-width:1;stroke-linecap:butt;stroke-linejoin:miter;stroke:rgb(22.745098%,25.490196%,29.019608%);stroke-opacity:1;stroke-miterlimit:4;" d="M 505.100835 358.99978 C 508.19609 359.011322 510.698473 361.523746 510.698473 364.620991 L 510.698473 373.999295 C 510.698473 376.761807 512.937143 378.999134 515.699388 378.999134 L 737.300769 378.999134 C 740.063014 378.999134 742.301684 376.761807 742.301684 373.999295 L 742.301684 360.500308 " transform="matrix(2.029316,0,0,2.030534,-769.110749,-497.480916)"/>
<path style="fill:none;stroke-width:1;stroke-linecap:butt;stroke-linejoin:miter;stroke:rgb(22.745098%,25.490196%,29.019608%);stroke-opacity:1;stroke-miterlimit:4;" d="M 505.100835 361.000485 C 507.089267 361.012027 508.698491 362.627981 508.698491 364.620991 L 508.698491 373.999295 C 508.698491 377.867966 511.836094 380.999838 515.699388 380.999838 L 737.300769 380.999838 C 741.164062 380.999838 744.301665 377.867966 744.301665 373.999295 L 744.301665 360.500308 " transform="matrix(2.029316,0,0,2.030534,-769.110749,-497.480916)"/>
<path style="fill-rule:nonzero;fill:rgb(22.745098%,25.490196%,29.019608%);fill-opacity:1;stroke-width:1;stroke-linecap:butt;stroke-linejoin:miter;stroke:rgb(22.745098%,25.490196%,29.019608%);stroke-opacity:1;stroke-miterlimit:4;" d="M 490.319454 360.000132 L 504.590734 355.371578 L 504.590734 364.628686 Z M 490.319454 360.000132 " transform="matrix(2.029316,0,0,2.030534,-769.110749,-497.480916)"/>
<path style="fill-rule:nonzero;fill:rgb(22.745098%,25.490196%,29.019608%);fill-opacity:1;stroke-width:0.05;stroke-linecap:butt;stroke-linejoin:miter;stroke:rgb(22.745098%,25.490196%,29.019608%);stroke-opacity:1;stroke-miterlimit:4;" d="M 742.800236 359.499956 L 742.800236 360.500308 L 741.801208 360.500308 L 741.801208 358.499604 Z M 743.801189 360.500308 Z M 743.801189 360.500308 " transform="matrix(2.029316,0,0,2.030534,-769.110749,-497.480916)"/>
<path style=" stroke:none;fill-rule:nonzero;fill:rgb(20%,20%,20%);fill-opacity:1;" d="M 389.445312 303.90625 L 389.597656 288.558594 L 384.785156 303.90625 L 382.003906 303.90625 L 377.269531 288.558594 L 377.421875 303.90625 L 373.957031 303.90625 L 373.957031 285.25 L 379.21875 285.25 L 383.429688 299.164062 L 387.710938 285.25 L 392.902344 285.25 L 392.902344 303.90625 L 389.445312 303.90625 "/>
<path style=" stroke:none;fill-rule:nonzero;fill:rgb(20%,20%,20%);fill-opacity:1;" d="M 415.296875 303.90625 L 410.714844 303.90625 L 407.410156 289.160156 L 404.09375 303.90625 L 399.441406 303.90625 L 394.628906 285.25 L 398.609375 285.25 L 401.914062 300.21875 L 405.300781 285.25 L 409.660156 285.25 L 412.894531 300.21875 L 416.199219 285.25 L 420.109375 285.25 "/>
<path style=" stroke:none;fill-rule:nonzero;fill:rgb(20%,20%,20%);fill-opacity:1;" d="M 433.558594 303.90625 L 431.910156 299.164062 L 424.839844 299.164062 L 423.191406 303.90625 L 419.285156 303.90625 L 426.046875 285.25 L 430.628906 285.25 L 437.398438 303.90625 Z M 431.078125 296.234375 L 428.375 288.113281 C 427.621094 290.96875 426.570312 293.523438 425.671875 296.234375 L 431.078125 296.234375 "/>
<path style=" stroke:none;fill-rule:nonzero;fill:rgb(20%,20%,20%);fill-opacity:1;" d="M 462.652344 290.820312 C 462.652344 293.824219 460.917969 295.402344 458.59375 296.085938 L 463.628906 303.90625 L 459.1875 303.90625 L 454.90625 296.832031 L 450.324219 296.832031 L 450.324219 303.90625 L 446.417969 303.90625 L 446.417969 285.25 C 453.402344 285.550781 462.722656 283.519531 462.652344 290.820312 Z M 450.324219 293.824219 C 453.933594 293.675781 458.738281 294.730469 458.738281 290.96875 C 458.738281 287.359375 453.78125 288.558594 450.324219 288.335938 L 450.324219 293.824219 "/>
<path style=" stroke:none;fill-rule:nonzero;fill:rgb(20%,20%,20%);fill-opacity:1;" d="M 477.984375 300.296875 C 477 302.550781 475.199219 304.277344 471.816406 304.207031 C 467.304688 304.058594 465.125 301.421875 465.125 296.679688 C 465.125 291.945312 467.382812 289.3125 471.894531 289.3125 C 476.554688 289.3125 478.132812 292.699219 478.207031 297.433594 L 469.035156 297.433594 C 469.035156 299.765625 469.636719 301.574219 471.964844 301.644531 C 473.320312 301.644531 474.226562 301.121094 474.527344 299.996094 Z M 474.597656 295.101562 C 474.972656 291.644531 470.316406 290.367188 469.335938 293.523438 C 469.183594 293.976562 469.035156 294.5 469.035156 295.101562 L 474.597656 295.101562 "/>
<path style=" stroke:none;fill-rule:nonzero;fill:rgb(20%,20%,20%);fill-opacity:1;" d="M 489.40625 293.523438 C 489.476562 291.34375 484.140625 290.96875 484.070312 293.222656 C 485.195312 296.679688 492.941406 293.753906 493.011719 299.695312 C 493.09375 305.9375 480.6875 305.40625 480.082031 300.367188 L 483.316406 299.84375 C 483.621094 301.273438 484.824219 301.726562 486.625 301.726562 C 489.105469 302.328125 490.914062 299.464844 488.429688 298.640625 C 485.195312 297.585938 480.765625 297.8125 480.613281 293.675781 C 480.464844 287.660156 492.1875 288.113281 492.710938 293.152344 "/>
<path style=" stroke:none;fill-rule:nonzero;fill:rgb(20%,20%,20%);fill-opacity:1;" d="M 504.285156 289.3125 C 508.273438 289.3125 509.546875 292.617188 509.546875 296.679688 C 509.546875 300.890625 508.121094 304.058594 504.0625 304.207031 C 501.734375 304.277344 500.679688 302.921875 499.625 301.644531 C 499.855469 304.128906 499.773438 306.832031 499.773438 309.546875 L 496.015625 309.546875 L 495.945312 289.613281 L 499.550781 289.613281 C 499.703125 290.367188 499.550781 291.34375 499.773438 291.945312 C 500.605469 290.144531 501.953125 289.3125 504.285156 289.3125 Z M 502.707031 301.644531 C 505.1875 301.644531 505.640625 299.3125 505.710938 296.679688 C 505.710938 293.824219 505.039062 291.875 502.707031 291.875 C 498.5 291.875 498.578125 301.644531 502.707031 301.644531 "/>
<path style=" stroke:none;fill-rule:nonzero;fill:rgb(20%,20%,20%);fill-opacity:1;" d="M 518.871094 289.3125 C 523.675781 289.3125 526.085938 292.023438 526.085938 296.757812 C 526.085938 301.574219 523.453125 304.207031 518.792969 304.207031 C 514.210938 304.207031 511.648438 301.496094 511.648438 296.757812 C 511.648438 292.09375 514.210938 289.3125 518.871094 289.3125 Z M 518.792969 301.644531 C 521.421875 301.644531 522.175781 299.542969 522.175781 296.757812 C 522.175781 293.753906 521.421875 291.875 518.941406 291.875 C 516.390625 291.875 515.558594 293.824219 515.558594 296.757812 C 515.558594 299.464844 516.308594 301.644531 518.792969 301.644531 "/>
<path style=" stroke:none;fill-rule:nonzero;fill:rgb(20%,20%,20%);fill-opacity:1;" d="M 537.207031 289.3125 C 543.746094 289.238281 541.566406 297.8125 541.9375 303.90625 L 538.179688 303.90625 C 537.65625 299.613281 539.910156 292.09375 535.628906 292.09375 C 531.195312 292.09375 533.074219 299.394531 532.695312 303.90625 L 528.9375 303.90625 L 528.867188 289.613281 L 532.394531 289.613281 C 532.542969 290.515625 532.324219 291.722656 532.625 292.46875 C 533.527344 290.515625 534.726562 289.390625 537.207031 289.3125 "/>
<path style=" stroke:none;fill-rule:nonzero;fill:rgb(20%,20%,20%);fill-opacity:1;" d="M 553.820312 293.523438 C 553.890625 291.34375 548.558594 290.96875 548.476562 293.222656 C 549.613281 296.679688 557.347656 293.753906 557.425781 299.695312 C 557.5 305.9375 545.101562 305.40625 544.5 300.367188 L 547.734375 299.84375 C 548.027344 301.273438 549.230469 301.726562 551.039062 301.726562 C 553.519531 302.328125 555.320312 299.464844 552.839844 298.640625 C 549.613281 297.585938 545.171875 297.8125 545.023438 293.675781 C 544.871094 287.660156 556.59375 288.113281 557.125 293.152344 "/>
<path style=" stroke:none;fill-rule:nonzero;fill:rgb(20%,20%,20%);fill-opacity:1;" d="M 572.457031 300.296875 C 571.480469 302.550781 569.675781 304.277344 566.289062 304.207031 C 561.789062 304.058594 559.609375 301.421875 559.609375 296.679688 C 559.609375 291.945312 561.859375 289.3125 566.371094 289.3125 C 571.03125 289.3125 572.609375 292.699219 572.679688 297.433594 L 563.515625 297.433594 C 563.515625 299.765625 564.117188 301.574219 566.441406 301.644531 C 567.796875 301.644531 568.699219 301.121094 569 299.996094 Z M 569.074219 295.101562 C 569.453125 291.644531 564.792969 290.367188 563.816406 293.523438 C 563.667969 293.976562 563.515625 294.5 563.515625 295.101562 L 569.074219 295.101562 "/>
<path style=" stroke:none;fill-rule:nonzero;fill:rgb(20%,20%,20%);fill-opacity:1;" d="M 583.878906 293.523438 C 583.960938 291.34375 578.617188 290.96875 578.546875 293.222656 C 579.671875 296.679688 587.414062 293.753906 587.488281 299.695312 C 587.566406 305.9375 575.160156 305.40625 574.558594 300.367188 L 577.792969 299.84375 C 578.09375 301.273438 579.296875 301.726562 581.097656 301.726562 C 583.578125 302.328125 585.386719 299.464844 582.90625 298.640625 C 579.671875 297.585938 575.238281 297.8125 575.089844 293.675781 C 574.9375 287.660156 586.664062 288.113281 587.1875 293.152344 "/>
<path style=" stroke:none;fill-rule:nonzero;fill:rgb(22.745098%,25.490196%,29.019608%);fill-opacity:1;" d="M 393.558594 194.621094 L 393.757812 172.761719 C 391.460938 180.382812 388.351562 187.300781 385.746094 194.621094 L 383.4375 194.621094 L 375.320312 172.761719 L 375.421875 194.621094 L 372.515625 194.621094 L 372.515625 169.753906 L 376.929688 169.753906 L 384.640625 190.910156 C 386.75 183.390625 389.753906 176.871094 392.261719 169.753906 L 396.566406 169.753906 L 396.566406 194.621094 L 393.558594 194.621094 "/>
<path style=" stroke:none;fill-rule:nonzero;fill:rgb(22.745098%,25.490196%,29.019608%);fill-opacity:1;" d="M 426.132812 194.621094 L 422.121094 194.621094 L 416.507812 173.5625 L 411 194.621094 L 406.988281 194.621094 L 399.671875 169.753906 L 403.183594 169.753906 L 409.097656 191.617188 L 410.59375 185.199219 L 414.90625 169.753906 L 418.109375 169.753906 L 424.023438 191.617188 L 429.9375 169.753906 L 433.449219 169.753906 "/>
<path style=" stroke:none;fill-rule:nonzero;fill:rgb(22.745098%,25.490196%,29.019608%);fill-opacity:1;" d="M 452.6875 194.621094 L 449.882812 187.402344 L 438.554688 187.402344 L 435.746094 194.621094 L 432.246094 194.621094 L 442.367188 169.753906 L 446.171875 169.753906 L 456.097656 194.621094 Z M 448.882812 184.691406 L 444.167969 172.359375 C 442.96875 176.871094 441.058594 180.582031 439.5625 184.691406 L 448.882812 184.691406 "/>
<path style=" stroke:none;fill-rule:nonzero;fill:rgb(22.745098%,25.490196%,29.019608%);fill-opacity:1;" d="M 482.753906 175.671875 C 482.246094 170.859375 470.429688 170.253906 470.324219 175.871094 C 471.730469 183.390625 486.15625 177.273438 486.664062 187.800781 C 486.964844 195.621094 474.535156 196.527344 469.121094 193.320312 C 467.417969 192.3125 466.316406 190.710938 465.816406 188.703125 L 469.121094 188.007812 C 469.621094 193.613281 483.253906 194.320312 483.253906 187.902344 C 483.253906 180.082031 467.71875 186.5 467.019531 176.070312 C 466.519531 167.84375 481.550781 167.644531 484.957031 172.660156 C 485.457031 173.363281 485.757812 174.269531 486.0625 175.164062 "/>
<path style=" stroke:none;fill-rule:nonzero;fill:rgb(22.745098%,25.490196%,29.019608%);fill-opacity:1;" d="M 498.285156 175.164062 C 504.601562 175.164062 506.902344 179.378906 506.703125 185.792969 L 493.171875 185.792969 C 493.171875 189.808594 494.574219 192.511719 498.484375 192.613281 C 501.089844 192.71875 502.792969 191.410156 503.398438 189.703125 L 506.203125 190.511719 C 505.101562 193.320312 502.492188 195.019531 498.484375 195.019531 C 492.671875 195.019531 489.667969 191.3125 489.761719 184.992188 C 489.867188 178.878906 492.371094 175.164062 498.285156 175.164062 Z M 503.492188 183.289062 C 504.09375 177.273438 495.882812 175.570312 493.773438 180.480469 C 493.472656 181.183594 493.171875 182.183594 493.171875 183.289062 L 503.492188 183.289062 "/>
<path style=" stroke:none;fill-rule:nonzero;fill:rgb(22.745098%,25.490196%,29.019608%);fill-opacity:1;" d="M 521.835938 180.28125 C 521.535156 176.871094 513.21875 176.472656 513.117188 180.28125 C 514.621094 185.59375 524.640625 181.488281 525.039062 189.308594 C 525.441406 197.128906 510.007812 196.722656 509.3125 190.109375 L 512.117188 189.609375 C 512.511719 193.21875 521.835938 194.121094 521.9375 189.609375 C 520.933594 183.992188 510.609375 188.101562 510.113281 180.582031 C 509.707031 174.863281 518.324219 174.269531 522.335938 176.371094 C 523.539062 177.078125 524.445312 178.273438 524.746094 179.882812 "/>
<path style=" stroke:none;fill-rule:nonzero;fill:rgb(22.745098%,25.490196%,29.019608%);fill-opacity:1;" d="M 539.871094 180.28125 C 539.574219 176.871094 531.253906 176.472656 531.15625 180.28125 C 532.65625 185.59375 542.675781 181.488281 543.078125 189.308594 C 543.484375 197.128906 528.050781 196.722656 527.34375 190.109375 L 530.152344 189.609375 C 530.554688 193.21875 539.871094 194.121094 539.972656 189.609375 C 538.972656 183.992188 528.652344 188.101562 528.144531 180.582031 C 527.75 174.863281 536.367188 174.269531 540.375 176.371094 C 541.574219 177.078125 542.476562 178.273438 542.777344 179.882812 "/>
<path style=" stroke:none;fill-rule:nonzero;fill:rgb(22.745098%,25.490196%,29.019608%);fill-opacity:1;" d="M 546.789062 171.460938 L 546.789062 168.445312 L 549.992188 168.445312 L 549.992188 171.460938 Z M 546.789062 194.621094 L 546.789062 175.570312 L 549.992188 175.570312 L 549.992188 194.621094 L 546.789062 194.621094 "/>
<path style=" stroke:none;fill-rule:nonzero;fill:rgb(22.745098%,25.490196%,29.019608%);fill-opacity:1;" d="M 562.320312 175.164062 C 568.535156 175.070312 570.839844 178.878906 570.839844 185.097656 C 570.933594 191.410156 568.136719 195.019531 562.222656 195.019531 C 556.308594 195.019531 553.898438 191.109375 553.804688 185.097656 C 553.804688 178.480469 556.609375 175.164062 562.320312 175.164062 Z M 562.222656 192.613281 C 566.632812 192.71875 567.535156 189.507812 567.535156 185.097656 C 567.535156 180.78125 566.734375 177.578125 562.421875 177.578125 C 558.109375 177.578125 557.109375 180.78125 557.109375 185.097656 C 557.109375 189.410156 558.109375 192.511719 562.222656 192.613281 "/>
<path style=" stroke:none;fill-rule:nonzero;fill:rgb(22.745098%,25.490196%,29.019608%);fill-opacity:1;" d="M 584.070312 175.164062 C 592.988281 174.769531 589.382812 186.800781 590.078125 194.621094 L 586.875 194.621094 L 586.875 182.488281 C 586.875 179.378906 586.066406 177.578125 582.96875 177.671875 C 575.746094 177.878906 578.554688 187.902344 578.054688 194.621094 L 574.851562 194.621094 L 574.75 175.570312 L 577.753906 175.570312 C 577.855469 176.570312 577.65625 177.972656 577.949219 178.773438 C 579.050781 176.570312 580.859375 175.269531 584.070312 175.164062 "/>
</g>
</svg>
