<svg width="817" height="430" viewBox="0 0 817 430" fill="none" xmlns="http://www.w3.org/2000/svg">
<rect x="10" y="17" width="752" height="389" rx="24" fill="#1B1B1D"/>
<ellipse cx="408" cy="221.5" rx="260" ry="136.5" fill="#4A86E8" fill-opacity="0.3"/>
<path d="M541 199L531 193.227L531 204.774L541 199ZM281 200L532 200L532 198L281 198L281 200Z" fill="white"/>
<path d="M281 225L291 230.774L291 219.226L281 225ZM290 226L541 226L541 224L290 224L290 226Z" fill="white"/>
<path d="M94 153C94 148.582 97.5817 145 102 145H206C210.418 145 214 148.582 214 153V197C214 201.418 210.418 205 206 205H102C97.5817 205 94 201.418 94 197V153Z" fill="#282A36"/>
<path d="M135.585 168.909H137.477L141.926 179.776H142.08L146.528 168.909H148.42V182H146.938V172.054H146.81L142.719 182H141.287L137.196 172.054H137.068V182H135.585V168.909ZM155.383 182.205C154.497 182.205 153.719 181.994 153.05 181.572C152.385 181.15 151.865 180.56 151.49 179.801C151.119 179.043 150.934 178.156 150.934 177.142C150.934 176.119 151.119 175.227 151.49 174.464C151.865 173.701 152.385 173.109 153.05 172.687C153.719 172.265 154.497 172.054 155.383 172.054C156.269 172.054 157.045 172.265 157.71 172.687C158.379 173.109 158.899 173.701 159.269 174.464C159.644 175.227 159.832 176.119 159.832 177.142C159.832 178.156 159.644 179.043 159.269 179.801C158.899 180.56 158.379 181.15 157.71 181.572C157.045 181.994 156.269 182.205 155.383 182.205ZM155.383 180.849C156.056 180.849 156.61 180.677 157.045 180.332C157.48 179.987 157.801 179.533 158.01 178.97C158.219 178.408 158.323 177.798 158.323 177.142C158.323 176.486 158.219 175.874 158.01 175.308C157.801 174.741 157.48 174.283 157.045 173.933C156.61 173.584 156.056 173.409 155.383 173.409C154.71 173.409 154.156 173.584 153.721 173.933C153.286 174.283 152.965 174.741 152.756 175.308C152.547 175.874 152.443 176.486 152.443 177.142C152.443 177.798 152.547 178.408 152.756 178.97C152.965 179.533 153.286 179.987 153.721 180.332C154.156 180.677 154.71 180.849 155.383 180.849ZM162.339 182V168.909H163.848V173.741H163.975C164.086 173.571 164.24 173.354 164.436 173.089C164.636 172.821 164.922 172.582 165.292 172.374C165.667 172.161 166.174 172.054 166.814 172.054C167.64 172.054 168.369 172.261 169 172.674C169.63 173.087 170.123 173.673 170.476 174.432C170.83 175.19 171.007 176.085 171.007 177.116C171.007 178.156 170.83 179.058 170.476 179.82C170.123 180.579 169.632 181.167 169.006 181.585C168.38 181.998 167.657 182.205 166.839 182.205C166.208 182.205 165.703 182.1 165.324 181.891C164.945 181.678 164.653 181.437 164.449 181.169C164.244 180.896 164.086 180.67 163.975 180.491H163.797V182H162.339ZM163.822 177.091C163.822 177.832 163.931 178.487 164.148 179.053C164.365 179.616 164.683 180.057 165.1 180.376C165.518 180.692 166.029 180.849 166.635 180.849C167.265 180.849 167.792 180.683 168.213 180.351C168.64 180.014 168.959 179.562 169.172 178.996C169.39 178.425 169.498 177.79 169.498 177.091C169.498 176.401 169.392 175.778 169.179 175.224C168.97 174.666 168.652 174.225 168.226 173.901C167.804 173.573 167.274 173.409 166.635 173.409C166.021 173.409 165.505 173.565 165.088 173.876C164.67 174.183 164.355 174.613 164.142 175.167C163.929 175.717 163.822 176.358 163.822 177.091ZM173.314 182V172.182H174.823V182H173.314ZM174.081 170.545C173.787 170.545 173.534 170.445 173.321 170.245C173.112 170.045 173.007 169.804 173.007 169.523C173.007 169.241 173.112 169.001 173.321 168.8C173.534 168.6 173.787 168.5 174.081 168.5C174.375 168.5 174.627 168.6 174.836 168.8C175.049 169.001 175.155 169.241 175.155 169.523C175.155 169.804 175.049 170.045 174.836 170.245C174.627 170.445 174.375 170.545 174.081 170.545ZM179.094 168.909V182H177.586V168.909H179.094ZM185.974 182.205C185.028 182.205 184.212 181.996 183.526 181.578C182.844 181.156 182.317 180.568 181.947 179.814C181.58 179.055 181.397 178.173 181.397 177.168C181.397 176.162 181.58 175.276 181.947 174.509C182.317 173.737 182.833 173.136 183.494 172.706C184.158 172.271 184.934 172.054 185.82 172.054C186.332 172.054 186.837 172.139 187.335 172.31C187.834 172.48 188.288 172.757 188.697 173.141C189.106 173.52 189.432 174.023 189.675 174.649C189.918 175.276 190.039 176.047 190.039 176.963V177.602H182.471V176.298H188.505C188.505 175.744 188.394 175.25 188.173 174.815C187.955 174.381 187.644 174.038 187.239 173.786C186.839 173.535 186.366 173.409 185.82 173.409C185.219 173.409 184.7 173.558 184.261 173.857C183.826 174.151 183.491 174.534 183.257 175.007C183.023 175.48 182.906 175.987 182.906 176.528V177.398C182.906 178.139 183.033 178.768 183.289 179.283C183.549 179.795 183.909 180.185 184.369 180.453C184.83 180.717 185.364 180.849 185.974 180.849C186.37 180.849 186.728 180.794 187.048 180.683C187.371 180.568 187.651 180.398 187.885 180.172C188.119 179.942 188.3 179.656 188.428 179.315L189.886 179.724C189.732 180.219 189.474 180.653 189.112 181.028C188.75 181.399 188.303 181.689 187.77 181.898C187.237 182.102 186.638 182.205 185.974 182.205Z" fill="white"/>
<path d="M126.5 166.667V167.833C126.5 168.3 126.5 168.533 126.409 168.712C126.329 168.868 126.202 168.996 126.045 169.076C125.867 169.167 125.633 169.167 125.167 169.167H122.833C122.367 169.167 122.133 169.167 121.955 169.076C121.798 168.996 121.671 168.868 121.591 168.712C121.5 168.533 121.5 168.3 121.5 167.833V166.667M120.833 183.333H127.167C128.1 183.333 128.567 183.333 128.923 183.152C129.237 182.992 129.492 182.737 129.652 182.423C129.833 182.067 129.833 181.6 129.833 180.667V169.333C129.833 168.4 129.833 167.933 129.652 167.577C129.492 167.263 129.237 167.008 128.923 166.848C128.567 166.667 128.1 166.667 127.167 166.667H120.833C119.9 166.667 119.433 166.667 119.077 166.848C118.763 167.008 118.508 167.263 118.348 167.577C118.167 167.933 118.167 168.4 118.167 169.333V180.667C118.167 181.6 118.167 182.067 118.348 182.423C118.508 182.737 118.763 182.992 119.077 183.152C119.433 183.333 119.9 183.333 120.833 183.333Z" stroke="white" stroke-width="2" stroke-linecap="round" stroke-linejoin="round"/>
<path d="M24 241C24 236.582 27.5817 233 32 233H136C140.418 233 144 236.582 144 241V285C144 289.418 140.418 293 136 293H32C27.5817 293 24 289.418 24 285V241Z" fill="#282A36"/>
<path d="M72.3333 260.5H55.6667M55.6667 259.5L55.6667 266.5C55.6667 267.9 55.6667 268.6 55.9391 269.135C56.1788 269.605 56.5613 269.988 57.0317 270.228C57.5665 270.5 58.2665 270.5 59.6667 270.5H68.3333C69.7335 270.5 70.4335 270.5 70.9683 270.228C71.4387 269.988 71.8212 269.605 72.0608 269.135C72.3333 268.6 72.3333 267.9 72.3333 266.5V259.5C72.3333 258.1 72.3333 257.4 72.0608 256.865C71.8212 256.395 71.4387 256.012 70.9683 255.772C70.4335 255.5 69.7335 255.5 68.3333 255.5L59.6667 255.5C58.2665 255.5 57.5665 255.5 57.0317 255.772C56.5613 256.012 56.1788 256.395 55.9391 256.865C55.6667 257.4 55.6667 258.1 55.6667 259.5Z" stroke="white" stroke-width="2" stroke-linecap="round" stroke-linejoin="round"/>
<path d="M80.9631 269L77.3835 255.909H78.9943L81.7301 266.571H81.858L84.6449 255.909H86.4347L89.2216 266.571H89.3494L92.0852 255.909H93.696L90.1165 269H88.4801L85.5909 258.568H85.4886L82.5994 269H80.9631ZM98.669 269.205C97.723 269.205 96.907 268.996 96.2209 268.578C95.5391 268.156 95.0128 267.568 94.642 266.814C94.2756 266.055 94.0923 265.173 94.0923 264.168C94.0923 263.162 94.2756 262.276 94.642 261.509C95.0128 260.737 95.5284 260.136 96.1889 259.706C96.8537 259.271 97.6293 259.054 98.5156 259.054C99.027 259.054 99.532 259.139 100.031 259.31C100.529 259.48 100.983 259.757 101.392 260.141C101.801 260.52 102.127 261.023 102.37 261.649C102.613 262.276 102.734 263.047 102.734 263.963V264.602H95.1662V263.298H101.2C101.2 262.744 101.089 262.25 100.868 261.815C100.651 261.381 100.339 261.038 99.9347 260.786C99.5341 260.535 99.0611 260.409 98.5156 260.409C97.9148 260.409 97.3949 260.558 96.956 260.857C96.5213 261.151 96.1868 261.534 95.9524 262.007C95.718 262.48 95.6009 262.987 95.6009 263.528V264.398C95.6009 265.139 95.7287 265.768 95.9844 266.283C96.2443 266.795 96.6044 267.185 97.0646 267.453C97.5249 267.717 98.0597 267.849 98.669 267.849C99.0653 267.849 99.4233 267.794 99.7429 267.683C100.067 267.568 100.346 267.398 100.58 267.172C100.815 266.942 100.996 266.656 101.124 266.315L102.581 266.724C102.428 267.219 102.17 267.653 101.808 268.028C101.445 268.399 100.998 268.689 100.465 268.898C99.9325 269.102 99.3338 269.205 98.669 269.205ZM105.234 269V255.909H106.742V260.741H106.87C106.981 260.571 107.134 260.354 107.33 260.089C107.531 259.821 107.816 259.582 108.187 259.374C108.562 259.161 109.069 259.054 109.708 259.054C110.535 259.054 111.263 259.261 111.894 259.674C112.525 260.087 113.017 260.673 113.371 261.432C113.724 262.19 113.901 263.085 113.901 264.116C113.901 265.156 113.724 266.058 113.371 266.82C113.017 267.579 112.527 268.167 111.901 268.585C111.274 268.998 110.552 269.205 109.734 269.205C109.103 269.205 108.598 269.1 108.219 268.891C107.839 268.678 107.548 268.437 107.343 268.169C107.138 267.896 106.981 267.67 106.87 267.491H106.691V269H105.234ZM106.717 264.091C106.717 264.832 106.825 265.487 107.043 266.053C107.26 266.616 107.577 267.057 107.995 267.376C108.413 267.692 108.924 267.849 109.529 267.849C110.16 267.849 110.686 267.683 111.108 267.351C111.534 267.014 111.854 266.562 112.067 265.996C112.284 265.425 112.393 264.79 112.393 264.091C112.393 263.401 112.286 262.778 112.073 262.224C111.864 261.666 111.547 261.225 111.121 260.901C110.699 260.573 110.168 260.409 109.529 260.409C108.915 260.409 108.4 260.565 107.982 260.876C107.565 261.183 107.249 261.613 107.036 262.167C106.823 262.717 106.717 263.358 106.717 264.091Z" fill="white"/>
<path d="M164 241C164 236.582 167.582 233 172 233H276C280.418 233 284 236.582 284 241V285C284 289.418 280.418 293 276 293H172C167.582 293 164 289.418 164 285V241Z" fill="#282A36"/>
<path d="M215.585 269V255.909H220.009C221.036 255.909 221.875 256.094 222.527 256.465C223.183 256.832 223.669 257.328 223.984 257.955C224.3 258.581 224.457 259.28 224.457 260.051C224.457 260.822 224.3 261.523 223.984 262.154C223.673 262.785 223.192 263.288 222.54 263.663C221.888 264.033 221.053 264.219 220.034 264.219H216.864V262.812H219.983C220.686 262.812 221.251 262.691 221.677 262.448C222.103 262.205 222.412 261.877 222.604 261.464C222.8 261.046 222.898 260.575 222.898 260.051C222.898 259.527 222.8 259.058 222.604 258.645C222.412 258.232 222.101 257.908 221.67 257.673C221.24 257.435 220.669 257.315 219.957 257.315H217.17V269H215.585ZM229.389 269L225.809 255.909H227.42L230.156 266.571H230.284L233.071 255.909H234.86L237.647 266.571H237.775L240.511 255.909H242.122L238.542 269H236.906L234.017 258.568H233.914L231.025 269H229.389ZM243.614 269H241.952L246.759 255.909H248.396L253.202 269H251.54L247.629 257.98H247.526L243.614 269ZM244.228 263.886H250.927V265.293H244.228V263.886Z" fill="#FFFDFD"/>
<path d="M204 267.583H204.008M200.833 271.333H207.167C208.1 271.333 208.567 271.333 208.923 271.152C209.237 270.992 209.492 270.737 209.652 270.423C209.833 270.067 209.833 269.6 209.833 268.667V257.333C209.833 256.4 209.833 255.933 209.652 255.577C209.492 255.263 209.237 255.008 208.923 254.848C208.567 254.667 208.1 254.667 207.167 254.667H200.833C199.9 254.667 199.433 254.667 199.077 254.848C198.763 255.008 198.508 255.263 198.348 255.577C198.167 255.933 198.167 256.4 198.167 257.333V268.667C198.167 269.6 198.167 270.067 198.348 270.423C198.508 270.737 198.763 270.992 199.077 271.152C199.433 271.333 199.9 271.333 200.833 271.333ZM204.417 267.583C204.417 267.813 204.23 268 204 268C203.77 268 203.583 267.813 203.583 267.583C203.583 267.353 203.77 267.167 204 267.167C204.23 267.167 204.417 267.353 204.417 267.583Z" stroke="white" stroke-width="2" stroke-linecap="round" stroke-linejoin="round"/>
<path d="M561 193C561 188.582 564.582 185 569 185H673C677.418 185 681 188.582 681 193V237C681 241.418 677.418 245 673 245H569C564.582 245 561 241.418 561 237V193Z" fill="#282A36"/>
<path d="M606.027 210L602.447 196.909H604.058L606.794 207.571H606.921L609.708 196.909H611.498L614.285 207.571H614.413L617.149 196.909H618.76L615.18 210H613.544L610.654 199.568H610.552L607.663 210H606.027ZM622.505 210.23C621.883 210.23 621.318 210.113 620.811 209.879C620.304 209.64 619.902 209.297 619.603 208.849C619.305 208.398 619.156 207.852 619.156 207.213C619.156 206.651 619.267 206.195 619.488 205.845C619.71 205.491 620.006 205.214 620.377 205.014C620.747 204.814 621.157 204.665 621.604 204.567C622.056 204.464 622.509 204.384 622.965 204.324C623.562 204.247 624.046 204.19 624.416 204.151C624.791 204.109 625.064 204.038 625.235 203.94C625.409 203.842 625.497 203.672 625.497 203.429V203.378C625.497 202.747 625.324 202.257 624.979 201.908C624.638 201.558 624.12 201.384 623.426 201.384C622.706 201.384 622.141 201.541 621.732 201.857C621.323 202.172 621.035 202.509 620.869 202.866L619.437 202.355C619.693 201.759 620.034 201.294 620.46 200.962C620.89 200.625 621.359 200.391 621.866 200.259C622.377 200.122 622.88 200.054 623.375 200.054C623.69 200.054 624.052 200.092 624.461 200.169C624.875 200.241 625.273 200.393 625.657 200.623C626.044 200.853 626.366 201.2 626.622 201.665C626.877 202.129 627.005 202.751 627.005 203.531V210H625.497V208.67H625.42C625.318 208.884 625.147 209.112 624.909 209.354C624.67 209.597 624.353 209.804 623.956 209.974C623.56 210.145 623.076 210.23 622.505 210.23ZM622.735 208.875C623.332 208.875 623.835 208.758 624.244 208.523C624.657 208.289 624.968 207.987 625.177 207.616C625.39 207.245 625.497 206.855 625.497 206.446V205.065C625.433 205.142 625.292 205.212 625.075 205.276C624.862 205.336 624.615 205.389 624.333 205.436C624.056 205.479 623.786 205.517 623.522 205.551C623.262 205.581 623.051 205.607 622.889 205.628C622.497 205.679 622.13 205.762 621.789 205.877C621.453 205.988 621.18 206.156 620.971 206.382C620.767 206.604 620.664 206.906 620.664 207.29C620.664 207.814 620.858 208.21 621.246 208.479C621.638 208.743 622.134 208.875 622.735 208.875ZM631.267 196.909V210H629.759V196.909H631.267ZM635.539 196.909V210H634.03V196.909H635.539ZM642.418 210.205C641.472 210.205 640.656 209.996 639.97 209.578C639.288 209.156 638.762 208.568 638.391 207.814C638.025 207.055 637.841 206.173 637.841 205.168C637.841 204.162 638.025 203.276 638.391 202.509C638.762 201.737 639.277 201.136 639.938 200.706C640.603 200.271 641.378 200.054 642.265 200.054C642.776 200.054 643.281 200.139 643.78 200.31C644.278 200.48 644.732 200.757 645.141 201.141C645.55 201.52 645.876 202.023 646.119 202.649C646.362 203.276 646.483 204.047 646.483 204.963V205.602H638.915V204.298H644.949C644.949 203.744 644.839 203.25 644.617 202.815C644.4 202.381 644.089 202.038 643.684 201.786C643.283 201.535 642.81 201.409 642.265 201.409C641.664 201.409 641.144 201.558 640.705 201.857C640.27 202.151 639.936 202.534 639.701 203.007C639.467 203.48 639.35 203.987 639.35 204.528V205.398C639.35 206.139 639.478 206.768 639.733 207.283C639.993 207.795 640.353 208.185 640.814 208.453C641.274 208.717 641.809 208.849 642.418 208.849C642.814 208.849 643.172 208.794 643.492 208.683C643.816 208.568 644.095 208.398 644.329 208.172C644.564 207.942 644.745 207.656 644.873 207.315L646.33 207.724C646.177 208.219 645.919 208.653 645.557 209.028C645.194 209.399 644.747 209.689 644.214 209.898C643.682 210.102 643.083 210.205 642.418 210.205ZM653.048 200.182V201.46H647.96V200.182H653.048ZM649.443 197.83H650.951V207.188C650.951 207.614 651.013 207.933 651.137 208.146C651.265 208.355 651.427 208.496 651.623 208.568C651.823 208.636 652.034 208.67 652.255 208.67C652.422 208.67 652.558 208.662 652.665 208.645C652.771 208.624 652.856 208.607 652.92 208.594L653.227 209.949C653.125 209.987 652.982 210.026 652.799 210.064C652.616 210.107 652.383 210.128 652.102 210.128C651.676 210.128 651.258 210.036 650.849 209.853C650.444 209.67 650.108 209.391 649.839 209.016C649.575 208.641 649.443 208.168 649.443 207.597V197.83ZM613.071 232H611.409L616.216 218.909H617.853L622.659 232H620.998L617.086 220.98H616.983L613.071 232ZM613.685 226.886H620.384V228.293H613.685V226.886ZM624.494 235.682V222.182H625.951V223.741H626.13C626.241 223.571 626.395 223.354 626.591 223.089C626.791 222.821 627.076 222.582 627.447 222.374C627.822 222.161 628.329 222.054 628.968 222.054C629.795 222.054 630.524 222.261 631.154 222.674C631.785 223.087 632.277 223.673 632.631 224.432C632.985 225.19 633.162 226.085 633.162 227.116C633.162 228.156 632.985 229.058 632.631 229.82C632.277 230.579 631.787 231.167 631.161 231.585C630.534 231.998 629.812 232.205 628.994 232.205C628.363 232.205 627.858 232.1 627.479 231.891C627.1 231.678 626.808 231.437 626.603 231.169C626.399 230.896 626.241 230.67 626.13 230.491H626.002V235.682H624.494ZM625.977 227.091C625.977 227.832 626.086 228.487 626.303 229.053C626.52 229.616 626.838 230.057 627.255 230.376C627.673 230.692 628.184 230.849 628.789 230.849C629.42 230.849 629.946 230.683 630.368 230.351C630.794 230.014 631.114 229.562 631.327 228.996C631.544 228.425 631.653 227.79 631.653 227.091C631.653 226.401 631.547 225.778 631.333 225.224C631.125 224.666 630.807 224.225 630.381 223.901C629.959 223.573 629.429 223.409 628.789 223.409C628.176 223.409 627.66 223.565 627.243 223.876C626.825 224.183 626.51 224.613 626.297 225.167C626.083 225.717 625.977 226.358 625.977 227.091ZM635.463 235.682V222.182H636.92V223.741H637.099C637.21 223.571 637.363 223.354 637.559 223.089C637.76 222.821 638.045 222.582 638.416 222.374C638.791 222.161 639.298 222.054 639.937 222.054C640.764 222.054 641.493 222.261 642.123 222.674C642.754 223.087 643.246 223.673 643.6 224.432C643.953 225.19 644.13 226.085 644.13 227.116C644.13 228.156 643.953 229.058 643.6 229.82C643.246 230.579 642.756 231.167 642.13 231.585C641.503 231.998 640.781 232.205 639.963 232.205C639.332 232.205 638.827 232.1 638.448 231.891C638.069 231.678 637.777 231.437 637.572 231.169C637.368 230.896 637.21 230.67 637.099 230.491H636.971V235.682H635.463ZM636.946 227.091C636.946 227.832 637.054 228.487 637.272 229.053C637.489 229.616 637.806 230.057 638.224 230.376C638.642 230.692 639.153 230.849 639.758 230.849C640.389 230.849 640.915 230.683 641.337 230.351C641.763 230.014 642.083 229.562 642.296 228.996C642.513 228.425 642.622 227.79 642.622 227.091C642.622 226.401 642.515 225.778 642.302 225.224C642.093 224.666 641.776 224.225 641.35 223.901C640.928 223.573 640.397 223.409 639.758 223.409C639.145 223.409 638.629 223.565 638.211 223.876C637.794 224.183 637.478 224.613 637.265 225.167C637.052 225.717 636.946 226.358 636.946 227.091Z" fill="white"/>
<path d="M583.75 216.667H583.758M572.5 209.167V220.833C572.5 221.754 573.246 222.5 574.167 222.5H585.833C586.754 222.5 587.5 221.754 587.5 220.833V212.5C587.5 211.58 586.754 210.833 585.833 210.833L574.167 210.833C573.246 210.833 572.5 210.087 572.5 209.167ZM572.5 209.167C572.5 208.246 573.246 207.5 574.167 207.5H584.167M584.167 216.667C584.167 216.897 583.98 217.083 583.75 217.083C583.52 217.083 583.333 216.897 583.333 216.667C583.333 216.437 583.52 216.25 583.75 216.25C583.98 216.25 584.167 216.437 584.167 216.667Z" stroke="white" stroke-width="2" stroke-linecap="round" stroke-linejoin="round"/>
</svg>
