<svg width="560" height="260" viewBox="0 0 560 260" fill="none" xmlns="http://www.w3.org/2000/svg">
<rect width="552" height="254" rx="24" fill="#1B1B1D"/>
<ellipse cx="301.5" cy="130" rx="195.5" ry="103" fill="#4A86E8" fill-opacity="0.3"/>
<path d="M402 113L392 107.227L392 118.774L402 113ZM206 114L393 114L393 112L206 112L206 114Z" fill="white"/>
<path d="M206 133L216 138.774L216 127.226L206 133ZM215 134L402 134L402 132L215 132L215 134Z" fill="white"/>
<path d="M65 93C65 88.5817 68.5817 85 73 85H148C152.418 85 156 88.5817 156 93V122C156 126.418 152.418 130 148 130H73C68.5817 130 65 126.418 65 122V93Z" fill="#282A36"/>
<path d="M94.4091 101.364H96.0909L100.045 111.023H100.182L104.136 101.364H105.818V113H104.5V104.159H104.386L100.75 113H99.4773L95.8409 104.159H95.7273V113H94.4091V101.364ZM112.007 113.182C111.219 113.182 110.528 112.994 109.933 112.619C109.342 112.244 108.88 111.72 108.547 111.045C108.217 110.371 108.053 109.583 108.053 108.682C108.053 107.773 108.217 106.979 108.547 106.301C108.88 105.623 109.342 105.097 109.933 104.722C110.528 104.347 111.219 104.159 112.007 104.159C112.795 104.159 113.484 104.347 114.075 104.722C114.67 105.097 115.132 105.623 115.462 106.301C115.795 106.979 115.962 107.773 115.962 108.682C115.962 109.583 115.795 110.371 115.462 111.045C115.132 111.72 114.67 112.244 114.075 112.619C113.484 112.994 112.795 113.182 112.007 113.182ZM112.007 111.977C112.606 111.977 113.098 111.824 113.484 111.517C113.871 111.21 114.157 110.807 114.342 110.307C114.528 109.807 114.621 109.265 114.621 108.682C114.621 108.098 114.528 107.555 114.342 107.051C114.157 106.547 113.871 106.14 113.484 105.83C113.098 105.519 112.606 105.364 112.007 105.364C111.409 105.364 110.916 105.519 110.53 105.83C110.143 106.14 109.857 106.547 109.672 107.051C109.486 107.555 109.393 108.098 109.393 108.682C109.393 109.265 109.486 109.807 109.672 110.307C109.857 110.807 110.143 111.21 110.53 111.517C110.916 111.824 111.409 111.977 112.007 111.977ZM118.19 113V101.364H119.531V105.659H119.645C119.743 105.508 119.88 105.314 120.054 105.08C120.232 104.841 120.486 104.629 120.815 104.443C121.149 104.254 121.599 104.159 122.168 104.159C122.902 104.159 123.55 104.343 124.111 104.71C124.671 105.078 125.109 105.598 125.423 106.273C125.738 106.947 125.895 107.742 125.895 108.659C125.895 109.583 125.738 110.384 125.423 111.062C125.109 111.737 124.673 112.259 124.116 112.631C123.56 112.998 122.918 113.182 122.19 113.182C121.63 113.182 121.181 113.089 120.844 112.903C120.507 112.714 120.247 112.5 120.065 112.261C119.884 112.019 119.743 111.818 119.645 111.659H119.486V113H118.19ZM119.509 108.636C119.509 109.295 119.605 109.877 119.798 110.381C119.991 110.881 120.274 111.273 120.645 111.557C121.016 111.837 121.471 111.977 122.009 111.977C122.569 111.977 123.037 111.83 123.412 111.534C123.791 111.235 124.075 110.833 124.264 110.33C124.457 109.822 124.554 109.258 124.554 108.636C124.554 108.023 124.459 107.47 124.27 106.977C124.084 106.481 123.802 106.089 123.423 105.801C123.048 105.509 122.577 105.364 122.009 105.364C121.463 105.364 121.005 105.502 120.634 105.778C120.262 106.051 119.982 106.434 119.793 106.926C119.603 107.415 119.509 107.985 119.509 108.636ZM127.946 113V104.273H129.287V113H127.946ZM128.628 102.818C128.366 102.818 128.141 102.729 127.952 102.551C127.766 102.373 127.673 102.159 127.673 101.909C127.673 101.659 127.766 101.445 127.952 101.267C128.141 101.089 128.366 101 128.628 101C128.889 101 129.113 101.089 129.298 101.267C129.488 101.445 129.582 101.659 129.582 101.909C129.582 102.159 129.488 102.373 129.298 102.551C129.113 102.729 128.889 102.818 128.628 102.818ZM133.084 101.364V113H131.743V101.364H133.084ZM139.199 113.182C138.358 113.182 137.633 112.996 137.023 112.625C136.417 112.25 135.949 111.727 135.619 111.057C135.294 110.383 135.131 109.598 135.131 108.705C135.131 107.811 135.294 107.023 135.619 106.341C135.949 105.655 136.407 105.121 136.994 104.739C137.585 104.352 138.275 104.159 139.062 104.159C139.517 104.159 139.966 104.235 140.409 104.386C140.852 104.538 141.256 104.784 141.619 105.125C141.983 105.462 142.273 105.909 142.489 106.466C142.705 107.023 142.812 107.708 142.812 108.523V109.091H136.085V107.932H141.449C141.449 107.439 141.35 107 141.153 106.614C140.96 106.227 140.684 105.922 140.324 105.699C139.968 105.475 139.547 105.364 139.062 105.364C138.528 105.364 138.066 105.496 137.676 105.761C137.29 106.023 136.992 106.364 136.784 106.784C136.576 107.205 136.472 107.655 136.472 108.136V108.909C136.472 109.568 136.585 110.127 136.812 110.585C137.044 111.04 137.364 111.386 137.773 111.625C138.182 111.86 138.657 111.977 139.199 111.977C139.551 111.977 139.869 111.928 140.153 111.83C140.441 111.727 140.689 111.576 140.898 111.375C141.106 111.17 141.267 110.917 141.381 110.614L142.676 110.977C142.54 111.417 142.311 111.803 141.989 112.136C141.667 112.466 141.269 112.723 140.795 112.909C140.322 113.091 139.79 113.182 139.199 113.182Z" fill="white"/>
<path d="M85.8333 101V101.817C85.8333 102.143 85.8333 102.307 85.7698 102.431C85.7138 102.541 85.6246 102.63 85.5148 102.686C85.39 102.75 85.2267 102.75 84.9 102.75H83.2667C82.94 102.75 82.7766 102.75 82.6518 102.686C82.5421 102.63 82.4528 102.541 82.3969 102.431C82.3333 102.307 82.3333 102.143 82.3333 101.817V101M81.8667 112.667H86.3C86.9534 112.667 87.2801 112.667 87.5297 112.54C87.7492 112.428 87.9277 112.249 88.0395 112.03C88.1667 111.78 88.1667 111.453 88.1667 110.8V102.867C88.1667 102.213 88.1667 101.887 88.0395 101.637C87.9277 101.417 87.7492 101.239 87.5297 101.127C87.2801 101 86.9534 101 86.3 101H81.8667C81.2133 101 80.8866 101 80.637 101.127C80.4175 101.239 80.239 101.417 80.1272 101.637C80 101.887 80 102.213 80 102.867V110.8C80 111.453 80 111.78 80.1272 112.03C80.239 112.249 80.4175 112.428 80.637 112.54C80.8866 112.667 81.2133 112.667 81.8667 112.667Z" stroke="white" stroke-width="2" stroke-linecap="round" stroke-linejoin="round"/>
<path d="M16 141C16 136.582 19.5817 133 24 133H98C102.418 133 106 136.582 106 141V170C106 174.418 102.418 178 98 178H24C19.5817 178 16 174.418 16 170V141Z" fill="#282A36"/>
<path d="M48 151.667H34M34 150.733L34 157.267C34 158.573 34 159.227 34.2289 159.726C34.4302 160.165 34.7515 160.522 35.1466 160.746C35.5958 161 36.1839 161 37.36 161H44.64C45.8161 161 46.4042 161 46.8534 160.746C47.2485 160.522 47.5698 160.165 47.7711 159.726C48 159.227 48 158.573 48 157.267V150.733C48 149.427 48 148.773 47.7711 148.274C47.5698 147.835 47.2485 147.478 46.8534 147.254C46.4042 147 45.8161 147 44.64 147L37.36 147C36.1839 147 35.5958 147 35.1466 147.254C34.7515 147.478 34.4302 147.835 34.2289 148.274C34 148.773 34 149.427 34 150.733Z" stroke="white" stroke-width="2" stroke-linecap="round" stroke-linejoin="round"/>
<path d="M57.5227 160L54.3409 148.364H55.7727L58.2045 157.841H58.3182L60.7955 148.364H62.3864L64.8636 157.841H64.9773L67.4091 148.364H68.8409L65.6591 160H64.2045L61.6364 150.727H61.5455L58.9773 160H57.5227ZM73.2614 160.182C72.4205 160.182 71.6951 159.996 71.0852 159.625C70.4792 159.25 70.0114 158.727 69.6818 158.057C69.3561 157.383 69.1932 156.598 69.1932 155.705C69.1932 154.811 69.3561 154.023 69.6818 153.341C70.0114 152.655 70.4697 152.121 71.0568 151.739C71.6477 151.352 72.3371 151.159 73.125 151.159C73.5795 151.159 74.0284 151.235 74.4716 151.386C74.9148 151.538 75.3182 151.784 75.6818 152.125C76.0455 152.462 76.3352 152.909 76.5511 153.466C76.767 154.023 76.875 154.708 76.875 155.523V156.091H70.1477V154.932H75.5114C75.5114 154.439 75.4129 154 75.2159 153.614C75.0227 153.227 74.7462 152.922 74.3864 152.699C74.0303 152.475 73.6098 152.364 73.125 152.364C72.5909 152.364 72.1288 152.496 71.7386 152.761C71.3523 153.023 71.0549 153.364 70.8466 153.784C70.6383 154.205 70.5341 154.655 70.5341 155.136V155.909C70.5341 156.568 70.6477 157.127 70.875 157.585C71.1061 158.04 71.4261 158.386 71.8352 158.625C72.2443 158.86 72.7197 158.977 73.2614 158.977C73.6136 158.977 73.9318 158.928 74.2159 158.83C74.5038 158.727 74.7519 158.576 74.9602 158.375C75.1686 158.17 75.3295 157.917 75.4432 157.614L76.7386 157.977C76.6023 158.417 76.3731 158.803 76.0511 159.136C75.7292 159.466 75.3314 159.723 74.858 159.909C74.3845 160.091 73.8523 160.182 73.2614 160.182ZM79.0966 160V148.364H80.4375V152.659H80.5511C80.6496 152.508 80.786 152.314 80.9602 152.08C81.1383 151.841 81.392 151.629 81.7216 151.443C82.0549 151.254 82.5057 151.159 83.0739 151.159C83.8087 151.159 84.4564 151.343 85.017 151.71C85.5777 152.078 86.0152 152.598 86.3295 153.273C86.6439 153.947 86.8011 154.742 86.8011 155.659C86.8011 156.583 86.6439 157.384 86.3295 158.062C86.0152 158.737 85.5795 159.259 85.0227 159.631C84.4659 159.998 83.8239 160.182 83.0966 160.182C82.536 160.182 82.0871 160.089 81.75 159.903C81.4129 159.714 81.1534 159.5 80.9716 159.261C80.7898 159.019 80.6496 158.818 80.5511 158.659H80.392V160H79.0966ZM80.4148 155.636C80.4148 156.295 80.5114 156.877 80.7045 157.381C80.8977 157.881 81.1799 158.273 81.5511 158.557C81.9223 158.837 82.3769 158.977 82.9148 158.977C83.4754 158.977 83.9432 158.83 84.3182 158.534C84.697 158.235 84.9811 157.833 85.1705 157.33C85.3636 156.822 85.4602 156.258 85.4602 155.636C85.4602 155.023 85.3655 154.47 85.1761 153.977C84.9905 153.481 84.7083 153.089 84.3295 152.801C83.9545 152.509 83.483 152.364 82.9148 152.364C82.3693 152.364 81.911 152.502 81.5398 152.778C81.1686 153.051 80.8883 153.434 80.6989 153.926C80.5095 154.415 80.4148 154.985 80.4148 155.636Z" fill="white"/>
<path d="M111 142C111 137.582 114.582 134 119 134H193C197.418 134 201 137.582 201 142V171C201 175.418 197.418 179 193 179H119C114.582 179 111 175.418 111 171V142Z" fill="#282A36"/>
<path d="M148.409 162V150.364H152.341C153.254 150.364 154 150.528 154.58 150.858C155.163 151.184 155.595 151.625 155.875 152.182C156.155 152.739 156.295 153.36 156.295 154.045C156.295 154.731 156.155 155.354 155.875 155.915C155.598 156.475 155.17 156.922 154.591 157.256C154.011 157.585 153.269 157.75 152.364 157.75H149.545V156.5H152.318C152.943 156.5 153.445 156.392 153.824 156.176C154.203 155.96 154.477 155.669 154.648 155.301C154.822 154.93 154.909 154.511 154.909 154.045C154.909 153.58 154.822 153.163 154.648 152.795C154.477 152.428 154.201 152.14 153.818 151.932C153.436 151.72 152.928 151.614 152.295 151.614H149.818V162H148.409ZM160.679 162L157.497 150.364H158.929L161.361 159.841H161.474L163.952 150.364H165.543L168.02 159.841H168.134L170.565 150.364H171.997L168.815 162H167.361L164.793 152.727H164.702L162.134 162H160.679ZM173.324 162H171.847L176.119 150.364H177.574L181.847 162H180.369L176.892 152.205H176.801L173.324 162ZM173.869 157.455H179.824V158.705H173.869V157.455Z" fill="#FFFDFD"/>
<path d="M136 159.208H136.006M133.783 161.833H138.217C138.87 161.833 139.197 161.833 139.446 161.706C139.666 161.594 139.844 161.416 139.956 161.196C140.083 160.947 140.083 160.62 140.083 159.967V152.033C140.083 151.38 140.083 151.053 139.956 150.804C139.844 150.584 139.666 150.406 139.446 150.294C139.197 150.167 138.87 150.167 138.217 150.167H133.783C133.13 150.167 132.803 150.167 132.554 150.294C132.334 150.406 132.156 150.584 132.044 150.804C131.917 151.053 131.917 151.38 131.917 152.033V159.967C131.917 160.62 131.917 160.947 132.044 161.196C132.156 161.416 132.334 161.594 132.554 161.706C132.803 161.833 133.13 161.833 133.783 161.833ZM136.292 159.208C136.292 159.369 136.161 159.5 136 159.5C135.839 159.5 135.708 159.369 135.708 159.208C135.708 159.047 135.839 158.917 136 158.917C136.161 158.917 136.292 159.047 136.292 159.208Z" stroke="white" stroke-width="2" stroke-linecap="round" stroke-linejoin="round"/>
<path d="M430 111C430 106.582 433.582 103 438 103H512C516.418 103 520 106.582 520 111V140C520 144.418 516.418 148 512 148H438C433.582 148 430 144.418 430 140V111Z" fill="#282A36"/>
<path d="M463.13 123L460.545 113.545H461.708L463.684 121.246H463.777L465.789 113.545H467.082L469.095 121.246H469.187L471.163 113.545H472.326L469.741 123H468.559L466.473 115.466H466.399L464.312 123H463.13ZM475.032 123.166C474.582 123.166 474.174 123.082 473.808 122.912C473.442 122.74 473.151 122.492 472.936 122.169C472.72 121.843 472.613 121.449 472.613 120.987C472.613 120.581 472.693 120.252 472.853 119.999C473.013 119.744 473.227 119.544 473.494 119.399C473.762 119.254 474.057 119.147 474.381 119.076C474.707 119.002 475.035 118.944 475.364 118.901C475.795 118.845 476.144 118.804 476.412 118.776C476.683 118.745 476.88 118.694 477.003 118.624C477.129 118.553 477.192 118.43 477.192 118.254V118.217C477.192 117.762 477.067 117.408 476.818 117.156C476.572 116.903 476.198 116.777 475.696 116.777C475.176 116.777 474.768 116.891 474.473 117.119C474.178 117.346 473.97 117.589 473.85 117.848L472.816 117.479C473 117.048 473.247 116.712 473.554 116.472C473.865 116.229 474.204 116.06 474.57 115.964C474.939 115.866 475.302 115.817 475.659 115.817C475.887 115.817 476.149 115.844 476.444 115.9C476.743 115.952 477.03 116.061 477.307 116.228C477.588 116.394 477.82 116.645 478.005 116.98C478.189 117.316 478.282 117.765 478.282 118.328V123H477.192V122.04H477.137C477.063 122.194 476.94 122.358 476.767 122.534C476.595 122.709 476.366 122.858 476.08 122.982C475.793 123.105 475.444 123.166 475.032 123.166ZM475.198 122.188C475.629 122.188 475.992 122.103 476.287 121.934C476.586 121.764 476.81 121.546 476.961 121.278C477.115 121.01 477.192 120.729 477.192 120.433V119.436C477.146 119.491 477.044 119.542 476.887 119.588C476.734 119.632 476.555 119.67 476.352 119.704C476.152 119.735 475.956 119.762 475.766 119.787C475.578 119.808 475.426 119.827 475.309 119.842C475.025 119.879 474.761 119.939 474.515 120.022C474.271 120.102 474.074 120.224 473.924 120.387C473.776 120.547 473.702 120.766 473.702 121.043C473.702 121.421 473.842 121.707 474.122 121.901C474.405 122.092 474.764 122.188 475.198 122.188ZM481.36 113.545V123H480.27V113.545H481.36ZM484.445 113.545V123H483.355V113.545H484.445ZM489.413 123.148C488.73 123.148 488.14 122.997 487.645 122.695C487.153 122.391 486.772 121.966 486.505 121.421C486.24 120.873 486.108 120.236 486.108 119.51C486.108 118.784 486.24 118.143 486.505 117.589C486.772 117.032 487.145 116.598 487.622 116.288C488.102 115.974 488.662 115.817 489.302 115.817C489.672 115.817 490.036 115.878 490.396 116.001C490.756 116.125 491.084 116.325 491.38 116.602C491.675 116.875 491.911 117.239 492.086 117.691C492.261 118.143 492.349 118.701 492.349 119.362V119.824H486.883V118.882H491.241C491.241 118.482 491.161 118.125 491.001 117.811C490.844 117.497 490.619 117.249 490.327 117.068C490.038 116.886 489.696 116.795 489.302 116.795C488.868 116.795 488.493 116.903 488.176 117.119C487.862 117.331 487.62 117.608 487.451 117.95C487.282 118.291 487.197 118.657 487.197 119.048V119.676C487.197 120.212 487.289 120.666 487.474 121.038C487.662 121.407 487.922 121.689 488.254 121.883C488.587 122.074 488.973 122.169 489.413 122.169C489.699 122.169 489.958 122.129 490.189 122.049C490.423 121.966 490.624 121.843 490.793 121.68C490.963 121.513 491.093 121.307 491.186 121.061L492.238 121.357C492.128 121.714 491.941 122.027 491.68 122.298C491.418 122.566 491.095 122.775 490.71 122.926C490.326 123.074 489.893 123.148 489.413 123.148ZM497.09 115.909V116.832H493.416V115.909H497.09ZM494.487 114.21H495.576V120.969C495.576 121.277 495.621 121.507 495.71 121.661C495.802 121.812 495.919 121.914 496.061 121.966C496.205 122.015 496.358 122.04 496.518 122.04C496.638 122.04 496.736 122.034 496.813 122.021C496.89 122.006 496.952 121.994 496.998 121.984L497.22 122.963C497.146 122.991 497.043 123.018 496.91 123.046C496.778 123.077 496.61 123.092 496.407 123.092C496.099 123.092 495.798 123.026 495.502 122.894C495.21 122.761 494.967 122.56 494.773 122.289C494.582 122.018 494.487 121.677 494.487 121.264V114.21ZM468.218 139H467.018L470.49 129.545H471.671L475.143 139H473.943L471.117 131.041H471.044L468.218 139ZM468.661 135.307H473.499V136.322H468.661V135.307ZM476.468 141.659V131.909H477.52V133.036H477.65C477.73 132.912 477.84 132.755 477.982 132.565C478.127 132.371 478.333 132.198 478.601 132.048C478.872 131.894 479.238 131.817 479.699 131.817C480.296 131.817 480.823 131.966 481.278 132.265C481.734 132.563 482.089 132.986 482.345 133.534C482.6 134.082 482.728 134.728 482.728 135.473C482.728 136.224 482.6 136.875 482.345 137.426C482.089 137.974 481.735 138.398 481.283 138.7C480.83 138.998 480.309 139.148 479.718 139.148C479.262 139.148 478.898 139.072 478.624 138.922C478.35 138.768 478.139 138.594 477.991 138.4C477.844 138.203 477.73 138.04 477.65 137.911H477.557V141.659H476.468ZM477.539 135.455C477.539 135.99 477.617 136.462 477.774 136.872C477.931 137.278 478.161 137.597 478.462 137.827C478.764 138.055 479.133 138.169 479.57 138.169C480.026 138.169 480.406 138.049 480.71 137.809C481.018 137.566 481.249 137.24 481.403 136.83C481.56 136.418 481.638 135.959 481.638 135.455C481.638 134.956 481.561 134.507 481.407 134.107C481.257 133.703 481.027 133.385 480.72 133.151C480.415 132.914 480.032 132.795 479.57 132.795C479.127 132.795 478.755 132.908 478.453 133.132C478.151 133.354 477.924 133.665 477.77 134.065C477.616 134.462 477.539 134.925 477.539 135.455ZM484.39 141.659V131.909H485.442V133.036H485.572C485.652 132.912 485.762 132.755 485.904 132.565C486.049 132.371 486.255 132.198 486.523 132.048C486.793 131.894 487.16 131.817 487.621 131.817C488.218 131.817 488.745 131.966 489.2 132.265C489.656 132.563 490.011 132.986 490.267 133.534C490.522 134.082 490.65 134.728 490.65 135.473C490.65 136.224 490.522 136.875 490.267 137.426C490.011 137.974 489.657 138.398 489.205 138.7C488.752 138.998 488.231 139.148 487.64 139.148C487.184 139.148 486.82 139.072 486.546 138.922C486.272 138.768 486.061 138.594 485.913 138.4C485.765 138.203 485.652 138.04 485.572 137.911H485.479V141.659H484.39ZM485.461 135.455C485.461 135.99 485.539 136.462 485.696 136.872C485.853 137.278 486.082 137.597 486.384 137.827C486.686 138.055 487.055 138.169 487.492 138.169C487.948 138.169 488.328 138.049 488.632 137.809C488.94 137.566 489.171 137.24 489.325 136.83C489.482 136.418 489.56 135.959 489.56 135.455C489.56 134.956 489.483 134.507 489.329 134.107C489.179 133.703 488.949 133.385 488.642 133.151C488.337 132.914 487.954 132.795 487.492 132.795C487.049 132.795 486.676 132.908 486.375 133.132C486.073 133.354 485.845 133.665 485.692 134.065C485.538 134.462 485.461 134.925 485.461 135.455Z" fill="white"/>
<path d="M449.5 126.556H449.508M439 119.556V130.444C439 131.304 439.696 132 440.556 132H451.444C452.304 132 453 131.304 453 130.444V122.667C453 121.808 452.304 121.111 451.444 121.111L440.556 121.111C439.696 121.111 439 120.415 439 119.556ZM439 119.556C439 118.696 439.696 118 440.556 118H449.889M449.889 126.556C449.889 126.77 449.715 126.944 449.5 126.944C449.285 126.944 449.111 126.77 449.111 126.556C449.111 126.341 449.285 126.167 449.5 126.167C449.715 126.167 449.889 126.341 449.889 126.556Z" stroke="white" stroke-width="2" stroke-linecap="round" stroke-linejoin="round"/>
</svg>
