<?xml version="1.0" encoding="UTF-8"?>
<svg xmlns="http://www.w3.org/2000/svg" xmlns:xlink="http://www.w3.org/1999/xlink" width="942px" height="292px" viewBox="0 0 942 292" version="1.1">
<g id="surface1">
<rect x="0" y="0" width="942" height="292" style="fill:rgb(100%,100%,100%);fill-opacity:1;stroke:none;"/>
<path style="fill-rule:nonzero;fill:rgb(95.686275%,85.098039%,100%);fill-opacity:1;stroke-width:1;stroke-linecap:butt;stroke-linejoin:miter;stroke:rgb(22.745098%,25.490196%,29.019608%);stroke-opacity:1;stroke-miterlimit:4;" d="M 329.699219 605.439453 C 330.808594 604.316406 332.322266 603.683594 333.900391 603.683594 C 335.478516 603.683594 336.992188 604.316406 338.099609 605.439453 L 375.800781 643.839844 C 378.150391 646.216797 378.150391 650.042969 375.800781 652.419922 L 338.099609 690.820312 C 336.992188 691.943359 335.478516 692.576172 333.900391 692.576172 C 332.322266 692.576172 330.808594 691.943359 329.699219 690.820312 L 292 652.419922 C 289.65625 650.044922 289.65625 646.224609 292 643.849609 Z M 329.699219 605.439453 " transform="matrix(2,0,0,2,-28,-1162)"/>
<path style=" stroke:none;fill-rule:nonzero;fill:rgb(22.745098%,25.490196%,29.019608%);fill-opacity:1;" d="M 622.839844 139.890625 L 619.878906 139.890625 L 615.730469 124.335938 L 611.65625 139.890625 L 608.691406 139.890625 L 603.285156 121.523438 L 605.878906 121.523438 L 610.25 137.671875 L 611.359375 132.929688 L 614.542969 121.523438 L 616.914062 121.523438 L 621.285156 137.671875 L 625.65625 121.523438 L 628.25 121.523438 "/>
<path style=" stroke:none;fill-rule:nonzero;fill:rgb(22.745098%,25.490196%,29.019608%);fill-opacity:1;" d="M 637.730469 137.226562 C 636.617188 138.78125 635.433594 140.261719 632.691406 140.1875 C 630.027344 140.113281 628.398438 138.632812 628.398438 135.964844 C 628.324219 131.226562 633.0625 131.300781 637.65625 131.300781 C 637.878906 128.707031 636.988281 127.300781 634.617188 127.300781 C 632.839844 127.375 631.582031 127.816406 631.507812 129.597656 L 629.0625 129.375 C 629.433594 126.632812 631.507812 125.523438 634.691406 125.523438 C 638.027344 125.523438 640.027344 127.003906 640.027344 130.261719 L 640.027344 136.335938 C 639.953125 137.816406 640.542969 138.707031 642.101562 138.335938 L 642.101562 139.816406 C 639.804688 140.484375 637.582031 139.671875 637.730469 137.226562 Z M 630.839844 135.964844 C 630.839844 137.449219 631.730469 138.410156 633.210938 138.410156 C 636.25 138.1875 637.878906 136.261719 637.65625 132.929688 C 634.46875 133.078125 630.839844 132.558594 630.839844 135.964844 "/>
<path style=" stroke:none;fill-rule:nonzero;fill:rgb(22.745098%,25.490196%,29.019608%);fill-opacity:1;" d="M 643.878906 139.890625 L 643.878906 120.558594 L 646.25 120.558594 L 646.25 139.890625 L 643.878906 139.890625 "/>
<path style=" stroke:none;fill-rule:nonzero;fill:rgb(22.745098%,25.490196%,29.019608%);fill-opacity:1;" d="M 649.730469 139.890625 L 649.730469 120.558594 L 652.101562 120.558594 L 652.101562 139.890625 L 649.730469 139.890625 "/>
<path style=" stroke:none;fill-rule:nonzero;fill:rgb(22.745098%,25.490196%,29.019608%);fill-opacity:1;" d="M 661.210938 125.523438 C 665.878906 125.523438 667.582031 128.632812 667.433594 133.375 L 657.433594 133.375 C 657.433594 136.335938 658.46875 138.335938 661.359375 138.410156 C 663.285156 138.484375 664.542969 137.523438 664.988281 136.261719 L 667.0625 136.855469 C 666.25 138.929688 664.324219 140.1875 661.359375 140.1875 C 657.0625 140.1875 654.839844 137.449219 654.914062 132.78125 C 654.988281 128.261719 656.839844 125.523438 661.210938 125.523438 Z M 665.0625 131.523438 C 665.507812 127.078125 659.433594 125.816406 657.878906 129.449219 C 657.65625 129.964844 657.433594 130.707031 657.433594 131.523438 L 665.0625 131.523438 "/>
<path style=" stroke:none;fill-rule:nonzero;fill:rgb(22.745098%,25.490196%,29.019608%);fill-opacity:1;" d="M 672.988281 136.410156 C 672.839844 138.1875 674.324219 138.558594 675.804688 138.039062 L 675.804688 139.816406 C 673.359375 140.558594 670.617188 140.1875 670.617188 136.929688 L 670.617188 127.523438 L 668.988281 127.523438 L 668.988281 125.816406 L 670.765625 125.816406 L 671.433594 122.632812 L 672.988281 122.632812 L 672.988281 125.816406 L 675.582031 125.816406 L 675.582031 127.523438 L 672.988281 127.523438 L 672.988281 136.410156 "/>
<path style="fill-rule:nonzero;fill:rgb(95.686275%,85.098039%,100%);fill-opacity:1;stroke-width:1;stroke-linecap:butt;stroke-linejoin:miter;stroke:rgb(22.745098%,25.490196%,29.019608%);stroke-opacity:1;stroke-miterlimit:4;" d="M 86.339844 605.439453 C 87.449219 604.316406 88.960938 603.683594 90.539062 603.683594 C 92.119141 603.683594 93.630859 604.316406 94.740234 605.439453 L 132.439453 643.839844 C 134.791016 646.216797 134.791016 650.042969 132.439453 652.419922 L 94.740234 690.820312 C 93.630859 691.943359 92.119141 692.576172 90.539062 692.576172 C 88.960938 692.576172 87.449219 691.943359 86.339844 690.820312 L 48.640625 652.419922 C 46.294922 650.044922 46.294922 646.224609 48.640625 643.849609 Z M 86.339844 605.439453 " transform="matrix(2,0,0,2,-28,-1162)"/>
<path style=" stroke:none;fill-rule:nonzero;fill:rgb(22.745098%,25.490196%,29.019608%);fill-opacity:1;" d="M 128.066406 125.523438 C 130.363281 125.523438 131.625 126.484375 132.511719 127.964844 L 132.4375 120.558594 L 134.808594 120.558594 L 134.882812 139.890625 L 132.660156 139.890625 C 132.511719 139.152344 132.660156 138.1875 132.4375 137.597656 C 131.699219 139.300781 130.363281 140.1875 128.066406 140.1875 C 124.140625 140.1875 122.957031 137.300781 122.882812 132.929688 C 122.882812 128.039062 124.585938 125.523438 128.066406 125.523438 Z M 128.734375 127.300781 C 125.773438 127.300781 125.328125 129.816406 125.328125 132.855469 C 125.328125 135.816406 125.773438 138.335938 128.660156 138.335938 C 131.773438 138.335938 132.4375 135.964844 132.4375 132.707031 C 132.4375 129.597656 131.773438 127.226562 128.734375 127.300781 "/>
<path style=" stroke:none;fill-rule:nonzero;fill:rgb(22.745098%,25.490196%,29.019608%);fill-opacity:1;" d="M 151.773438 139.890625 L 149.699219 134.558594 L 141.328125 134.558594 L 139.253906 139.890625 L 136.660156 139.890625 L 144.140625 121.523438 L 146.957031 121.523438 L 154.289062 139.890625 Z M 148.957031 132.558594 L 145.476562 123.449219 C 144.585938 126.78125 143.179688 129.523438 142.066406 132.558594 L 148.957031 132.558594 "/>
<path style=" stroke:none;fill-rule:nonzero;fill:rgb(22.745098%,25.490196%,29.019608%);fill-opacity:1;" d="M 162.882812 125.523438 C 166.957031 125.597656 168.066406 128.558594 168.066406 132.78125 C 168.066406 137.003906 166.882812 140.039062 162.882812 140.1875 C 160.585938 140.1875 159.253906 139.226562 158.4375 137.671875 L 158.511719 145.449219 L 156.140625 145.449219 L 156.066406 125.816406 L 158.363281 125.816406 L 158.511719 128.039062 C 159.253906 126.484375 160.585938 125.523438 162.882812 125.523438 Z M 162.289062 138.410156 C 165.253906 138.410156 165.625 135.890625 165.625 132.855469 C 165.625 129.816406 165.179688 127.449219 162.289062 127.375 C 159.179688 127.375 158.511719 129.746094 158.511719 133.003906 C 158.511719 136.1875 159.253906 138.410156 162.289062 138.410156 "/>
<path style=" stroke:none;fill-rule:nonzero;fill:rgb(22.745098%,25.490196%,29.019608%);fill-opacity:1;" d="M 177.699219 125.523438 C 181.773438 125.597656 182.882812 128.558594 182.882812 132.78125 C 182.882812 137.003906 181.699219 140.039062 177.699219 140.1875 C 175.402344 140.1875 174.066406 139.226562 173.253906 137.671875 L 173.328125 145.449219 L 170.957031 145.449219 L 170.882812 125.816406 L 173.179688 125.816406 L 173.328125 128.039062 C 174.066406 126.484375 175.402344 125.523438 177.699219 125.523438 Z M 177.105469 138.410156 C 180.066406 138.410156 180.4375 135.890625 180.4375 132.855469 C 180.4375 129.816406 179.992188 127.449219 177.105469 127.375 C 173.992188 127.375 173.328125 129.746094 173.328125 133.003906 C 173.328125 136.1875 174.066406 138.410156 177.105469 138.410156 "/>
<path style="fill:none;stroke-width:1;stroke-linecap:butt;stroke-linejoin:miter;stroke:rgb(22.745098%,25.490196%,29.019608%);stroke-opacity:1;stroke-miterlimit:4;" d="M 114.359375 623.199219 L 294.199219 623.199219 M 114.359375 625.199219 L 294.199219 625.199219 " transform="matrix(2,0,0,2,-28,-1162)"/>
<path style="fill-rule:nonzero;fill:rgb(22.745098%,25.490196%,29.019608%);fill-opacity:1;stroke-width:0.05;stroke-linecap:butt;stroke-linejoin:miter;stroke:rgb(22.745098%,25.490196%,29.019608%);stroke-opacity:1;stroke-miterlimit:4;" d="M 114.380859 623.699219 L 113.380859 623.699219 L 112.380859 622.699219 L 114.380859 622.699219 Z M 114.380859 624.730469 L 114.349609 624.699219 L 114.380859 624.699219 Z M 114.380859 624.730469 " transform="matrix(2,0,0,2,-28,-1162)"/>
<path style="fill-rule:nonzero;fill:rgb(22.745098%,25.490196%,29.019608%);fill-opacity:1;stroke-width:1;stroke-linecap:butt;stroke-linejoin:miter;stroke:rgb(22.745098%,25.490196%,29.019608%);stroke-opacity:1;stroke-miterlimit:4;" d="M 308.949219 624.199219 L 294.689453 628.839844 L 294.689453 619.570312 Z M 308.949219 624.199219 " transform="matrix(2,0,0,2,-28,-1162)"/>
<path style=" stroke:none;fill-rule:nonzero;fill:rgb(20%,20%,20%);fill-opacity:1;" d="M 282.089844 62.304688 C 282.042969 60.183594 277.449219 60.035156 277.300781 62.160156 C 278.1875 65.417969 284.757812 62.652344 284.90625 67.789062 C 285.054688 72.480469 276.757812 72.378906 274.832031 69.566406 C 274.535156 69.171875 274.335938 68.628906 274.238281 68.085938 L 276.707031 67.6875 C 276.855469 69.960938 282.238281 70.453125 282.4375 67.9375 C 281.597656 64.527344 275.027344 67.441406 274.832031 62.304688 C 274.632812 58.011719 282.386719 57.960938 284.117188 60.578125 C 284.363281 60.972656 284.511719 61.46875 284.609375 61.960938 "/>
<path style=" stroke:none;fill-rule:nonzero;fill:rgb(20%,20%,20%);fill-opacity:1;" d="M 294.734375 68.921875 C 294.089844 70.40625 292.90625 71.542969 290.683594 71.492188 C 287.71875 71.394531 286.289062 69.664062 286.289062 66.554688 C 286.289062 63.441406 287.769531 61.714844 290.734375 61.714844 C 293.792969 61.714844 294.832031 63.9375 294.878906 67.046875 L 288.855469 67.046875 C 288.855469 68.578125 289.25 69.761719 290.78125 69.8125 C 291.671875 69.8125 292.261719 69.46875 292.460938 68.726562 Z M 292.511719 65.515625 C 292.757812 63.246094 289.695312 62.40625 289.054688 64.480469 C 288.953125 64.777344 288.855469 65.121094 288.855469 65.515625 L 292.511719 65.515625 "/>
<path style=" stroke:none;fill-rule:nonzero;fill:rgb(20%,20%,20%);fill-opacity:1;" d="M 302.140625 61.714844 C 306.4375 61.664062 305.003906 67.292969 305.25 71.292969 L 302.78125 71.292969 C 302.4375 68.480469 303.917969 63.542969 301.101562 63.542969 C 298.1875 63.542969 299.425781 68.332031 299.175781 71.292969 L 296.707031 71.292969 L 296.660156 61.910156 L 298.980469 61.910156 C 299.078125 62.503906 298.929688 63.292969 299.128906 63.789062 C 299.71875 62.503906 300.511719 61.761719 302.140625 61.714844 "/>
<path style=" stroke:none;fill-rule:nonzero;fill:rgb(20%,20%,20%);fill-opacity:1;" d="M 310.632812 61.714844 C 312.164062 61.664062 312.90625 62.453125 313.5 63.394531 L 313.449219 58.40625 L 315.917969 58.40625 L 315.96875 71.292969 L 313.597656 71.292969 C 313.5 70.800781 313.597656 70.160156 313.449219 69.761719 C 312.90625 70.898438 312.015625 71.492188 310.4375 71.492188 C 307.867188 71.492188 307.078125 69.269531 307.027344 66.601562 C 307.027344 63.835938 307.96875 61.8125 310.632812 61.714844 Z M 311.472656 69.8125 C 313.101562 69.8125 313.449219 68.332031 313.5 66.554688 C 313.546875 64.726562 313.054688 63.394531 311.472656 63.394531 C 309.894531 63.394531 309.597656 64.875 309.546875 66.601562 C 309.546875 68.726562 310.1875 69.8125 311.472656 69.8125 "/>
<path style=" stroke:none;fill-rule:nonzero;fill:rgb(20%,20%,20%);fill-opacity:1;" d="M 329.054688 63.492188 L 327.128906 63.492188 L 326.929688 59.046875 L 329.300781 59.046875 Z M 325.351562 63.492188 L 323.425781 63.492188 L 323.226562 59.046875 L 325.597656 59.046875 "/>
<path style=" stroke:none;fill-rule:nonzero;fill:rgb(20%,20%,20%);fill-opacity:1;" d="M 337.203125 64.480469 C 337.25 63.046875 333.746094 62.800781 333.695312 64.28125 C 334.4375 66.554688 339.523438 64.628906 339.570312 68.527344 C 339.621094 72.628906 331.472656 72.28125 331.078125 68.972656 L 333.203125 68.628906 C 333.398438 69.566406 334.1875 69.863281 335.375 69.863281 C 337.003906 70.257812 338.1875 68.378906 336.558594 67.835938 C 334.4375 67.144531 331.523438 67.292969 331.425781 64.578125 C 331.324219 60.628906 339.027344 60.921875 339.375 64.234375 "/>
<path style=" stroke:none;fill-rule:nonzero;fill:rgb(20%,20%,20%);fill-opacity:1;" d="M 345.746094 61.714844 C 348.90625 61.714844 350.484375 63.492188 350.484375 66.601562 C 350.484375 69.761719 348.757812 71.492188 345.695312 71.492188 C 342.683594 71.492188 341.003906 69.714844 341.003906 66.601562 C 341.003906 63.542969 342.683594 61.714844 345.746094 61.714844 Z M 345.695312 69.8125 C 347.425781 69.8125 347.917969 68.429688 347.917969 66.601562 C 347.917969 64.628906 347.425781 63.394531 345.792969 63.394531 C 344.117188 63.394531 343.570312 64.675781 343.570312 66.601562 C 343.570312 68.378906 344.066406 69.8125 345.695312 69.8125 "/>
<path style=" stroke:none;fill-rule:nonzero;fill:rgb(20%,20%,20%);fill-opacity:1;" d="M 352.363281 71.292969 L 352.363281 58.40625 L 354.832031 58.40625 L 354.832031 71.292969 L 352.363281 71.292969 "/>
<path style=" stroke:none;fill-rule:nonzero;fill:rgb(20%,20%,20%);fill-opacity:1;" d="M 362.632812 69.613281 C 361.84375 70.554688 361.152344 71.542969 359.472656 71.492188 C 357.644531 71.441406 356.609375 70.503906 356.609375 68.628906 C 356.558594 65.664062 359.324219 65.515625 362.335938 65.613281 C 362.386719 64.332031 362.1875 63.292969 360.953125 63.292969 C 360.066406 63.34375 359.671875 63.738281 359.570312 64.628906 L 357.003906 64.527344 C 357.351562 62.652344 358.78125 61.664062 361.054688 61.714844 C 363.324219 61.761719 364.707031 62.800781 364.757812 65.070312 L 364.808594 69.121094 C 364.757812 69.8125 365.398438 70.011719 366.042969 69.863281 L 366.042969 71.195312 C 364.558594 71.589844 362.535156 71.441406 362.632812 69.613281 Z M 360.261719 69.761719 C 361.695312 69.761719 362.386719 68.578125 362.335938 66.949219 C 360.757812 66.949219 359.078125 66.800781 359.128906 68.429688 C 359.128906 69.269531 359.523438 69.761719 360.261719 69.761719 "/>
<path style=" stroke:none;fill-rule:nonzero;fill:rgb(20%,20%,20%);fill-opacity:1;" d="M 372.609375 61.714844 C 376.90625 61.664062 375.472656 67.292969 375.71875 71.292969 L 373.25 71.292969 C 372.90625 68.480469 374.386719 63.542969 371.570312 63.542969 C 368.660156 63.542969 369.894531 68.332031 369.644531 71.292969 L 367.175781 71.292969 L 367.128906 61.910156 L 369.449219 61.910156 C 369.546875 62.503906 369.398438 63.292969 369.597656 63.789062 C 370.1875 62.503906 370.980469 61.761719 372.609375 61.714844 "/>
<path style=" stroke:none;fill-rule:nonzero;fill:rgb(20%,20%,20%);fill-opacity:1;" d="M 383.324219 69.613281 C 382.535156 70.554688 381.84375 71.542969 380.164062 71.492188 C 378.335938 71.441406 377.300781 70.503906 377.300781 68.628906 C 377.25 65.664062 380.015625 65.515625 383.027344 65.613281 C 383.078125 64.332031 382.878906 63.292969 381.644531 63.292969 C 380.757812 63.34375 380.363281 63.738281 380.261719 64.628906 L 377.695312 64.527344 C 378.042969 62.652344 379.472656 61.664062 381.746094 61.714844 C 384.015625 61.761719 385.398438 62.800781 385.449219 65.070312 L 385.5 69.121094 C 385.449219 69.8125 386.089844 70.011719 386.734375 69.863281 L 386.734375 71.195312 C 385.25 71.589844 383.226562 71.441406 383.324219 69.613281 Z M 380.953125 69.761719 C 382.386719 69.761719 383.078125 68.578125 383.027344 66.949219 C 381.449219 66.949219 379.769531 66.800781 379.820312 68.429688 C 379.820312 69.269531 380.214844 69.761719 380.953125 69.761719 "/>
<path style=" stroke:none;fill-rule:nonzero;fill:rgb(20%,20%,20%);fill-opacity:1;" d="M 387.324219 67.738281 L 387.324219 65.613281 L 391.820312 65.613281 L 391.820312 67.738281 L 387.324219 67.738281 "/>
<path style=" stroke:none;fill-rule:nonzero;fill:rgb(20%,20%,20%);fill-opacity:1;" d="M 403.917969 71.292969 L 401.351562 71.292969 L 399.425781 63.640625 L 397.449219 71.292969 L 394.878906 71.292969 L 392.460938 61.910156 L 394.734375 61.910156 L 396.3125 69.070312 C 396.757812 66.503906 397.5 64.28125 398.089844 61.910156 L 400.707031 61.910156 L 402.535156 69.070312 L 404.117188 61.910156 L 406.386719 61.910156 "/>
<path style=" stroke:none;fill-rule:nonzero;fill:rgb(20%,20%,20%);fill-opacity:1;" d="M 412.90625 69.613281 C 412.117188 70.554688 411.425781 71.542969 409.746094 71.492188 C 407.917969 71.441406 406.878906 70.503906 406.878906 68.628906 C 406.832031 65.664062 409.597656 65.515625 412.609375 65.613281 C 412.660156 64.332031 412.460938 63.292969 411.226562 63.292969 C 410.335938 63.34375 409.941406 63.738281 409.84375 64.628906 L 407.277344 64.527344 C 407.621094 62.652344 409.054688 61.664062 411.324219 61.714844 C 413.597656 61.761719 414.980469 62.800781 415.027344 65.070312 L 415.078125 69.121094 C 415.027344 69.8125 415.671875 70.011719 416.3125 69.863281 L 416.3125 71.195312 C 414.832031 71.589844 412.808594 71.441406 412.90625 69.613281 Z M 410.535156 69.761719 C 411.96875 69.761719 412.660156 68.578125 412.609375 66.949219 C 411.027344 66.949219 409.351562 66.800781 409.398438 68.429688 C 409.398438 69.269531 409.792969 69.761719 410.535156 69.761719 "/>
<path style=" stroke:none;fill-rule:nonzero;fill:rgb(20%,20%,20%);fill-opacity:1;" d="M 417.449219 71.292969 L 417.449219 58.40625 L 419.917969 58.40625 L 419.917969 71.292969 L 417.449219 71.292969 "/>
<path style=" stroke:none;fill-rule:nonzero;fill:rgb(20%,20%,20%);fill-opacity:1;" d="M 422.386719 71.292969 L 422.386719 58.40625 L 424.855469 58.40625 L 424.855469 71.292969 L 422.386719 71.292969 "/>
<path style=" stroke:none;fill-rule:nonzero;fill:rgb(20%,20%,20%);fill-opacity:1;" d="M 435.226562 68.921875 C 434.585938 70.40625 433.398438 71.542969 431.175781 71.492188 C 428.214844 71.394531 426.78125 69.664062 426.78125 66.554688 C 426.78125 63.441406 428.261719 61.714844 431.226562 61.714844 C 434.289062 61.714844 435.324219 63.9375 435.375 67.046875 L 429.351562 67.046875 C 429.351562 68.578125 429.746094 69.761719 431.277344 69.8125 C 432.164062 69.8125 432.757812 69.46875 432.953125 68.726562 Z M 433.003906 65.515625 C 433.25 63.246094 430.1875 62.40625 429.546875 64.480469 C 429.449219 64.777344 429.351562 65.121094 429.351562 65.515625 L 433.003906 65.515625 "/>
<path style=" stroke:none;fill-rule:nonzero;fill:rgb(20%,20%,20%);fill-opacity:1;" d="M 441.644531 71.144531 C 439.867188 71.835938 437.351562 71.492188 437.351562 69.070312 L 437.351562 63.542969 L 436.164062 63.542969 L 436.164062 61.910156 L 437.5 61.910156 L 438.238281 59.6875 L 439.769531 59.6875 L 439.769531 61.910156 L 441.546875 61.910156 L 441.546875 63.542969 L 439.769531 63.542969 L 439.769531 68.429688 C 439.71875 69.566406 440.558594 69.960938 441.644531 69.664062 L 441.644531 71.144531 "/>
<path style=" stroke:none;fill-rule:nonzero;fill:rgb(20%,20%,20%);fill-opacity:1;" d="M 443.570312 64.777344 L 443.570312 62.304688 L 446.042969 62.304688 L 446.042969 64.777344 Z M 443.570312 71.292969 L 443.570312 68.875 L 446.042969 68.875 L 446.042969 71.292969 L 443.570312 71.292969 "/>
<path style=" stroke:none;fill-rule:nonzero;fill:rgb(20%,20%,20%);fill-opacity:1;" d="M 447.917969 71.640625 L 450.4375 58.40625 L 452.511719 58.40625 L 449.992188 71.640625 L 447.917969 71.640625 "/>
<path style=" stroke:none;fill-rule:nonzero;fill:rgb(20%,20%,20%);fill-opacity:1;" d="M 452.855469 71.640625 L 455.375 58.40625 L 457.449219 58.40625 L 454.929688 71.640625 L 452.855469 71.640625 "/>
<path style=" stroke:none;fill-rule:nonzero;fill:rgb(20%,20%,20%);fill-opacity:1;" d="M 464.609375 63.492188 L 462.683594 63.492188 L 462.484375 59.046875 L 464.855469 59.046875 Z M 460.90625 63.492188 L 458.980469 63.492188 L 458.78125 59.046875 L 461.152344 59.046875 "/>
<path style=" stroke:none;fill-rule:nonzero;fill:rgb(20%,20%,20%);fill-opacity:1;" d="M 472.164062 60.234375 L 472.164062 58.40625 L 474.632812 58.40625 L 474.632812 60.234375 Z M 472.164062 71.292969 L 472.164062 61.910156 L 474.632812 61.910156 L 474.632812 71.292969 L 472.164062 71.292969 "/>
<path style=" stroke:none;fill-rule:nonzero;fill:rgb(20%,20%,20%);fill-opacity:1;" d="M 482.535156 61.714844 C 486.832031 61.664062 485.398438 67.292969 485.644531 71.292969 L 483.175781 71.292969 C 482.832031 68.480469 484.3125 63.542969 481.5 63.542969 C 478.585938 63.542969 479.820312 68.332031 479.570312 71.292969 L 477.101562 71.292969 L 477.054688 61.910156 L 479.375 61.910156 C 479.472656 62.503906 479.324219 63.292969 479.523438 63.789062 C 480.117188 62.503906 480.90625 61.761719 482.535156 61.714844 "/>
<path style=" stroke:none;fill-rule:nonzero;fill:rgb(20%,20%,20%);fill-opacity:1;" d="M 492.363281 71.144531 C 490.585938 71.835938 488.066406 71.492188 488.066406 69.070312 L 488.066406 63.542969 L 486.878906 63.542969 L 486.878906 61.910156 L 488.214844 61.910156 L 488.953125 59.6875 L 490.484375 59.6875 L 490.484375 61.910156 L 492.261719 61.910156 L 492.261719 63.542969 L 490.484375 63.542969 L 490.484375 68.429688 C 490.4375 69.566406 491.277344 69.960938 492.363281 69.664062 L 492.363281 71.144531 "/>
<path style=" stroke:none;fill-rule:nonzero;fill:rgb(20%,20%,20%);fill-opacity:1;" d="M 501.695312 68.921875 C 501.054688 70.40625 499.867188 71.542969 497.644531 71.492188 C 494.683594 71.394531 493.25 69.664062 493.25 66.554688 C 493.25 63.441406 494.734375 61.714844 497.695312 61.714844 C 500.757812 61.714844 501.792969 63.9375 501.84375 67.046875 L 495.820312 67.046875 C 495.820312 68.578125 496.214844 69.761719 497.746094 69.8125 C 498.632812 69.8125 499.226562 69.46875 499.425781 68.726562 Z M 499.472656 65.515625 C 499.71875 63.246094 496.660156 62.40625 496.015625 64.480469 C 495.917969 64.777344 495.820312 65.121094 495.820312 65.515625 L 499.472656 65.515625 "/>
<path style=" stroke:none;fill-rule:nonzero;fill:rgb(20%,20%,20%);fill-opacity:1;" d="M 509.101562 61.714844 C 513.398438 61.664062 511.96875 67.292969 512.214844 71.292969 L 509.746094 71.292969 C 509.398438 68.480469 510.878906 63.542969 508.066406 63.542969 C 505.152344 63.542969 506.386719 68.332031 506.140625 71.292969 L 503.671875 71.292969 L 503.621094 61.910156 L 505.941406 61.910156 C 506.042969 62.503906 505.894531 63.292969 506.089844 63.789062 C 506.683594 62.503906 507.472656 61.761719 509.101562 61.714844 "/>
<path style=" stroke:none;fill-rule:nonzero;fill:rgb(20%,20%,20%);fill-opacity:1;" d="M 518.929688 71.144531 C 517.152344 71.835938 514.632812 71.492188 514.632812 69.070312 L 514.632812 63.542969 L 513.449219 63.542969 L 513.449219 61.910156 L 514.78125 61.910156 L 515.523438 59.6875 L 517.054688 59.6875 L 517.054688 61.910156 L 518.832031 61.910156 L 518.832031 63.542969 L 517.054688 63.542969 L 517.054688 68.429688 C 517.003906 69.566406 517.84375 69.960938 518.929688 69.664062 L 518.929688 71.144531 "/>
<path style="fill:none;stroke-width:1;stroke-linecap:butt;stroke-linejoin:miter;stroke:rgb(22.745098%,25.490196%,29.019608%);stroke-opacity:1;stroke-miterlimit:4;" d="M 380 673.779297 C 385.519531 673.779297 390 669.310547 390 663.779297 L 390 656.880859 C 390 651.380859 394.480469 646.880859 400 646.880859 C 394.480469 646.880859 390 642.410156 390 636.880859 L 390 630 C 390 624.480469 385.519531 620 380 620 " transform="matrix(2,0,0,2,-28,-1162)"/>
<path style=" stroke:none;fill-rule:nonzero;fill:rgb(22.745098%,25.490196%,29.019608%);fill-opacity:1;" d="M 809.527344 111.445312 C 809.21875 108.480469 801.933594 108.109375 801.871094 111.566406 C 802.738281 116.199219 811.625 112.433594 811.933594 118.914062 C 812.121094 123.726562 804.464844 124.285156 801.132812 122.308594 C 800.082031 121.691406 799.402344 120.703125 799.09375 119.46875 L 801.132812 119.035156 C 801.441406 122.492188 809.835938 122.925781 809.835938 118.976562 C 809.835938 114.160156 800.265625 118.109375 799.835938 111.691406 C 799.527344 106.628906 808.785156 106.507812 810.886719 109.59375 C 811.195312 110.023438 811.378906 110.582031 811.5625 111.136719 "/>
<path style=" stroke:none;fill-rule:nonzero;fill:rgb(22.745098%,25.490196%,29.019608%);fill-opacity:1;" d="M 816.5625 120.210938 C 816.441406 121.691406 817.675781 122 818.910156 121.566406 L 818.910156 123.050781 C 816.871094 123.667969 814.589844 123.359375 814.589844 120.640625 L 814.589844 112.800781 L 813.230469 112.800781 L 813.230469 111.382812 L 814.710938 111.382812 L 815.265625 108.726562 L 816.5625 108.726562 L 816.5625 111.382812 L 818.722656 111.382812 L 818.722656 112.800781 L 816.5625 112.800781 L 816.5625 120.210938 "/>
<path style=" stroke:none;fill-rule:nonzero;fill:rgb(22.745098%,25.490196%,29.019608%);fill-opacity:1;" d="M 827.796875 120.890625 C 826.871094 122.183594 825.886719 123.417969 823.601562 123.359375 C 821.378906 123.296875 820.019531 122.0625 820.019531 119.839844 C 819.957031 115.890625 823.910156 115.949219 827.738281 115.949219 C 827.921875 113.789062 827.179688 112.617188 825.207031 112.617188 C 823.722656 112.679688 822.675781 113.050781 822.613281 114.53125 L 820.578125 114.34375 C 820.886719 112.0625 822.613281 111.136719 825.265625 111.136719 C 828.046875 111.136719 829.710938 112.371094 829.710938 115.085938 L 829.710938 120.148438 C 829.648438 121.382812 830.144531 122.125 831.441406 121.816406 L 831.441406 123.050781 C 829.527344 123.605469 827.675781 122.925781 827.796875 120.890625 Z M 822.058594 119.839844 C 822.058594 121.074219 822.796875 121.875 824.03125 121.875 C 826.5625 121.691406 827.921875 120.085938 827.738281 117.308594 C 825.082031 117.433594 822.058594 117 822.058594 119.839844 "/>
<path style=" stroke:none;fill-rule:nonzero;fill:rgb(22.745098%,25.490196%,29.019608%);fill-opacity:1;" d="M 838.476562 113.050781 C 833.664062 112.0625 835.207031 118.667969 834.957031 123.109375 L 832.984375 123.109375 L 832.921875 111.382812 L 834.773438 111.382812 C 834.835938 112.125 834.710938 113.171875 834.898438 113.789062 C 835.265625 112.125 836.316406 110.765625 838.476562 111.257812 L 838.476562 113.050781 "/>
<path style=" stroke:none;fill-rule:nonzero;fill:rgb(22.745098%,25.490196%,29.019608%);fill-opacity:1;" d="M 842.429688 120.210938 C 842.304688 121.691406 843.539062 122 844.773438 121.566406 L 844.773438 123.050781 C 842.738281 123.667969 840.453125 123.359375 840.453125 120.640625 L 840.453125 112.800781 L 839.09375 112.800781 L 839.09375 111.382812 L 840.578125 111.382812 L 841.132812 108.726562 L 842.429688 108.726562 L 842.429688 111.382812 L 844.589844 111.382812 L 844.589844 112.800781 L 842.429688 112.800781 L 842.429688 120.210938 "/>
<path style=" stroke:none;fill-rule:nonzero;fill:rgb(22.745098%,25.490196%,29.019608%);fill-opacity:1;" d="M 810.824219 149.777344 L 808.601562 149.777344 L 806.132812 139.65625 L 803.601562 149.777344 L 801.378906 149.777344 L 798.046875 138.050781 L 800.019531 138.050781 L 802.429688 148.171875 L 805.082031 138.050781 L 807.179688 138.050781 L 809.710938 148.171875 L 812.304688 138.050781 L 814.21875 138.050781 "/>
<path style=" stroke:none;fill-rule:nonzero;fill:rgb(22.745098%,25.490196%,29.019608%);fill-opacity:1;" d="M 820.265625 137.800781 C 824.15625 137.800781 825.578125 140.394531 825.453125 144.34375 L 817.121094 144.34375 C 817.121094 146.816406 817.984375 148.480469 820.390625 148.542969 C 821.996094 148.605469 823.046875 147.800781 823.414062 146.753906 L 825.144531 147.246094 C 824.464844 148.976562 822.859375 150.023438 820.390625 150.023438 C 816.8125 150.023438 814.957031 147.742188 815.019531 143.851562 C 815.082031 140.085938 816.625 137.800781 820.265625 137.800781 Z M 823.476562 142.800781 C 823.847656 139.097656 818.785156 138.050781 817.488281 141.074219 C 817.304688 141.507812 817.121094 142.125 817.121094 142.800781 L 823.476562 142.800781 "/>
<path style=" stroke:none;fill-rule:nonzero;fill:rgb(22.745098%,25.490196%,29.019608%);fill-opacity:1;" d="M 833.539062 137.800781 C 836.8125 137.800781 837.796875 140.210938 837.859375 143.851562 C 837.859375 147.925781 836.441406 150.023438 833.539062 150.023438 C 831.625 149.964844 830.515625 149.34375 829.898438 147.925781 L 829.773438 149.777344 L 827.859375 149.777344 L 827.921875 133.667969 L 829.898438 133.667969 L 829.898438 139.902344 C 830.515625 138.480469 831.625 137.800781 833.539062 137.800781 Z M 833.046875 148.542969 C 835.515625 148.542969 835.824219 146.445312 835.824219 143.914062 C 835.824219 141.445312 835.515625 139.285156 833.046875 139.34375 C 830.453125 139.34375 829.898438 141.320312 829.898438 144.035156 C 829.898438 146.691406 830.515625 148.542969 833.046875 148.542969 "/>
<path style=" stroke:none;fill-rule:nonzero;fill:rgb(22.745098%,25.490196%,29.019608%);fill-opacity:1;" d="M 847.121094 140.949219 C 846.933594 138.851562 841.8125 138.605469 841.75 140.949219 C 842.675781 144.222656 848.847656 141.691406 849.09375 146.507812 C 849.339844 151.320312 839.835938 151.074219 839.402344 147 L 841.132812 146.691406 C 841.378906 148.914062 847.121094 149.46875 847.179688 146.691406 C 846.5625 143.234375 840.207031 145.765625 839.898438 141.136719 C 839.648438 137.617188 844.957031 137.246094 847.429688 138.542969 C 848.167969 138.976562 848.722656 139.714844 848.910156 140.703125 "/>
<path style=" stroke:none;fill-rule:nonzero;fill:rgb(22.745098%,25.490196%,29.019608%);fill-opacity:1;" d="M 856.070312 137.800781 C 859.898438 137.742188 861.316406 140.085938 861.316406 143.914062 C 861.378906 147.800781 859.648438 150.023438 856.007812 150.023438 C 852.367188 150.023438 850.886719 147.617188 850.824219 143.914062 C 850.824219 139.839844 852.550781 137.800781 856.070312 137.800781 Z M 856.007812 148.542969 C 858.722656 148.605469 859.28125 146.628906 859.28125 143.914062 C 859.28125 141.257812 858.785156 139.285156 856.132812 139.285156 C 853.476562 139.285156 852.859375 141.257812 852.859375 143.914062 C 852.859375 146.566406 853.476562 148.480469 856.007812 148.542969 "/>
<path style=" stroke:none;fill-rule:nonzero;fill:rgb(22.745098%,25.490196%,29.019608%);fill-opacity:1;" d="M 868.167969 139.34375 C 865.699219 139.34375 865.207031 141.382812 865.207031 143.851562 C 865.207031 146.320312 865.761719 148.480469 868.167969 148.480469 C 869.648438 148.480469 870.699219 147.617188 870.824219 146.136719 L 872.796875 146.257812 C 872.429688 148.542969 870.886719 150.023438 868.230469 150.023438 C 864.589844 150.023438 863.539062 147.492188 863.167969 143.914062 C 862.550781 138.171875 869.402344 135.828125 872.242188 139.964844 C 872.488281 140.394531 872.550781 140.828125 872.675781 141.320312 L 870.699219 141.507812 C 870.453125 140.210938 869.710938 139.34375 868.167969 139.34375 "/>
<path style=" stroke:none;fill-rule:nonzero;fill:rgb(22.745098%,25.490196%,29.019608%);fill-opacity:1;" d="M 882.179688 149.777344 L 878.230469 144.40625 L 876.8125 145.582031 L 876.8125 149.777344 L 874.835938 149.777344 L 874.835938 133.667969 L 876.8125 133.667969 L 876.8125 143.726562 L 881.933594 138.050781 L 884.21875 138.050781 L 879.464844 143.109375 L 884.527344 149.777344 L 882.179688 149.777344 "/>
<path style=" stroke:none;fill-rule:nonzero;fill:rgb(22.745098%,25.490196%,29.019608%);fill-opacity:1;" d="M 890.636719 137.800781 C 894.527344 137.800781 895.945312 140.394531 895.824219 144.34375 L 887.488281 144.34375 C 887.488281 146.816406 888.355469 148.480469 890.761719 148.542969 C 892.367188 148.605469 893.414062 147.800781 893.785156 146.753906 L 895.515625 147.246094 C 894.835938 148.976562 893.230469 150.023438 890.761719 150.023438 C 887.179688 150.023438 885.328125 147.742188 885.390625 143.851562 C 885.453125 140.085938 886.996094 137.800781 890.636719 137.800781 Z M 893.847656 142.800781 C 894.21875 139.097656 889.15625 138.050781 887.859375 141.074219 C 887.675781 141.507812 887.488281 142.125 887.488281 142.800781 L 893.847656 142.800781 "/>
<path style=" stroke:none;fill-rule:nonzero;fill:rgb(22.745098%,25.490196%,29.019608%);fill-opacity:1;" d="M 900.453125 146.875 C 900.328125 148.359375 901.5625 148.667969 902.796875 148.234375 L 902.796875 149.714844 C 900.761719 150.332031 898.476562 150.023438 898.476562 147.308594 L 898.476562 139.46875 L 897.121094 139.46875 L 897.121094 138.050781 L 898.601562 138.050781 L 899.15625 135.394531 L 900.453125 135.394531 L 900.453125 138.050781 L 902.613281 138.050781 L 902.613281 139.46875 L 900.453125 139.46875 L 900.453125 146.875 "/>
<path style="fill:none;stroke-width:1;stroke-linecap:butt;stroke-linejoin:miter;stroke:rgb(22.745098%,25.490196%,29.019608%);stroke-opacity:1;stroke-miterlimit:4;" d="M 129.199219 672.140625 L 311.130859 672.140625 M 129.199219 674.140625 L 311.130859 674.140625 " transform="matrix(2,0,0,2,-28,-1162)"/>
<path style="fill-rule:nonzero;fill:rgb(22.745098%,25.490196%,29.019608%);fill-opacity:1;stroke-width:1;stroke-linecap:butt;stroke-linejoin:miter;stroke:rgb(22.745098%,25.490196%,29.019608%);stroke-opacity:1;stroke-miterlimit:4;" d="M 114.429688 673.140625 L 128.689453 668.509766 L 128.689453 677.789062 Z M 114.429688 673.140625 " transform="matrix(2,0,0,2,-28,-1162)"/>
<path style="fill-rule:nonzero;fill:rgb(22.745098%,25.490196%,29.019608%);fill-opacity:1;stroke-width:0.05;stroke-linecap:butt;stroke-linejoin:miter;stroke:rgb(22.745098%,25.490196%,29.019608%);stroke-opacity:1;stroke-miterlimit:4;" d="M 311.140625 672.640625 L 311.109375 672.640625 L 311.109375 672.619141 Z M 313.099609 674.640625 L 311.099609 674.640625 L 311.099609 673.640625 L 312.119141 673.640625 Z M 313.099609 674.640625 " transform="matrix(2,0,0,2,-28,-1162)"/>
<path style=" stroke:none;fill-rule:nonzero;fill:rgb(20%,20%,20%);fill-opacity:1;" d="M 275.449219 206.503906 L 275.449219 194.253906 L 285.078125 194.253906 L 285.078125 196.230469 L 278.015625 196.230469 L 278.015625 199.34375 L 284.535156 199.34375 L 284.535156 201.316406 L 278.015625 201.316406 L 278.015625 204.527344 L 285.425781 204.527344 L 285.425781 206.503906 L 275.449219 206.503906 "/>
<path style=" stroke:none;fill-rule:nonzero;fill:rgb(20%,20%,20%);fill-opacity:1;" d="M 292.878906 199.6875 C 292.929688 198.253906 289.425781 198.007812 289.375 199.492188 C 290.117188 201.761719 295.203125 199.835938 295.25 203.738281 C 295.300781 207.835938 287.152344 207.492188 286.757812 204.183594 L 288.878906 203.835938 C 289.078125 204.773438 289.867188 205.070312 291.054688 205.070312 C 292.683594 205.464844 293.867188 203.589844 292.238281 203.046875 C 290.117188 202.355469 287.203125 202.503906 287.101562 199.785156 C 287.003906 195.835938 294.707031 196.132812 295.054688 199.441406 "/>
<path style=" stroke:none;fill-rule:nonzero;fill:rgb(20%,20%,20%);fill-opacity:1;" d="M 301.671875 206.355469 C 299.894531 207.046875 297.375 206.699219 297.375 204.28125 L 297.375 198.75 L 296.1875 198.75 L 296.1875 197.121094 L 297.523438 197.121094 L 298.261719 194.898438 L 299.792969 194.898438 L 299.792969 197.121094 L 301.570312 197.121094 L 301.570312 198.75 L 299.792969 198.75 L 299.792969 203.636719 C 299.746094 204.773438 300.585938 205.167969 301.671875 204.875 L 301.671875 206.355469 "/>
<path style=" stroke:none;fill-rule:nonzero;fill:rgb(20%,20%,20%);fill-opacity:1;" d="M 308.4375 204.824219 C 307.644531 205.761719 306.953125 206.75 305.277344 206.699219 C 303.449219 206.652344 302.410156 205.710938 302.410156 203.835938 C 302.363281 200.875 305.128906 200.726562 308.140625 200.824219 C 308.1875 199.539062 307.992188 198.503906 306.757812 198.503906 C 305.867188 198.550781 305.472656 198.945312 305.375 199.835938 L 302.808594 199.738281 C 303.152344 197.859375 304.585938 196.875 306.855469 196.921875 C 309.128906 196.972656 310.511719 198.007812 310.558594 200.28125 L 310.609375 204.328125 C 310.558594 205.019531 311.203125 205.21875 311.84375 205.070312 L 311.84375 206.402344 C 310.363281 206.800781 308.335938 206.652344 308.4375 204.824219 Z M 306.066406 204.972656 C 307.5 204.972656 308.1875 203.785156 308.140625 202.15625 C 306.558594 202.15625 304.878906 202.007812 304.929688 203.636719 C 304.929688 204.476562 305.324219 204.972656 306.066406 204.972656 "/>
<path style=" stroke:none;fill-rule:nonzero;fill:rgb(20%,20%,20%);fill-opacity:1;" d="M 318.410156 196.921875 C 320.980469 196.921875 321.867188 199.046875 321.867188 201.761719 C 321.867188 204.527344 320.929688 206.652344 318.261719 206.699219 C 316.78125 206.75 315.992188 205.960938 315.398438 204.972656 L 315.300781 206.503906 L 312.929688 206.503906 L 312.980469 193.613281 L 315.449219 193.613281 L 315.449219 198.75 C 315.992188 197.613281 316.878906 196.921875 318.410156 196.921875 Z M 317.375 205.019531 C 318.90625 205.019531 319.351562 203.6875 319.351562 201.761719 C 319.351562 199.933594 319.003906 198.652344 317.425781 198.652344 C 315.84375 198.652344 315.398438 200.035156 315.398438 201.859375 C 315.398438 203.636719 315.792969 205.019531 317.375 205.019531 "/>
<path style=" stroke:none;fill-rule:nonzero;fill:rgb(20%,20%,20%);fill-opacity:1;" d="M 323.792969 206.503906 L 323.792969 193.613281 L 326.261719 193.613281 L 326.261719 206.503906 L 323.792969 206.503906 "/>
<path style=" stroke:none;fill-rule:nonzero;fill:rgb(20%,20%,20%);fill-opacity:1;" d="M 328.734375 195.441406 L 328.734375 193.613281 L 331.203125 193.613281 L 331.203125 195.441406 Z M 328.734375 206.503906 L 328.734375 197.121094 L 331.203125 197.121094 L 331.203125 206.503906 L 328.734375 206.503906 "/>
<path style=" stroke:none;fill-rule:nonzero;fill:rgb(20%,20%,20%);fill-opacity:1;" d="M 339.203125 199.6875 C 339.25 198.253906 335.746094 198.007812 335.695312 199.492188 C 336.4375 201.761719 341.523438 199.835938 341.570312 203.738281 C 341.621094 207.835938 333.472656 207.492188 333.078125 204.183594 L 335.203125 203.835938 C 335.398438 204.773438 336.1875 205.070312 337.375 205.070312 C 339.003906 205.464844 340.1875 203.589844 338.558594 203.046875 C 336.4375 202.355469 333.523438 202.503906 333.425781 199.785156 C 333.324219 195.835938 341.027344 196.132812 341.375 199.441406 "/>
<path style=" stroke:none;fill-rule:nonzero;fill:rgb(20%,20%,20%);fill-opacity:1;" d="M 347.941406 198.75 C 345.027344 198.75 346.261719 203.539062 346.015625 206.503906 L 343.546875 206.503906 L 343.546875 193.613281 L 346.015625 193.613281 L 345.96875 198.996094 C 346.558594 197.710938 347.351562 196.972656 348.980469 196.921875 C 353.226562 196.875 351.84375 202.503906 352.089844 206.503906 L 349.621094 206.503906 C 349.277344 203.6875 350.757812 198.75 347.941406 198.75 "/>
<path style=" stroke:none;fill-rule:nonzero;fill:rgb(20%,20%,20%);fill-opacity:1;" d="M 367.449219 203.390625 C 367.101562 205.464844 365.570312 206.699219 363.203125 206.699219 C 360.289062 206.699219 359.054688 204.824219 358.757812 201.859375 C 358.164062 196.429688 366.363281 195.09375 367.351562 200.082031 L 364.929688 200.183594 C 364.832031 199.242188 364.1875 198.601562 363.203125 198.601562 C 361.71875 198.601562 361.472656 199.984375 361.324219 201.761719 C 361.027344 205.417969 364.535156 206.058594 364.980469 203.242188 "/>
<path style=" stroke:none;fill-rule:nonzero;fill:rgb(20%,20%,20%);fill-opacity:1;" d="M 373.375 196.921875 C 376.535156 196.921875 378.117188 198.699219 378.117188 201.8125 C 378.117188 204.972656 376.386719 206.699219 373.324219 206.699219 C 370.3125 206.699219 368.632812 204.921875 368.632812 201.8125 C 368.632812 198.75 370.3125 196.921875 373.375 196.921875 Z M 373.324219 205.019531 C 375.054688 205.019531 375.546875 203.636719 375.546875 201.8125 C 375.546875 199.835938 375.054688 198.601562 373.425781 198.601562 C 371.746094 198.601562 371.203125 199.886719 371.203125 201.8125 C 371.203125 203.589844 371.695312 205.019531 373.324219 205.019531 "/>
<path style=" stroke:none;fill-rule:nonzero;fill:rgb(20%,20%,20%);fill-opacity:1;" d="M 385.425781 196.921875 C 389.71875 196.875 388.289062 202.503906 388.535156 206.503906 L 386.066406 206.503906 C 385.71875 203.6875 387.203125 198.75 384.386719 198.75 C 381.472656 198.75 382.707031 203.539062 382.460938 206.503906 L 379.992188 206.503906 L 379.941406 197.121094 L 382.261719 197.121094 C 382.363281 197.710938 382.214844 198.503906 382.410156 198.996094 C 383.003906 197.710938 383.792969 196.972656 385.425781 196.921875 "/>
<path style=" stroke:none;fill-rule:nonzero;fill:rgb(20%,20%,20%);fill-opacity:1;" d="M 396.238281 196.921875 C 400.535156 196.875 399.101562 202.503906 399.351562 206.503906 L 396.878906 206.503906 C 396.535156 203.6875 398.015625 198.75 395.203125 198.75 C 392.289062 198.75 393.523438 203.539062 393.277344 206.503906 L 390.808594 206.503906 L 390.757812 197.121094 L 393.078125 197.121094 C 393.175781 197.710938 393.027344 198.503906 393.226562 198.996094 C 393.820312 197.710938 394.609375 196.972656 396.238281 196.921875 "/>
<path style=" stroke:none;fill-rule:nonzero;fill:rgb(20%,20%,20%);fill-opacity:1;" d="M 409.523438 204.132812 C 408.878906 205.613281 407.695312 206.75 405.472656 206.699219 C 402.511719 206.601562 401.078125 204.875 401.078125 201.761719 C 401.078125 198.652344 402.558594 196.921875 405.523438 196.921875 C 408.585938 196.921875 409.621094 199.144531 409.671875 202.253906 L 403.644531 202.253906 C 403.644531 203.785156 404.042969 204.972656 405.570312 205.019531 C 406.460938 205.019531 407.054688 204.675781 407.25 203.933594 Z M 407.300781 200.726562 C 407.546875 198.453125 404.484375 197.613281 403.84375 199.6875 C 403.746094 199.984375 403.644531 200.328125 403.644531 200.726562 L 407.300781 200.726562 "/>
<path style=" stroke:none;fill-rule:nonzero;fill:rgb(20%,20%,20%);fill-opacity:1;" d="M 419.644531 203.390625 C 419.300781 205.464844 417.769531 206.699219 415.398438 206.699219 C 412.484375 206.699219 411.25 204.824219 410.953125 201.859375 C 410.363281 196.429688 418.558594 195.09375 419.546875 200.082031 L 417.128906 200.183594 C 417.027344 199.242188 416.386719 198.601562 415.398438 198.601562 C 413.917969 198.601562 413.671875 199.984375 413.523438 201.761719 C 413.226562 205.417969 416.734375 206.058594 417.175781 203.242188 "/>
<path style=" stroke:none;fill-rule:nonzero;fill:rgb(20%,20%,20%);fill-opacity:1;" d="M 425.820312 206.355469 C 424.042969 207.046875 421.523438 206.699219 421.523438 204.28125 L 421.523438 198.75 L 420.335938 198.75 L 420.335938 197.121094 L 421.671875 197.121094 L 422.410156 194.898438 L 423.941406 194.898438 L 423.941406 197.121094 L 425.71875 197.121094 L 425.71875 198.75 L 423.941406 198.75 L 423.941406 203.636719 C 423.894531 204.773438 424.734375 205.167969 425.820312 204.875 L 425.820312 206.355469 "/>
<path style=" stroke:none;fill-rule:nonzero;fill:rgb(20%,20%,20%);fill-opacity:1;" d="M 427.25 195.441406 L 427.25 193.613281 L 429.71875 193.613281 L 429.71875 195.441406 Z M 427.25 206.503906 L 427.25 197.121094 L 429.71875 197.121094 L 429.71875 206.503906 L 427.25 206.503906 "/>
<path style=" stroke:none;fill-rule:nonzero;fill:rgb(20%,20%,20%);fill-opacity:1;" d="M 436.386719 196.921875 C 439.546875 196.921875 441.128906 198.699219 441.128906 201.8125 C 441.128906 204.972656 439.398438 206.699219 436.335938 206.699219 C 433.324219 206.699219 431.644531 204.921875 431.644531 201.8125 C 431.644531 198.75 433.324219 196.921875 436.386719 196.921875 Z M 436.335938 205.019531 C 438.066406 205.019531 438.558594 203.636719 438.558594 201.8125 C 438.558594 199.835938 438.066406 198.601562 436.4375 198.601562 C 434.757812 198.601562 434.214844 199.886719 434.214844 201.8125 C 434.214844 203.589844 434.707031 205.019531 436.335938 205.019531 "/>
<path style=" stroke:none;fill-rule:nonzero;fill:rgb(20%,20%,20%);fill-opacity:1;" d="M 448.4375 196.921875 C 452.734375 196.875 451.300781 202.503906 451.546875 206.503906 L 449.078125 206.503906 C 448.734375 203.6875 450.214844 198.75 447.398438 198.75 C 444.484375 198.75 445.71875 203.539062 445.472656 206.503906 L 443.003906 206.503906 L 442.953125 197.121094 L 445.277344 197.121094 C 445.375 197.710938 445.226562 198.503906 445.425781 198.996094 C 446.015625 197.710938 446.808594 196.972656 448.4375 196.921875 "/>
<path style=" stroke:none;fill-rule:nonzero;fill:rgb(20%,20%,20%);fill-opacity:1;" d="M 460.832031 201.910156 C 460.832031 205.566406 461.917969 207.984375 463.449219 210.207031 L 460.980469 210.207031 C 459.5 207.984375 458.410156 205.613281 458.410156 201.910156 C 458.410156 198.207031 459.5 195.835938 460.980469 193.613281 L 463.449219 193.613281 C 461.867188 195.785156 460.832031 198.253906 460.832031 201.910156 "/>
<path style=" stroke:none;fill-rule:nonzero;fill:rgb(20%,20%,20%);fill-opacity:1;" d="M 474.808594 206.503906 L 472.238281 206.503906 L 470.3125 198.847656 L 468.335938 206.503906 L 465.769531 206.503906 L 463.351562 197.121094 L 465.621094 197.121094 L 467.203125 204.28125 C 467.644531 201.710938 468.386719 199.492188 468.980469 197.121094 L 471.597656 197.121094 L 473.425781 204.28125 L 475.003906 197.121094 L 477.277344 197.121094 "/>
<path style=" stroke:none;fill-rule:nonzero;fill:rgb(20%,20%,20%);fill-opacity:1;" d="M 483.992188 199.6875 C 484.042969 198.253906 480.535156 198.007812 480.484375 199.492188 C 481.226562 201.761719 486.3125 199.835938 486.363281 203.738281 C 486.410156 207.835938 478.261719 207.492188 477.867188 204.183594 L 479.992188 203.835938 C 480.1875 204.773438 480.980469 205.070312 482.164062 205.070312 C 483.792969 205.464844 484.980469 203.589844 483.351562 203.046875 C 481.226562 202.355469 478.3125 202.503906 478.214844 199.785156 C 478.117188 195.835938 485.820312 196.132812 486.164062 199.441406 "/>
<path style=" stroke:none;fill-rule:nonzero;fill:rgb(20%,20%,20%);fill-opacity:1;" d="M 493.867188 199.6875 C 493.917969 198.253906 490.410156 198.007812 490.363281 199.492188 C 491.101562 201.761719 496.1875 199.835938 496.238281 203.738281 C 496.289062 207.835938 488.140625 207.492188 487.746094 204.183594 L 489.867188 203.835938 C 490.066406 204.773438 490.855469 205.070312 492.042969 205.070312 C 493.671875 205.464844 494.855469 203.589844 493.226562 203.046875 C 491.101562 202.355469 488.1875 202.503906 488.089844 199.785156 C 487.992188 195.835938 495.695312 196.132812 496.042969 199.441406 "/>
<path style=" stroke:none;fill-rule:nonzero;fill:rgb(20%,20%,20%);fill-opacity:1;" d="M 498.707031 199.984375 L 498.707031 197.515625 L 501.175781 197.515625 L 501.175781 199.984375 Z M 498.707031 206.503906 L 498.707031 204.082031 L 501.175781 204.082031 L 501.175781 206.503906 L 498.707031 206.503906 "/>
<path style=" stroke:none;fill-rule:nonzero;fill:rgb(20%,20%,20%);fill-opacity:1;" d="M 503.054688 206.847656 L 505.570312 193.613281 L 507.644531 193.613281 L 505.128906 206.847656 L 503.054688 206.847656 "/>
<path style=" stroke:none;fill-rule:nonzero;fill:rgb(20%,20%,20%);fill-opacity:1;" d="M 507.992188 206.847656 L 510.511719 193.613281 L 512.585938 193.613281 L 510.066406 206.847656 L 507.992188 206.847656 "/>
<path style=" stroke:none;fill-rule:nonzero;fill:rgb(20%,20%,20%);fill-opacity:1;" d="M 517.769531 201.910156 C 517.769531 205.566406 516.683594 207.984375 515.203125 210.207031 L 512.734375 210.207031 C 514.214844 207.933594 515.398438 205.613281 515.351562 201.910156 C 515.351562 198.253906 514.261719 195.835938 512.734375 193.613281 L 515.203125 193.613281 C 516.683594 195.835938 517.769531 198.253906 517.769531 201.910156 "/>
</g>
</svg>
