<?xml version="1.0" encoding="UTF-8"?>
<svg xmlns="http://www.w3.org/2000/svg" xmlns:xlink="http://www.w3.org/1999/xlink" width="1380px" height="322px" viewBox="0 0 1380 322" version="1.1">
<g id="surface1">
<rect x="0" y="0" width="1380" height="322" style="fill:rgb(100%,100%,100%);fill-opacity:1;stroke:none;"/>
<path style="fill-rule:nonzero;fill:rgb(95.686275%,85.098039%,100%);fill-opacity:1;stroke-width:1;stroke-linecap:butt;stroke-linejoin:miter;stroke:rgb(22.745098%,25.490196%,29.019608%);stroke-opacity:1;stroke-miterlimit:4;" d="M 1241.898803 564.280474 C 1243.007515 563.15676 1244.520089 562.522528 1246.101243 562.522528 C 1247.680491 562.522528 1249.19116 563.15676 1250.299873 564.280474 L 1287.999912 602.700068 C 1290.339258 605.075104 1290.339258 608.886209 1287.999912 611.261246 L 1250.299873 649.678935 C 1249.19116 650.804554 1247.680491 651.436881 1246.101243 651.436881 C 1244.520089 651.436881 1243.007515 650.804554 1241.898803 649.678935 L 1204.198763 611.261246 C 1201.863227 608.886209 1201.863227 605.075104 1204.198763 602.700068 Z M 1241.898803 564.280474 " transform="matrix(2.05052,0,0,2.050955,-2427.81575,-1076.751592)"/>
<path style=" stroke:none;fill-rule:nonzero;fill:rgb(22.745098%,25.490196%,29.019608%);fill-opacity:1;" d="M 101.699219 159.164062 C 104.054688 159.164062 105.34375 160.160156 106.257812 161.671875 L 106.179688 154.078125 L 108.613281 154.078125 L 108.6875 173.90625 L 106.410156 173.90625 C 106.257812 173.144531 106.410156 172.160156 106.179688 171.550781 C 105.425781 173.296875 104.054688 174.210938 101.699219 174.210938 C 97.671875 174.210938 96.460938 171.246094 96.382812 166.761719 C 96.382812 161.753906 98.128906 159.164062 101.699219 159.164062 Z M 102.382812 160.992188 C 99.347656 160.992188 98.890625 163.570312 98.890625 166.6875 C 98.890625 169.722656 99.347656 172.3125 102.308594 172.3125 C 105.496094 172.3125 106.179688 169.875 106.179688 166.535156 C 106.179688 163.347656 105.496094 160.910156 102.382812 160.992188 "/>
<path style=" stroke:none;fill-rule:nonzero;fill:rgb(22.745098%,25.490196%,29.019608%);fill-opacity:1;" d="M 126.003906 173.90625 L 123.878906 168.433594 L 115.292969 168.433594 L 113.171875 173.90625 L 110.511719 173.90625 L 118.175781 155.0625 L 121.070312 155.0625 L 128.582031 173.90625 Z M 123.121094 166.382812 L 119.546875 157.042969 C 118.632812 160.457031 117.191406 163.265625 116.054688 166.382812 L 123.121094 166.382812 "/>
<path style=" stroke:none;fill-rule:nonzero;fill:rgb(22.745098%,25.490196%,29.019608%);fill-opacity:1;" d="M 137.394531 159.164062 C 141.574219 159.246094 142.710938 162.28125 142.710938 166.609375 C 142.710938 170.941406 141.492188 174.058594 137.394531 174.210938 C 135.039062 174.210938 133.675781 173.21875 132.835938 171.625 L 132.914062 179.601562 L 130.480469 179.601562 L 130.410156 159.46875 L 132.761719 159.46875 L 132.914062 161.753906 C 133.675781 160.160156 135.039062 159.164062 137.394531 159.164062 Z M 136.785156 172.382812 C 139.828125 172.382812 140.203125 169.804688 140.203125 166.6875 C 140.203125 163.570312 139.746094 161.144531 136.785156 161.0625 C 133.597656 161.0625 132.914062 163.5 132.914062 166.839844 C 132.914062 170.109375 133.675781 172.382812 136.785156 172.382812 "/>
<path style=" stroke:none;fill-rule:nonzero;fill:rgb(22.745098%,25.490196%,29.019608%);fill-opacity:1;" d="M 152.585938 159.164062 C 156.761719 159.246094 157.898438 162.28125 157.898438 166.609375 C 157.898438 170.941406 156.6875 174.058594 152.585938 174.210938 C 150.234375 174.210938 148.863281 173.21875 148.03125 171.625 L 148.101562 179.601562 L 145.675781 179.601562 L 145.59375 159.46875 L 147.949219 159.46875 L 148.101562 161.753906 C 148.863281 160.160156 150.234375 159.164062 152.585938 159.164062 Z M 151.980469 172.382812 C 155.015625 172.382812 155.390625 169.804688 155.390625 166.6875 C 155.390625 163.570312 154.941406 161.144531 151.980469 161.0625 C 148.789062 161.0625 148.101562 163.5 148.101562 166.839844 C 148.101562 170.109375 148.863281 172.382812 151.980469 172.382812 "/>
<path style="fill-rule:nonzero;fill:rgb(100%,100%,100%);fill-opacity:1;stroke-width:1;stroke-linecap:butt;stroke-linejoin:miter;stroke:rgb(22.745098%,25.490196%,29.019608%);stroke-opacity:1;stroke-miterlimit:4;" d="M 1737.398101 624.378227 C 1727.800688 624.378227 1719.999694 616.578889 1719.999694 606.979704 C 1719.999694 599.281311 1724.69934 592.809479 1732.020273 590.430634 C 1731.601172 567.828744 1760.589626 563.48816 1772.191103 572.192183 C 1777.988032 559.12853 1806.968866 563.48816 1806.968866 576.530862 C 1824.371082 572.17885 1841.769489 589.569754 1830.171821 611.327907 C 1841.769489 628.711192 1830.171821 650.461726 1806.968866 641.761513 C 1801.171937 653.057696 1777.968982 653.057696 1772.172053 641.761513 C 1760.570576 650.461726 1737.390481 646.109715 1737.390481 624.359181 Z M 1737.398101 624.378227 " transform="matrix(2.05052,0,0,2.050955,-2427.81575,-1076.751592)"/>
<path style=" stroke:none;fill-rule:nonzero;fill:rgb(22.745098%,25.490196%,29.019608%);fill-opacity:1;" d="M 1134.738281 160.871094 C 1134.355469 157.226562 1125.390625 156.769531 1125.320312 161.023438 C 1126.382812 166.71875 1137.316406 162.089844 1137.695312 170.0625 C 1137.925781 175.988281 1128.507812 176.671875 1124.40625 174.242188 C 1123.117188 173.480469 1122.285156 172.265625 1121.898438 170.75 L 1124.40625 170.214844 C 1124.78125 174.46875 1135.113281 175.003906 1135.113281 170.140625 C 1135.113281 164.210938 1123.339844 169.074219 1122.8125 161.175781 C 1122.433594 154.953125 1133.824219 154.800781 1136.40625 158.597656 C 1136.789062 159.125 1137.011719 159.804688 1137.238281 160.496094 "/>
<path style=" stroke:none;fill-rule:nonzero;fill:rgb(22.745098%,25.490196%,29.019608%);fill-opacity:1;" d="M 1146.503906 160.496094 C 1151.214844 160.414062 1152.960938 163.308594 1152.960938 168.011719 C 1153.042969 172.800781 1150.910156 175.53125 1146.433594 175.53125 C 1141.949219 175.53125 1140.128906 172.570312 1140.050781 168.011719 C 1140.050781 163.003906 1142.179688 160.496094 1146.503906 160.496094 Z M 1146.433594 173.707031 C 1149.773438 173.785156 1150.453125 171.359375 1150.453125 168.011719 C 1150.453125 164.75 1149.84375 162.3125 1146.585938 162.3125 C 1143.316406 162.3125 1142.554688 164.75 1142.554688 168.011719 C 1142.554688 171.277344 1143.316406 173.632812 1146.433594 173.707031 "/>
<path style=" stroke:none;fill-rule:nonzero;fill:rgb(22.745098%,25.490196%,29.019608%);fill-opacity:1;" d="M 1155.925781 175.226562 L 1155.925781 155.398438 L 1158.351562 155.398438 L 1158.351562 175.226562 L 1155.925781 175.226562 "/>
<path style=" stroke:none;fill-rule:nonzero;fill:rgb(22.745098%,25.490196%,29.019608%);fill-opacity:1;" d="M 1170.808594 172.496094 C 1169.667969 174.089844 1168.453125 175.613281 1165.648438 175.53125 C 1162.910156 175.460938 1161.242188 173.9375 1161.242188 171.207031 C 1161.164062 166.34375 1166.023438 166.414062 1170.734375 166.414062 C 1170.960938 163.757812 1170.046875 162.3125 1167.617188 162.3125 C 1165.792969 162.394531 1164.503906 162.851562 1164.429688 164.667969 L 1161.925781 164.445312 C 1162.300781 161.632812 1164.429688 160.496094 1167.699219 160.496094 C 1171.109375 160.496094 1173.160156 162.007812 1173.160156 165.359375 L 1173.160156 171.582031 C 1173.089844 173.105469 1173.699219 174.011719 1175.292969 173.632812 L 1175.292969 175.15625 C 1172.9375 175.835938 1170.65625 175.003906 1170.808594 172.496094 Z M 1163.742188 171.207031 C 1163.742188 172.722656 1164.65625 173.707031 1166.175781 173.707031 C 1169.292969 173.480469 1170.960938 171.511719 1170.734375 168.089844 C 1167.46875 168.242188 1163.742188 167.707031 1163.742188 171.207031 "/>
<path style=" stroke:none;fill-rule:nonzero;fill:rgb(22.745098%,25.490196%,29.019608%);fill-opacity:1;" d="M 1184.175781 160.496094 C 1190.9375 160.191406 1188.203125 169.308594 1188.734375 175.226562 L 1186.296875 175.226562 L 1186.296875 166.039062 C 1186.296875 163.683594 1185.695312 162.3125 1183.34375 162.394531 C 1177.871094 162.546875 1180.003906 170.140625 1179.617188 175.226562 L 1177.191406 175.226562 L 1177.109375 160.800781 L 1179.394531 160.800781 C 1179.464844 161.554688 1179.3125 162.617188 1179.546875 163.226562 C 1180.378906 161.554688 1181.75 160.566406 1184.175781 160.496094 "/>
<path style=" stroke:none;fill-rule:nonzero;fill:rgb(22.745098%,25.490196%,29.019608%);fill-opacity:1;" d="M 1201.1875 172.496094 C 1200.050781 174.089844 1198.832031 175.613281 1196.023438 175.53125 C 1193.289062 175.460938 1191.617188 173.9375 1191.617188 171.207031 C 1191.542969 166.34375 1196.40625 166.414062 1201.109375 166.414062 C 1201.339844 163.757812 1200.425781 162.3125 1198 162.3125 C 1196.175781 162.394531 1194.882812 162.851562 1194.804688 164.667969 L 1192.304688 164.445312 C 1192.683594 161.632812 1194.804688 160.496094 1198.074219 160.496094 C 1201.492188 160.496094 1203.542969 162.007812 1203.542969 165.359375 L 1203.542969 171.582031 C 1203.464844 173.105469 1204.070312 174.011719 1205.664062 173.632812 L 1205.664062 175.15625 C 1203.3125 175.835938 1201.035156 175.003906 1201.1875 172.496094 Z M 1194.125 171.207031 C 1194.125 172.722656 1195.035156 173.707031 1196.550781 173.707031 C 1199.667969 173.480469 1201.339844 171.511719 1201.109375 168.089844 C 1197.847656 168.242188 1194.125 167.707031 1194.125 171.207031 "/>
<path style=" stroke:none;fill-rule:nonzero;fill:rgb(22.745098%,25.490196%,29.019608%);fill-opacity:1;" d="M 1227.691406 175.226562 L 1217.664062 159.207031 L 1217.746094 175.226562 L 1215.542969 175.226562 L 1215.542969 156.394531 L 1218.503906 156.394531 L 1228.605469 172.570312 L 1228.453125 156.394531 L 1230.808594 156.394531 L 1230.808594 175.226562 L 1227.691406 175.226562 "/>
<path style=" stroke:none;fill-rule:nonzero;fill:rgb(22.745098%,25.490196%,29.019608%);fill-opacity:1;" d="M 1240.523438 160.496094 C 1245.316406 160.496094 1247.0625 163.683594 1246.910156 168.546875 L 1236.65625 168.546875 C 1236.65625 171.582031 1237.714844 173.632812 1240.675781 173.707031 C 1242.65625 173.785156 1243.945312 172.800781 1244.402344 171.511719 L 1246.523438 172.113281 C 1245.691406 174.242188 1243.710938 175.53125 1240.675781 175.53125 C 1236.269531 175.53125 1233.996094 172.722656 1234.070312 167.9375 C 1234.148438 163.308594 1236.046875 160.496094 1240.523438 160.496094 Z M 1244.472656 166.648438 C 1244.929688 162.089844 1238.707031 160.800781 1237.113281 164.515625 C 1236.878906 165.054688 1236.65625 165.808594 1236.65625 166.648438 L 1244.472656 166.648438 "/>
<path style=" stroke:none;fill-rule:nonzero;fill:rgb(22.745098%,25.490196%,29.019608%);fill-opacity:1;" d="M 1252.601562 171.65625 C 1252.453125 173.480469 1253.964844 173.859375 1255.488281 173.328125 L 1255.488281 175.15625 C 1252.980469 175.910156 1250.167969 175.53125 1250.167969 172.191406 L 1250.167969 162.546875 L 1248.503906 162.546875 L 1248.503906 160.800781 L 1250.320312 160.800781 L 1251.007812 157.53125 L 1252.601562 157.53125 L 1252.601562 160.800781 L 1255.261719 160.800781 L 1255.261719 162.546875 L 1252.601562 162.546875 L 1252.601562 171.65625 "/>
<path style=" stroke:none;fill-rule:nonzero;fill:rgb(22.745098%,25.490196%,29.019608%);fill-opacity:1;" d="M 1271.363281 175.226562 L 1268.625 175.226562 L 1265.585938 162.769531 L 1262.472656 175.226562 L 1259.738281 175.226562 L 1255.640625 160.800781 L 1258.066406 160.800781 L 1261.03125 173.257812 L 1264.296875 160.800781 L 1266.878906 160.800781 L 1269.992188 173.257812 L 1273.179688 160.800781 L 1275.535156 160.800781 "/>
<path style=" stroke:none;fill-rule:nonzero;fill:rgb(22.745098%,25.490196%,29.019608%);fill-opacity:1;" d="M 1282.976562 160.496094 C 1287.6875 160.414062 1289.433594 163.308594 1289.433594 168.011719 C 1289.511719 172.800781 1287.382812 175.53125 1282.90625 175.53125 C 1278.425781 175.53125 1276.601562 172.570312 1276.519531 168.011719 C 1276.519531 163.003906 1278.652344 160.496094 1282.976562 160.496094 Z M 1282.90625 173.707031 C 1286.246094 173.785156 1286.925781 171.359375 1286.925781 168.011719 C 1286.925781 164.75 1286.324219 162.3125 1283.058594 162.3125 C 1279.789062 162.3125 1279.027344 164.75 1279.027344 168.011719 C 1279.027344 171.277344 1279.789062 173.632812 1282.90625 173.707031 "/>
<path style=" stroke:none;fill-rule:nonzero;fill:rgb(22.745098%,25.490196%,29.019608%);fill-opacity:1;" d="M 1299.230469 162.851562 C 1293.308594 161.632812 1295.207031 169.757812 1294.902344 175.226562 L 1292.476562 175.226562 L 1292.394531 160.800781 L 1294.679688 160.800781 C 1294.75 161.703125 1294.597656 163.003906 1294.832031 163.757812 C 1295.28125 161.703125 1296.578125 160.039062 1299.230469 160.648438 L 1299.230469 162.851562 "/>
<path style=" stroke:none;fill-rule:nonzero;fill:rgb(22.745098%,25.490196%,29.019608%);fill-opacity:1;" d="M 1310.472656 175.226562 L 1305.613281 168.617188 L 1303.867188 170.0625 L 1303.867188 175.226562 L 1301.429688 175.226562 L 1301.429688 155.398438 L 1303.867188 155.398438 L 1303.867188 167.785156 L 1310.171875 160.800781 L 1312.980469 160.800781 L 1307.132812 167.023438 L 1313.359375 175.226562 L 1310.472656 175.226562 "/>
<path style="fill-rule:nonzero;fill:rgb(81.176471%,89.411765%,100%);fill-opacity:1;stroke-width:1;stroke-linecap:butt;stroke-linejoin:miter;stroke:rgb(22.745098%,25.490196%,29.019608%);stroke-opacity:1;stroke-miterlimit:4;" d="M 1637.000552 587.981318 C 1647.500937 587.981318 1655.999162 596.479644 1655.999162 606.979704 C 1655.999162 617.479765 1647.500937 625.979996 1637.000552 625.979996 L 1598.999522 625.979996 C 1588.499137 625.979996 1580.000911 617.479765 1580.000911 606.979704 C 1580.000911 596.479644 1588.499137 587.981318 1598.999522 587.981318 Z M 1637.000552 587.981318 " transform="matrix(2.05052,0,0,2.050955,-2427.81575,-1076.751592)"/>
<path style=" stroke:none;fill-rule:nonzero;fill:rgb(22.745098%,25.490196%,29.019608%);fill-opacity:1;" d="M 878.839844 162.722656 C 878.761719 165.839844 877.09375 167.585938 874.28125 168.042969 L 879.601562 176.175781 L 876.710938 176.175781 L 871.777344 168.347656 L 865.929688 168.347656 L 865.929688 176.175781 L 863.421875 176.175781 L 863.421875 157.332031 C 870.101562 157.5625 878.992188 155.738281 878.839844 162.722656 Z M 865.929688 166.367188 C 870.484375 166.214844 876.332031 167.359375 876.332031 162.800781 C 876.332031 158.164062 870.253906 159.613281 865.929688 159.382812 L 865.929688 166.367188 "/>
<path style=" stroke:none;fill-rule:nonzero;fill:rgb(22.745098%,25.490196%,29.019608%);fill-opacity:1;" d="M 883.09375 157.332031 C 889.703125 157.410156 897.597656 156.191406 897.597656 163.027344 C 897.597656 168.957031 891.75 169.109375 885.601562 168.804688 L 885.601562 176.175781 L 883.09375 176.175781 Z M 885.601562 166.824219 C 889.925781 166.824219 895.011719 167.664062 895.011719 163.027344 C 895.011719 158.546875 889.855469 159.460938 885.601562 159.382812 L 885.601562 166.824219 "/>
<path style=" stroke:none;fill-rule:nonzero;fill:rgb(22.745098%,25.490196%,29.019608%);fill-opacity:1;" d="M 915.140625 162.570312 C 914.378906 160.445312 912.480469 159.15625 909.597656 159.15625 C 905.113281 159.15625 902.988281 162.195312 902.988281 166.671875 C 902.988281 171.230469 905.191406 174.347656 909.75 174.347656 C 913.011719 174.347656 914.460938 172.519531 915.667969 170.398438 L 917.71875 171.464844 C 916.359375 174.347656 913.851562 176.46875 909.597656 176.46875 C 903.519531 176.46875 900.707031 172.671875 900.402344 166.671875 C 899.953125 158.773438 907.921875 155.054688 914.605469 158.242188 C 916.054688 158.925781 916.957031 160.214844 917.566406 161.738281 "/>
<path style="fill:none;stroke-width:1;stroke-linecap:butt;stroke-linejoin:miter;stroke:rgb(0%,0%,0%);stroke-opacity:1;stroke-miterlimit:4;" d="M 1276.531785 589.781165 L 1398.280624 589.781165 " transform="matrix(2.05052,0,0,2.050955,-2427.81575,-1076.751592)"/>
<path style="fill-rule:nonzero;fill:rgb(0%,0%,0%);fill-opacity:1;stroke-width:0.05;stroke-linecap:butt;stroke-linejoin:miter;stroke:rgb(0%,0%,0%);stroke-opacity:1;stroke-miterlimit:4;" d="M 1276.550835 590.282075 L 1276.520355 590.282075 L 1275.539278 589.28216 L 1276.539405 589.28216 Z M 1276.550835 590.282075 " transform="matrix(2.05052,0,0,2.050955,-2427.81575,-1076.751592)"/>
<path style="fill-rule:nonzero;fill:rgb(0%,0%,0%);fill-opacity:1;stroke-width:1;stroke-linecap:butt;stroke-linejoin:miter;stroke:rgb(0%,0%,0%);stroke-opacity:1;stroke-miterlimit:4;" d="M 1413.050125 589.781165 L 1398.781641 594.409343 L 1398.781641 585.149178 Z M 1413.050125 589.781165 " transform="matrix(2.05052,0,0,2.050955,-2427.81575,-1076.751592)"/>
<path style=" stroke:none;fill-rule:nonzero;fill:rgb(0%,0%,0%);fill-opacity:1;" d="M 214.121094 100.867188 C 214.175781 99.398438 210.578125 99.144531 210.53125 100.664062 C 211.285156 102.988281 216.5 101.015625 216.554688 105.015625 C 216.601562 109.222656 208.246094 108.867188 207.847656 105.472656 L 210.019531 105.121094 C 210.226562 106.082031 211.035156 106.386719 212.253906 106.386719 C 213.917969 106.785156 215.136719 104.863281 213.460938 104.308594 C 211.285156 103.597656 208.296875 103.75 208.199219 100.96875 C 208.097656 96.914062 215.992188 97.21875 216.355469 100.609375 "/>
<path style=" stroke:none;fill-rule:nonzero;fill:rgb(0%,0%,0%);fill-opacity:1;" d="M 218.582031 96.507812 L 218.582031 94.632812 L 221.113281 94.632812 L 221.113281 96.507812 Z M 218.582031 107.851562 L 218.582031 98.230469 L 221.113281 98.230469 L 221.113281 107.851562 L 218.582031 107.851562 "/>
<path style=" stroke:none;fill-rule:nonzero;fill:rgb(0%,0%,0%);fill-opacity:1;" d="M 232.246094 107.546875 C 232.804688 112.007812 226.175781 112.914062 223.945312 110.183594 C 223.738281 109.878906 223.644531 109.527344 223.539062 109.117188 L 226.023438 108.8125 C 226.175781 109.621094 226.832031 110.03125 227.742188 110.078125 C 229.769531 110.078125 229.867188 108.203125 229.769531 106.082031 C 229.210938 107.195312 228.25 107.851562 226.679688 107.851562 C 223.996094 107.851562 223.136719 105.671875 223.136719 102.941406 C 223.136719 100.105469 224.042969 98.078125 226.832031 98.027344 C 228.351562 98.027344 229.160156 98.734375 229.820312 99.75 L 229.921875 98.230469 L 232.300781 98.230469 Z M 227.6875 106.082031 C 229.3125 106.082031 229.769531 104.710938 229.769531 102.890625 C 229.769531 101.121094 229.3125 99.75 227.742188 99.75 C 226.117188 99.75 225.765625 101.21875 225.71875 102.941406 C 225.71875 104.765625 226.175781 106.082031 227.6875 106.082031 "/>
<path style=" stroke:none;fill-rule:nonzero;fill:rgb(0%,0%,0%);fill-opacity:1;" d="M 240.296875 98.027344 C 244.699219 97.980469 243.234375 103.75 243.492188 107.851562 L 240.960938 107.851562 C 240.601562 104.96875 242.121094 99.902344 239.238281 99.902344 C 236.25 99.902344 237.515625 104.816406 237.257812 107.851562 L 234.726562 107.851562 L 234.679688 98.230469 L 237.058594 98.230469 C 237.15625 98.839844 237.003906 99.648438 237.210938 100.152344 C 237.820312 98.839844 238.628906 98.078125 240.296875 98.027344 "/>
<path style=" stroke:none;fill-rule:nonzero;fill:rgb(0%,0%,0%);fill-opacity:1;" d="M 254.625 107.851562 L 253.511719 104.664062 L 248.753906 104.664062 L 247.640625 107.851562 L 245.003906 107.851562 L 249.5625 95.296875 L 252.65625 95.296875 L 257.210938 107.851562 Z M 252.957031 102.683594 L 251.132812 97.21875 C 250.628906 99.144531 249.914062 100.867188 249.304688 102.683594 L 252.957031 102.683594 "/>
<path style=" stroke:none;fill-rule:nonzero;fill:rgb(0%,0%,0%);fill-opacity:1;" d="M 264.5 98.027344 C 268.90625 97.980469 267.433594 103.75 267.6875 107.851562 L 265.15625 107.851562 C 264.804688 104.96875 266.320312 99.902344 263.4375 99.902344 C 260.449219 99.902344 261.714844 104.816406 261.464844 107.851562 L 258.925781 107.851562 L 258.878906 98.230469 L 261.257812 98.230469 C 261.359375 98.839844 261.210938 99.648438 261.410156 100.152344 C 262.019531 98.839844 262.828125 98.078125 264.5 98.027344 "/>
<path style=" stroke:none;fill-rule:nonzero;fill:rgb(0%,0%,0%);fill-opacity:1;" d="M 273.207031 98.027344 C 274.777344 97.980469 275.539062 98.789062 276.148438 99.75 L 276.089844 94.632812 L 278.621094 94.632812 L 278.679688 107.851562 L 276.242188 107.851562 C 276.148438 107.347656 276.242188 106.691406 276.089844 106.28125 C 275.539062 107.449219 274.625 108.058594 273.007812 108.058594 C 270.371094 108.058594 269.5625 105.777344 269.515625 103.042969 C 269.515625 100.207031 270.476562 98.132812 273.207031 98.027344 Z M 274.066406 106.335938 C 275.738281 106.335938 276.089844 104.816406 276.148438 102.988281 C 276.195312 101.121094 275.691406 99.75 274.066406 99.75 C 272.445312 99.75 272.140625 101.265625 272.09375 103.042969 C 272.09375 105.222656 272.75 106.335938 274.066406 106.335938 "/>
<path style=" stroke:none;fill-rule:nonzero;fill:rgb(0%,0%,0%);fill-opacity:1;" d="M 288.394531 98.636719 C 288.347656 96.460938 283.636719 96.308594 283.484375 98.484375 C 284.398438 101.828125 291.132812 98.992188 291.285156 104.253906 C 291.4375 109.070312 282.933594 108.964844 280.953125 106.082031 C 280.648438 105.671875 280.449219 105.121094 280.34375 104.558594 L 282.875 104.15625 C 283.027344 106.488281 288.546875 106.996094 288.753906 104.40625 C 287.890625 100.914062 281.152344 103.902344 280.953125 98.636719 C 280.753906 94.230469 288.699219 94.183594 290.46875 96.867188 C 290.726562 97.269531 290.878906 97.773438 290.980469 98.285156 "/>
<path style=" stroke:none;fill-rule:nonzero;fill:rgb(0%,0%,0%);fill-opacity:1;" d="M 301.355469 105.425781 C 300.699219 106.9375 299.488281 108.109375 297.207031 108.058594 C 294.167969 107.957031 292.703125 106.183594 292.703125 102.988281 C 292.703125 99.800781 294.21875 98.027344 297.253906 98.027344 C 300.394531 98.027344 301.457031 100.304688 301.507812 103.5 L 295.332031 103.5 C 295.332031 105.070312 295.738281 106.28125 297.308594 106.335938 C 298.222656 106.335938 298.824219 105.976562 299.03125 105.222656 Z M 299.078125 101.929688 C 299.335938 99.597656 296.195312 98.734375 295.539062 100.867188 C 295.433594 101.167969 295.332031 101.523438 295.332031 101.929688 L 299.078125 101.929688 "/>
<path style=" stroke:none;fill-rule:nonzero;fill:rgb(0%,0%,0%);fill-opacity:1;" d="M 308.957031 98.027344 C 313.359375 97.980469 311.886719 103.75 312.144531 107.851562 L 309.613281 107.851562 C 309.261719 104.96875 310.773438 99.902344 307.890625 99.902344 C 304.902344 99.902344 306.167969 104.816406 305.910156 107.851562 L 303.378906 107.851562 L 303.332031 98.230469 L 305.710938 98.230469 C 305.816406 98.839844 305.664062 99.648438 305.863281 100.152344 C 306.472656 98.839844 307.28125 98.078125 308.957031 98.027344 "/>
<path style=" stroke:none;fill-rule:nonzero;fill:rgb(0%,0%,0%);fill-opacity:1;" d="M 317.664062 98.027344 C 319.230469 97.980469 319.992188 98.789062 320.59375 99.75 L 320.546875 94.632812 L 323.078125 94.632812 L 323.125 107.851562 L 320.699219 107.851562 C 320.59375 107.347656 320.699219 106.691406 320.546875 106.28125 C 319.992188 107.449219 319.082031 108.058594 317.460938 108.058594 C 314.828125 108.058594 314.019531 105.777344 313.960938 103.042969 C 313.960938 100.207031 314.921875 98.132812 317.664062 98.027344 Z M 318.519531 106.335938 C 320.195312 106.335938 320.546875 104.816406 320.59375 102.988281 C 320.648438 101.121094 320.144531 99.75 318.519531 99.75 C 316.902344 99.75 316.597656 101.265625 316.550781 103.042969 C 316.550781 105.222656 317.207031 106.335938 318.519531 106.335938 "/>
<path style=" stroke:none;fill-rule:nonzero;fill:rgb(0%,0%,0%);fill-opacity:1;" d="M 331.183594 97.316406 L 331.183594 107.851562 L 328.546875 107.851562 L 328.546875 97.316406 L 324.496094 97.316406 L 324.496094 95.296875 L 335.226562 95.296875 L 335.226562 97.316406 L 331.183594 97.316406 "/>
<path style=" stroke:none;fill-rule:nonzero;fill:rgb(0%,0%,0%);fill-opacity:1;" d="M 341.203125 100.257812 C 339.234375 99.648438 338.167969 100.914062 338.167969 103.140625 L 338.167969 107.851562 L 335.636719 107.851562 L 335.582031 98.230469 L 337.96875 98.230469 C 338.0625 98.886719 337.910156 99.703125 338.113281 100.257812 C 338.414062 98.839844 339.480469 97.574219 341.203125 98.179688 L 341.203125 100.257812 "/>
<path style=" stroke:none;fill-rule:nonzero;fill:rgb(0%,0%,0%);fill-opacity:1;" d="M 348.1875 106.128906 C 347.378906 107.089844 346.675781 108.109375 344.953125 108.058594 C 343.078125 108.003906 342.011719 107.042969 342.011719 105.121094 C 341.964844 102.082031 344.800781 101.929688 347.882812 102.027344 C 347.941406 100.714844 347.730469 99.648438 346.464844 99.648438 C 345.5625 99.703125 345.152344 100.105469 345.046875 101.015625 L 342.421875 100.914062 C 342.773438 98.992188 344.238281 97.980469 346.570312 98.027344 C 348.902344 98.078125 350.320312 99.144531 350.367188 101.472656 L 350.414062 105.625 C 350.367188 106.335938 351.023438 106.539062 351.6875 106.386719 L 351.6875 107.753906 C 350.167969 108.15625 348.09375 108.003906 348.1875 106.128906 Z M 345.761719 106.28125 C 347.226562 106.28125 347.941406 105.070312 347.882812 103.398438 C 346.265625 103.398438 344.542969 103.246094 344.597656 104.917969 C 344.597656 105.777344 345 106.28125 345.761719 106.28125 "/>
<path style=" stroke:none;fill-rule:nonzero;fill:rgb(0%,0%,0%);fill-opacity:1;" d="M 358.417969 98.027344 C 362.820312 97.980469 361.355469 103.75 361.605469 107.851562 L 359.074219 107.851562 C 358.722656 104.96875 360.242188 99.902344 357.351562 99.902344 C 354.371094 99.902344 355.636719 104.816406 355.378906 107.851562 L 352.851562 107.851562 L 352.800781 98.230469 L 355.179688 98.230469 C 355.277344 98.839844 355.125 99.648438 355.332031 100.152344 C 355.933594 98.839844 356.75 98.078125 358.417969 98.027344 "/>
<path style=" stroke:none;fill-rule:nonzero;fill:rgb(0%,0%,0%);fill-opacity:1;" d="M 369.605469 100.867188 C 369.65625 99.398438 366.066406 99.144531 366.011719 100.664062 C 366.769531 102.988281 371.984375 101.015625 372.042969 105.015625 C 372.089844 109.222656 363.734375 108.867188 363.328125 105.472656 L 365.503906 105.121094 C 365.707031 106.082031 366.523438 106.386719 367.730469 106.386719 C 369.40625 106.785156 370.625 104.863281 368.949219 104.308594 C 366.769531 103.597656 363.78125 103.75 363.6875 100.96875 C 363.582031 96.914062 371.480469 97.21875 371.832031 100.609375 "/>
<path style=" stroke:none;fill-rule:nonzero;fill:rgb(0%,0%,0%);fill-opacity:1;" d="M 379.53125 106.128906 C 378.722656 107.089844 378.007812 108.109375 376.292969 108.058594 C 374.421875 108.003906 373.355469 107.042969 373.355469 105.121094 C 373.308594 102.082031 376.140625 101.929688 379.226562 102.027344 C 379.273438 100.714844 379.074219 99.648438 377.808594 99.648438 C 376.894531 99.703125 376.496094 100.105469 376.390625 101.015625 L 373.753906 100.914062 C 374.117188 98.992188 375.582031 97.980469 377.914062 98.027344 C 380.242188 98.078125 381.660156 99.144531 381.710938 101.472656 L 381.757812 105.625 C 381.710938 106.335938 382.367188 106.539062 383.023438 106.386719 L 383.023438 107.753906 C 381.507812 108.15625 379.425781 108.003906 379.53125 106.128906 Z M 377.101562 106.28125 C 378.570312 106.28125 379.273438 105.070312 379.226562 103.398438 C 377.609375 103.398438 375.886719 103.246094 375.933594 104.917969 C 375.933594 105.777344 376.34375 106.28125 377.101562 106.28125 "/>
<path style=" stroke:none;fill-rule:nonzero;fill:rgb(0%,0%,0%);fill-opacity:1;" d="M 392.546875 104.664062 C 392.1875 106.785156 390.617188 108.058594 388.1875 108.058594 C 385.203125 108.058594 383.9375 106.128906 383.632812 103.09375 C 383.023438 97.523438 391.425781 96.15625 392.441406 101.265625 L 389.960938 101.371094 C 389.863281 100.410156 389.199219 99.75 388.1875 99.75 C 386.667969 99.75 386.417969 101.167969 386.265625 102.988281 C 385.960938 106.738281 389.558594 107.394531 390.007812 104.511719 "/>
<path style=" stroke:none;fill-rule:nonzero;fill:rgb(0%,0%,0%);fill-opacity:1;" d="M 398.875 107.699219 C 397.046875 108.414062 394.46875 108.058594 394.46875 105.574219 L 394.46875 99.902344 L 393.25 99.902344 L 393.25 98.230469 L 394.621094 98.230469 L 395.382812 95.953125 L 396.945312 95.953125 L 396.945312 98.230469 L 398.769531 98.230469 L 398.769531 99.902344 L 396.945312 99.902344 L 396.945312 104.917969 C 396.894531 106.082031 397.761719 106.488281 398.875 106.183594 L 398.875 107.699219 "/>
<path style=" stroke:none;fill-rule:nonzero;fill:rgb(0%,0%,0%);fill-opacity:1;" d="M 400.339844 96.507812 L 400.339844 94.632812 L 402.871094 94.632812 L 402.871094 96.507812 Z M 400.339844 107.851562 L 400.339844 98.230469 L 402.871094 98.230469 L 402.871094 107.851562 L 400.339844 107.851562 "/>
<path style=" stroke:none;fill-rule:nonzero;fill:rgb(0%,0%,0%);fill-opacity:1;" d="M 409.703125 98.027344 C 412.949219 98.027344 414.566406 99.855469 414.566406 103.042969 C 414.566406 106.28125 412.796875 108.058594 409.65625 108.058594 C 406.5625 108.058594 404.847656 106.234375 404.847656 103.042969 C 404.847656 99.902344 406.5625 98.027344 409.703125 98.027344 Z M 409.65625 106.335938 C 411.425781 106.335938 411.929688 104.917969 411.929688 103.042969 C 411.929688 101.015625 411.425781 99.75 409.757812 99.75 C 408.039062 99.75 407.476562 101.066406 407.476562 103.042969 C 407.476562 104.863281 407.980469 106.335938 409.65625 106.335938 "/>
<path style=" stroke:none;fill-rule:nonzero;fill:rgb(0%,0%,0%);fill-opacity:1;" d="M 422.0625 98.027344 C 426.46875 97.980469 424.996094 103.75 425.25 107.851562 L 422.71875 107.851562 C 422.367188 104.96875 423.882812 99.902344 420.996094 99.902344 C 418.007812 99.902344 419.273438 104.816406 419.019531 107.851562 L 416.488281 107.851562 L 416.441406 98.230469 L 418.820312 98.230469 C 418.921875 98.839844 418.769531 99.648438 418.972656 100.152344 C 419.578125 98.839844 420.386719 98.078125 422.0625 98.027344 "/>
<path style=" stroke:none;fill-rule:nonzero;fill:rgb(0%,0%,0%);fill-opacity:1;" d="M 429.703125 103.140625 C 429.703125 106.890625 430.816406 109.375 432.386719 111.648438 L 429.855469 111.648438 C 428.335938 109.375 427.222656 106.9375 427.222656 103.140625 C 427.222656 99.34375 428.335938 96.914062 429.855469 94.632812 L 432.386719 94.632812 C 430.769531 96.867188 429.703125 99.398438 429.703125 103.140625 "/>
<path style=" stroke:none;fill-rule:nonzero;fill:rgb(0%,0%,0%);fill-opacity:1;" d="M 438.164062 107.699219 C 436.335938 108.414062 433.757812 108.058594 433.757812 105.574219 L 433.757812 99.902344 L 432.539062 99.902344 L 432.539062 98.230469 L 433.910156 98.230469 L 434.671875 95.953125 L 436.238281 95.953125 L 436.238281 98.230469 L 438.058594 98.230469 L 438.058594 99.902344 L 436.238281 99.902344 L 436.238281 104.917969 C 436.183594 106.082031 437.050781 106.488281 438.164062 106.183594 L 438.164062 107.699219 "/>
<path style=" stroke:none;fill-rule:nonzero;fill:rgb(0%,0%,0%);fill-opacity:1;" d="M 445.652344 107.851562 L 443.425781 104.359375 L 441.148438 107.851562 L 438.46875 107.851562 L 442.007812 102.890625 L 438.667969 98.230469 L 441.351562 98.230469 L 443.425781 101.371094 L 445.453125 98.230469 L 448.183594 98.230469 L 444.792969 102.835938 L 448.390625 107.851562 L 445.652344 107.851562 "/>
<path style=" stroke:none;fill-rule:nonzero;fill:rgb(0%,0%,0%);fill-opacity:1;" d="M 453.652344 103.140625 C 453.652344 106.890625 452.539062 109.375 451.019531 111.648438 L 448.488281 111.648438 C 450.007812 109.324219 451.226562 106.9375 451.171875 103.140625 C 451.171875 99.398438 450.058594 96.914062 448.488281 94.632812 L 451.019531 94.632812 C 452.539062 96.914062 453.652344 99.398438 453.652344 103.140625 "/>
<path style="fill:none;stroke-width:1;stroke-linecap:butt;stroke-linejoin:miter;stroke:rgb(22.745098%,25.490196%,29.019608%);stroke-opacity:1;stroke-miterlimit:4;" d="M 1656.99929 606.979704 L 1703.102304 606.979704 " transform="matrix(2.05052,0,0,2.050955,-2427.81575,-1076.751592)"/>
<path style="fill-rule:nonzero;fill:rgb(22.745098%,25.490196%,29.019608%);fill-opacity:1;stroke-width:0.05;stroke-linecap:butt;stroke-linejoin:miter;stroke:rgb(22.745098%,25.490196%,29.019608%);stroke-opacity:1;stroke-miterlimit:4;" d="M 1657.020245 607.480614 L 1656.441123 607.480614 L 1656.500178 606.979704 L 1656.441123 606.480699 L 1657.020245 606.480699 Z M 1657.020245 607.480614 " transform="matrix(2.05052,0,0,2.050955,-2427.81575,-1076.751592)"/>
<path style="fill-rule:nonzero;fill:rgb(22.745098%,25.490196%,29.019608%);fill-opacity:1;stroke-width:1;stroke-linecap:butt;stroke-linejoin:miter;stroke:rgb(22.745098%,25.490196%,29.019608%);stroke-opacity:1;stroke-miterlimit:4;" d="M 1717.879424 606.979704 L 1703.609035 611.609787 L 1703.609035 602.359145 Z M 1717.879424 606.979704 " transform="matrix(2.05052,0,0,2.050955,-2427.81575,-1076.751592)"/>
<path style="fill:none;stroke-width:1;stroke-linecap:butt;stroke-linejoin:miter;stroke:rgb(0%,0%,0%);stroke-opacity:1;stroke-miterlimit:4;" d="M 1297.69829 618.801558 L 1415.49996 618.801558 " transform="matrix(2.05052,0,0,2.050955,-2427.81575,-1076.751592)"/>
<path style="fill-rule:nonzero;fill:rgb(0%,0%,0%);fill-opacity:1;stroke-width:1;stroke-linecap:butt;stroke-linejoin:miter;stroke:rgb(0%,0%,0%);stroke-opacity:1;stroke-miterlimit:4;" d="M 1282.92879 618.801558 L 1297.191559 614.171475 L 1297.191559 623.441164 Z M 1282.92879 618.801558 " transform="matrix(2.05052,0,0,2.050955,-2427.81575,-1076.751592)"/>
<path style="fill:none;stroke-width:1;stroke-linecap:butt;stroke-linejoin:miter;stroke:rgb(0%,0%,0%);stroke-opacity:1;stroke-miterlimit:4;" d="M 1415.49996 618.801558 L 1415.999072 618.801558 " transform="matrix(2.05052,0,0,2.050955,-2427.81575,-1076.751592)"/>
<path style=" stroke:none;fill-rule:nonzero;fill:rgb(0%,0%,0%);fill-opacity:1;" d="M 284.820312 207.585938 C 282.84375 206.976562 281.777344 208.242188 281.777344 210.472656 L 281.777344 215.183594 L 279.246094 215.183594 L 279.199219 205.558594 L 281.578125 205.558594 C 281.683594 206.21875 281.53125 207.027344 281.730469 207.585938 C 282.035156 206.167969 283.101562 204.902344 284.820312 205.503906 L 284.820312 207.585938 "/>
<path style=" stroke:none;fill-rule:nonzero;fill:rgb(0%,0%,0%);fill-opacity:1;" d="M 291.910156 205.351562 C 294.59375 205.351562 295.449219 207.585938 295.449219 210.320312 C 295.449219 213.15625 294.488281 215.277344 291.757812 215.382812 C 290.1875 215.429688 289.476562 214.523438 288.769531 213.660156 C 288.921875 215.335938 288.867188 217.152344 288.867188 218.980469 L 286.335938 218.980469 L 286.289062 205.558594 L 288.714844 205.558594 C 288.820312 206.066406 288.714844 206.722656 288.867188 207.128906 C 289.425781 205.914062 290.339844 205.351562 291.910156 205.351562 Z M 290.84375 213.660156 C 292.519531 213.660156 292.816406 212.089844 292.871094 210.320312 C 292.871094 208.394531 292.414062 207.074219 290.84375 207.074219 C 288.011719 207.074219 288.058594 213.660156 290.84375 213.660156 "/>
<path style=" stroke:none;fill-rule:nonzero;fill:rgb(0%,0%,0%);fill-opacity:1;" d="M 305.785156 211.984375 C 305.421875 214.117188 303.851562 215.382812 301.425781 215.382812 C 298.4375 215.382812 297.171875 213.460938 296.867188 210.421875 C 296.261719 204.847656 304.671875 203.484375 305.679688 208.597656 L 303.195312 208.699219 C 303.101562 207.738281 302.4375 207.074219 301.425781 207.074219 C 299.90625 207.074219 299.65625 208.492188 299.503906 210.320312 C 299.199219 214.070312 302.796875 214.726562 303.253906 211.839844 "/>
<path style=" stroke:none;fill-rule:nonzero;fill:rgb(0%,0%,0%);fill-opacity:1;" d="M 306.089844 217.410156 L 306.089844 216.695312 L 316.566406 216.695312 L 316.566406 217.410156 L 306.089844 217.410156 "/>
<path style=" stroke:none;fill-rule:nonzero;fill:rgb(0%,0%,0%);fill-opacity:1;" d="M 323.246094 207.585938 C 321.273438 206.976562 320.210938 208.242188 320.210938 210.472656 L 320.210938 215.183594 L 317.679688 215.183594 L 317.628906 205.558594 L 320.007812 205.558594 C 320.105469 206.21875 319.953125 207.027344 320.160156 207.585938 C 320.464844 206.167969 321.523438 204.902344 323.246094 205.503906 L 323.246094 207.585938 "/>
<path style=" stroke:none;fill-rule:nonzero;fill:rgb(0%,0%,0%);fill-opacity:1;" d="M 332.863281 212.746094 C 332.207031 214.269531 330.992188 215.429688 328.714844 215.382812 C 325.679688 215.277344 324.207031 213.507812 324.207031 210.320312 C 324.207031 207.128906 325.726562 205.351562 328.765625 205.351562 C 331.902344 205.351562 332.96875 207.636719 333.015625 210.824219 L 326.839844 210.824219 C 326.839844 212.394531 327.25 213.613281 328.820312 213.660156 C 329.726562 213.660156 330.332031 213.308594 330.542969 212.546875 Z M 330.589844 209.253906 C 330.847656 206.921875 327.707031 206.066406 327.042969 208.1875 C 326.945312 208.492188 326.839844 208.851562 326.839844 209.253906 L 330.589844 209.253906 "/>
<path style=" stroke:none;fill-rule:nonzero;fill:rgb(0%,0%,0%);fill-opacity:1;" d="M 340.5625 208.1875 C 340.609375 206.722656 337.023438 206.464844 336.964844 207.988281 C 337.726562 210.320312 342.941406 208.339844 342.996094 212.347656 C 343.046875 216.542969 334.691406 216.191406 334.28125 212.800781 L 336.460938 212.441406 C 336.660156 213.402344 337.480469 213.707031 338.6875 213.707031 C 340.363281 214.117188 341.578125 212.195312 339.90625 211.632812 C 337.726562 210.929688 334.738281 211.082031 334.644531 208.292969 C 334.539062 204.238281 342.4375 204.542969 342.789062 207.941406 "/>
<path style=" stroke:none;fill-rule:nonzero;fill:rgb(0%,0%,0%);fill-opacity:1;" d="M 350.589844 205.351562 C 353.273438 205.351562 354.132812 207.585938 354.132812 210.320312 C 354.132812 213.15625 353.171875 215.277344 350.4375 215.382812 C 348.867188 215.429688 348.15625 214.523438 347.449219 213.660156 C 347.601562 215.335938 347.546875 217.152344 347.546875 218.980469 L 345.015625 218.980469 L 344.96875 205.558594 L 347.394531 205.558594 C 347.5 206.066406 347.394531 206.722656 347.546875 207.128906 C 348.109375 205.914062 349.019531 205.351562 350.589844 205.351562 Z M 349.527344 213.660156 C 351.199219 213.660156 351.496094 212.089844 351.550781 210.320312 C 351.550781 208.394531 351.09375 207.074219 349.527344 207.074219 C 346.691406 207.074219 346.738281 213.660156 349.527344 213.660156 "/>
<path style=" stroke:none;fill-rule:nonzero;fill:rgb(0%,0%,0%);fill-opacity:1;" d="M 360.410156 205.351562 C 363.65625 205.351562 365.273438 207.179688 365.273438 210.367188 C 365.273438 213.613281 363.503906 215.382812 360.363281 215.382812 C 357.269531 215.382812 355.550781 213.554688 355.550781 210.367188 C 355.550781 207.226562 357.269531 205.351562 360.410156 205.351562 Z M 360.363281 213.660156 C 362.132812 213.660156 362.636719 212.242188 362.636719 210.367188 C 362.636719 208.339844 362.132812 207.074219 360.460938 207.074219 C 358.738281 207.074219 358.183594 208.394531 358.183594 210.367188 C 358.183594 212.195312 358.6875 213.660156 360.363281 213.660156 "/>
<path style=" stroke:none;fill-rule:nonzero;fill:rgb(0%,0%,0%);fill-opacity:1;" d="M 372.761719 205.351562 C 377.167969 205.304688 375.703125 211.082031 375.957031 215.183594 L 373.417969 215.183594 C 373.066406 212.289062 374.589844 207.226562 371.703125 207.226562 C 368.71875 207.226562 369.984375 212.136719 369.726562 215.183594 L 367.195312 215.183594 L 367.148438 205.558594 L 369.527344 205.558594 C 369.621094 206.167969 369.46875 206.976562 369.679688 207.484375 C 370.285156 206.167969 371.097656 205.40625 372.761719 205.351562 "/>
<path style=" stroke:none;fill-rule:nonzero;fill:rgb(0%,0%,0%);fill-opacity:1;" d="M 383.953125 208.1875 C 384.007812 206.722656 380.410156 206.464844 380.355469 207.988281 C 381.117188 210.320312 386.332031 208.339844 386.386719 212.347656 C 386.433594 216.542969 378.082031 216.191406 377.671875 212.800781 L 379.851562 212.441406 C 380.058594 213.402344 380.867188 213.707031 382.078125 213.707031 C 383.75 214.117188 384.96875 212.195312 383.296875 211.632812 C 381.117188 210.929688 378.128906 211.082031 378.03125 208.292969 C 377.929688 204.238281 385.828125 204.542969 386.179688 207.941406 "/>
<path style=" stroke:none;fill-rule:nonzero;fill:rgb(0%,0%,0%);fill-opacity:1;" d="M 396.511719 212.746094 C 395.855469 214.269531 394.636719 215.429688 392.363281 215.382812 C 389.320312 215.277344 387.851562 213.507812 387.851562 210.320312 C 387.851562 207.128906 389.375 205.351562 392.410156 205.351562 C 395.550781 205.351562 396.609375 207.636719 396.664062 210.824219 L 390.488281 210.824219 C 390.488281 212.394531 390.886719 213.613281 392.457031 213.660156 C 393.371094 213.660156 393.980469 213.308594 394.179688 212.546875 Z M 394.226562 209.253906 C 394.484375 206.921875 391.34375 206.066406 390.6875 208.1875 C 390.585938 208.492188 390.488281 208.851562 390.488281 209.253906 L 394.226562 209.253906 "/>
<path style="fill-rule:nonzero;fill:rgb(95.686275%,85.098039%,100%);fill-opacity:1;stroke-width:1;stroke-linecap:butt;stroke-linejoin:miter;stroke:rgb(22.745098%,25.490196%,29.019608%);stroke-opacity:1;stroke-miterlimit:4;" d="M 1441.897608 564.280474 C 1443.008226 563.15676 1444.518894 562.522528 1446.101953 562.522528 C 1447.679297 562.522528 1449.19187 563.15676 1450.300583 564.280474 L 1488.000623 602.700068 C 1490.339968 605.075104 1490.339968 608.886209 1488.000623 611.261246 L 1450.300583 649.678935 C 1449.19187 650.804554 1447.679297 651.436881 1446.101953 651.436881 C 1444.518894 651.436881 1443.008226 650.804554 1441.897608 649.678935 L 1404.199474 611.261246 C 1401.863938 608.886209 1401.863938 605.075104 1404.199474 602.700068 Z M 1441.897608 564.280474 " transform="matrix(2.05052,0,0,2.050955,-2427.81575,-1076.751592)"/>
<path style=" stroke:none;fill-rule:nonzero;fill:rgb(22.745098%,25.490196%,29.019608%);fill-opacity:1;" d="M 520.078125 173.90625 L 517.042969 173.90625 L 512.789062 157.957031 L 508.617188 173.90625 L 505.582031 173.90625 L 500.03125 155.0625 L 502.691406 155.0625 L 507.175781 171.625 L 508.3125 166.761719 L 511.582031 155.0625 L 514.007812 155.0625 L 518.484375 171.625 L 522.972656 155.0625 L 525.628906 155.0625 "/>
<path style=" stroke:none;fill-rule:nonzero;fill:rgb(22.745098%,25.490196%,29.019608%);fill-opacity:1;" d="M 535.347656 171.167969 C 534.207031 172.761719 532.992188 174.28125 530.1875 174.210938 C 527.449219 174.132812 525.78125 172.609375 525.78125 169.875 C 525.703125 165.015625 530.5625 165.09375 535.273438 165.09375 C 535.5 162.433594 534.585938 160.992188 532.15625 160.992188 C 530.332031 161.0625 529.042969 161.519531 528.96875 163.347656 L 526.464844 163.113281 C 526.839844 160.304688 528.96875 159.164062 532.238281 159.164062 C 535.648438 159.164062 537.699219 160.6875 537.699219 164.027344 L 537.699219 170.261719 C 537.628906 171.777344 538.238281 172.6875 539.832031 172.3125 L 539.832031 173.828125 C 537.476562 174.515625 535.195312 173.675781 535.347656 171.167969 Z M 528.28125 169.875 C 528.28125 171.398438 529.195312 172.382812 530.714844 172.382812 C 533.832031 172.160156 535.5 170.179688 535.273438 166.761719 C 532.003906 166.914062 528.28125 166.382812 528.28125 169.875 "/>
<path style=" stroke:none;fill-rule:nonzero;fill:rgb(22.745098%,25.490196%,29.019608%);fill-opacity:1;" d="M 541.648438 173.90625 L 541.648438 154.078125 L 544.085938 154.078125 L 544.085938 173.90625 L 541.648438 173.90625 "/>
<path style=" stroke:none;fill-rule:nonzero;fill:rgb(22.745098%,25.490196%,29.019608%);fill-opacity:1;" d="M 547.648438 173.90625 L 547.648438 154.078125 L 550.085938 154.078125 L 550.085938 173.90625 L 547.648438 173.90625 "/>
<path style=" stroke:none;fill-rule:nonzero;fill:rgb(22.745098%,25.490196%,29.019608%);fill-opacity:1;" d="M 559.421875 159.164062 C 564.207031 159.164062 565.953125 162.355469 565.800781 167.21875 L 555.546875 167.21875 C 555.546875 170.261719 556.613281 172.3125 559.574219 172.382812 C 561.546875 172.464844 562.84375 171.472656 563.292969 170.179688 L 565.421875 170.789062 C 564.589844 172.914062 562.613281 174.210938 559.574219 174.210938 C 555.171875 174.210938 552.886719 171.398438 552.96875 166.609375 C 553.039062 161.976562 554.9375 159.164062 559.421875 159.164062 Z M 563.371094 165.316406 C 563.828125 160.757812 557.597656 159.46875 556.003906 163.195312 C 555.777344 163.722656 555.546875 164.484375 555.546875 165.316406 L 563.371094 165.316406 "/>
<path style=" stroke:none;fill-rule:nonzero;fill:rgb(22.745098%,25.490196%,29.019608%);fill-opacity:1;" d="M 571.496094 170.332031 C 571.34375 172.160156 572.863281 172.535156 574.386719 172.007812 L 574.386719 173.828125 C 571.878906 174.585938 569.066406 174.210938 569.066406 170.863281 L 569.066406 161.214844 L 567.394531 161.214844 L 567.394531 159.46875 L 569.21875 159.46875 L 569.902344 156.199219 L 571.496094 156.199219 L 571.496094 159.46875 L 574.152344 159.46875 L 574.152344 161.214844 L 571.496094 161.214844 L 571.496094 170.332031 "/>
<path style="fill:none;stroke-width:1;stroke-linecap:butt;stroke-linejoin:miter;stroke:rgb(0%,0%,0%);stroke-opacity:1;stroke-miterlimit:4;" d="M 1482.218934 595.57115 L 1566.999256 595.57115 " transform="matrix(2.05052,0,0,2.050955,-2427.81575,-1076.751592)"/>
<path style="fill-rule:nonzero;fill:rgb(0%,0%,0%);fill-opacity:1;stroke-width:0.05;stroke-linecap:butt;stroke-linejoin:miter;stroke:rgb(0%,0%,0%);stroke-opacity:1;stroke-miterlimit:4;" d="M 1482.230364 596.070155 L 1482.211314 596.070155 L 1481.237857 595.07024 L 1482.237984 595.07024 Z M 1482.230364 596.070155 " transform="matrix(2.05052,0,0,2.050955,-2427.81575,-1076.751592)"/>
<path style="fill-rule:nonzero;fill:rgb(0%,0%,0%);fill-opacity:1;stroke-width:1;stroke-linecap:butt;stroke-linejoin:miter;stroke:rgb(0%,0%,0%);stroke-opacity:1;stroke-miterlimit:4;" d="M 1581.761136 595.57115 L 1567.488842 600.210756 L 1567.488842 590.948685 Z M 1581.761136 595.57115 " transform="matrix(2.05052,0,0,2.050955,-2427.81575,-1076.751592)"/>
<path style=" stroke:none;fill-rule:nonzero;fill:rgb(0%,0%,0%);fill-opacity:1;" d="M 600.960938 112.746094 C 601.019531 111.28125 597.421875 111.023438 597.375 112.546875 C 598.128906 114.878906 603.339844 112.898438 603.398438 116.90625 C 603.445312 121.101562 595.089844 120.75 594.691406 117.359375 L 596.863281 117 C 597.070312 117.960938 597.878906 118.265625 599.089844 118.265625 C 600.761719 118.675781 601.980469 116.753906 600.304688 116.191406 C 598.128906 115.488281 595.140625 115.636719 595.042969 112.851562 C 594.9375 108.796875 602.835938 109.101562 603.1875 112.5 "/>
<path style=" stroke:none;fill-rule:nonzero;fill:rgb(0%,0%,0%);fill-opacity:1;" d="M 613.523438 117.304688 C 612.863281 118.828125 611.648438 119.988281 609.371094 119.941406 C 606.328125 119.835938 604.863281 118.066406 604.863281 114.878906 C 604.863281 111.6875 606.386719 109.910156 609.421875 109.910156 C 612.5625 109.910156 613.625 112.195312 613.675781 115.382812 L 607.5 115.382812 C 607.5 116.953125 607.898438 118.171875 609.46875 118.21875 C 610.382812 118.21875 610.992188 117.867188 611.191406 117.105469 Z M 611.246094 113.8125 C 611.496094 111.480469 608.355469 110.625 607.699219 112.746094 C 607.59375 113.050781 607.5 113.410156 607.5 113.8125 L 611.246094 113.8125 "/>
<path style=" stroke:none;fill-rule:nonzero;fill:rgb(0%,0%,0%);fill-opacity:1;" d="M 621.117188 109.910156 C 625.519531 109.863281 624.054688 115.636719 624.304688 119.742188 L 621.773438 119.742188 C 621.417969 116.847656 622.941406 111.785156 620.050781 111.785156 C 617.0625 111.785156 618.328125 116.695312 618.078125 119.742188 L 615.546875 119.742188 L 615.492188 110.117188 L 617.878906 110.117188 C 617.976562 110.71875 617.824219 111.535156 618.03125 112.042969 C 618.632812 110.71875 619.449219 109.964844 621.117188 109.910156 "/>
<path style=" stroke:none;fill-rule:nonzero;fill:rgb(0%,0%,0%);fill-opacity:1;" d="M 629.820312 109.910156 C 631.390625 109.863281 632.152344 110.671875 632.761719 111.632812 L 632.714844 106.523438 L 635.246094 106.523438 L 635.292969 119.742188 L 632.867188 119.742188 C 632.761719 119.226562 632.867188 118.570312 632.714844 118.171875 C 632.152344 119.332031 631.238281 119.941406 629.621094 119.941406 C 626.988281 119.941406 626.175781 117.65625 626.128906 114.925781 C 626.128906 112.089844 627.089844 110.015625 629.820312 109.910156 Z M 630.6875 118.21875 C 632.351562 118.21875 632.714844 116.695312 632.761719 114.878906 C 632.808594 113.003906 632.304688 111.632812 630.6875 111.632812 C 629.070312 111.632812 628.765625 113.15625 628.707031 114.925781 C 628.707031 117.105469 629.367188 118.21875 630.6875 118.21875 "/>
<path style=" stroke:none;fill-rule:nonzero;fill:rgb(0%,0%,0%);fill-opacity:1;" d="M 643.34375 109.207031 L 643.34375 119.742188 L 640.707031 119.742188 L 640.707031 109.207031 L 636.664062 109.207031 L 636.664062 107.179688 L 647.394531 107.179688 L 647.394531 109.207031 L 643.34375 109.207031 "/>
<path style=" stroke:none;fill-rule:nonzero;fill:rgb(0%,0%,0%);fill-opacity:1;" d="M 653.371094 112.136719 C 651.390625 111.535156 650.328125 112.800781 650.328125 115.03125 L 650.328125 119.742188 L 647.796875 119.742188 L 647.75 110.117188 L 650.128906 110.117188 C 650.230469 110.777344 650.078125 111.585938 650.277344 112.136719 C 650.582031 110.71875 651.648438 109.453125 653.371094 110.0625 L 653.371094 112.136719 "/>
<path style=" stroke:none;fill-rule:nonzero;fill:rgb(0%,0%,0%);fill-opacity:1;" d="M 660.355469 118.019531 C 659.546875 118.980469 658.832031 119.988281 657.113281 119.941406 C 655.238281 119.894531 654.179688 118.921875 654.179688 117 C 654.125 113.964844 656.960938 113.8125 660.050781 113.917969 C 660.097656 112.59375 659.898438 111.535156 658.632812 111.535156 C 657.71875 111.585938 657.320312 111.992188 657.214844 112.898438 L 654.582031 112.800781 C 654.941406 110.871094 656.40625 109.863281 658.738281 109.910156 C 661.058594 109.964844 662.476562 111.023438 662.535156 113.355469 L 662.582031 117.511719 C 662.535156 118.21875 663.191406 118.417969 663.847656 118.265625 L 663.847656 119.636719 C 662.324219 120.046875 660.25 119.894531 660.355469 118.019531 Z M 657.921875 118.171875 C 659.394531 118.171875 660.097656 116.953125 660.050781 115.277344 C 658.433594 115.277344 656.710938 115.125 656.757812 116.800781 C 656.757812 117.65625 657.167969 118.171875 657.921875 118.171875 "/>
<path style=" stroke:none;fill-rule:nonzero;fill:rgb(0%,0%,0%);fill-opacity:1;" d="M 670.585938 109.910156 C 674.988281 109.863281 673.515625 115.636719 673.773438 119.742188 L 671.242188 119.742188 C 670.886719 116.847656 672.402344 111.785156 669.519531 111.785156 C 666.53125 111.785156 667.796875 116.695312 667.539062 119.742188 L 665.007812 119.742188 L 664.960938 110.117188 L 667.339844 110.117188 C 667.445312 110.71875 667.292969 111.535156 667.492188 112.042969 C 668.101562 110.71875 668.910156 109.964844 670.585938 109.910156 "/>
<path style=" stroke:none;fill-rule:nonzero;fill:rgb(0%,0%,0%);fill-opacity:1;" d="M 681.773438 112.746094 C 681.820312 111.28125 678.226562 111.023438 678.175781 112.546875 C 678.9375 114.878906 684.152344 112.898438 684.199219 116.90625 C 684.25 121.101562 675.894531 120.75 675.496094 117.359375 L 677.671875 117 C 677.875 117.960938 678.683594 118.265625 679.898438 118.265625 C 681.566406 118.675781 682.78125 116.753906 681.109375 116.191406 C 678.9375 115.488281 675.949219 115.636719 675.847656 112.851562 C 675.742188 108.796875 683.648438 109.101562 684 112.5 "/>
<path style=" stroke:none;fill-rule:nonzero;fill:rgb(0%,0%,0%);fill-opacity:1;" d="M 691.699219 118.019531 C 690.882812 118.980469 690.175781 119.988281 688.453125 119.941406 C 686.578125 119.894531 685.515625 118.921875 685.515625 117 C 685.464844 113.964844 688.300781 113.8125 691.394531 113.917969 C 691.441406 112.59375 691.242188 111.535156 689.976562 111.535156 C 689.0625 111.585938 688.65625 111.992188 688.558594 112.898438 L 685.921875 112.800781 C 686.277344 110.871094 687.75 109.863281 690.070312 109.910156 C 692.402344 109.964844 693.820312 111.023438 693.867188 113.355469 L 693.925781 117.511719 C 693.867188 118.21875 694.535156 118.417969 695.191406 118.265625 L 695.191406 119.636719 C 693.667969 120.046875 691.59375 119.894531 691.699219 118.019531 Z M 689.261719 118.171875 C 690.730469 118.171875 691.441406 116.953125 691.394531 115.277344 C 689.769531 115.277344 688.046875 115.125 688.101562 116.800781 C 688.101562 117.65625 688.503906 118.171875 689.261719 118.171875 "/>
<path style=" stroke:none;fill-rule:nonzero;fill:rgb(0%,0%,0%);fill-opacity:1;" d="M 704.707031 116.542969 C 704.355469 118.675781 702.785156 119.941406 700.347656 119.941406 C 697.367188 119.941406 696.101562 118.019531 695.800781 114.972656 C 695.191406 109.40625 703.59375 108.035156 704.601562 113.15625 L 702.125 113.257812 C 702.023438 112.289062 701.367188 111.632812 700.347656 111.632812 C 698.835938 111.632812 698.578125 113.050781 698.425781 114.878906 C 698.121094 118.625 701.71875 119.285156 702.175781 116.390625 "/>
<path style=" stroke:none;fill-rule:nonzero;fill:rgb(0%,0%,0%);fill-opacity:1;" d="M 711.035156 119.589844 C 709.214844 120.292969 706.628906 119.941406 706.628906 117.457031 L 706.628906 111.785156 L 705.417969 111.785156 L 705.417969 110.117188 L 706.78125 110.117188 L 707.542969 107.835938 L 709.113281 107.835938 L 709.113281 110.117188 L 710.9375 110.117188 L 710.9375 111.785156 L 709.113281 111.785156 L 709.113281 116.800781 C 709.0625 117.960938 709.921875 118.371094 711.035156 118.066406 L 711.035156 119.589844 "/>
<path style=" stroke:none;fill-rule:nonzero;fill:rgb(0%,0%,0%);fill-opacity:1;" d="M 712.507812 108.394531 L 712.507812 106.523438 L 715.039062 106.523438 L 715.039062 108.394531 Z M 712.507812 119.742188 L 712.507812 110.117188 L 715.039062 110.117188 L 715.039062 119.742188 L 712.507812 119.742188 "/>
<path style=" stroke:none;fill-rule:nonzero;fill:rgb(0%,0%,0%);fill-opacity:1;" d="M 721.871094 109.910156 C 725.105469 109.910156 726.734375 111.738281 726.734375 114.925781 C 726.734375 118.171875 724.953125 119.941406 721.824219 119.941406 C 718.730469 119.941406 717.007812 118.113281 717.007812 114.925781 C 717.007812 111.785156 718.730469 109.910156 721.871094 109.910156 Z M 721.824219 118.21875 C 723.59375 118.21875 724.097656 116.800781 724.097656 114.925781 C 724.097656 112.898438 723.59375 111.632812 721.917969 111.632812 C 720.195312 111.632812 719.644531 112.953125 719.644531 114.925781 C 719.644531 116.753906 720.148438 118.21875 721.824219 118.21875 "/>
<path style=" stroke:none;fill-rule:nonzero;fill:rgb(0%,0%,0%);fill-opacity:1;" d="M 734.222656 109.910156 C 738.628906 109.863281 737.160156 115.636719 737.410156 119.742188 L 734.878906 119.742188 C 734.527344 116.847656 736.046875 111.785156 733.15625 111.785156 C 730.175781 111.785156 731.441406 116.695312 731.1875 119.742188 L 728.65625 119.742188 L 728.609375 110.117188 L 730.988281 110.117188 C 731.082031 110.71875 730.929688 111.535156 731.136719 112.042969 C 731.738281 110.71875 732.554688 109.964844 734.222656 109.910156 "/>
<path style=" stroke:none;fill-rule:nonzero;fill:rgb(0%,0%,0%);fill-opacity:1;" d="M 741.871094 115.03125 C 741.871094 118.777344 742.984375 121.253906 744.554688 123.539062 L 742.023438 123.539062 C 740.503906 121.253906 739.390625 118.828125 739.390625 115.03125 C 739.390625 111.230469 740.503906 108.796875 742.023438 106.523438 L 744.554688 106.523438 C 742.929688 108.75 741.871094 111.28125 741.871094 115.03125 "/>
<path style=" stroke:none;fill-rule:nonzero;fill:rgb(0%,0%,0%);fill-opacity:1;" d="M 751.433594 112.746094 C 751.492188 111.28125 747.894531 111.023438 747.847656 112.546875 C 748.601562 114.878906 753.8125 112.898438 753.871094 116.90625 C 753.917969 121.101562 745.5625 120.75 745.164062 117.359375 L 747.335938 117 C 747.542969 117.960938 748.351562 118.265625 749.5625 118.265625 C 751.234375 118.675781 752.453125 116.753906 750.777344 116.191406 C 748.601562 115.488281 745.613281 115.636719 745.515625 112.851562 C 745.410156 108.796875 753.308594 109.101562 753.664062 112.5 "/>
<path style=" stroke:none;fill-rule:nonzero;fill:rgb(0%,0%,0%);fill-opacity:1;" d="M 755.898438 108.394531 L 755.898438 106.523438 L 758.429688 106.523438 L 758.429688 108.394531 Z M 755.898438 119.742188 L 755.898438 110.117188 L 758.429688 110.117188 L 758.429688 119.742188 L 755.898438 119.742188 "/>
<path style=" stroke:none;fill-rule:nonzero;fill:rgb(0%,0%,0%);fill-opacity:1;" d="M 769.5625 119.4375 C 770.121094 123.890625 763.492188 124.804688 761.261719 122.0625 C 761.054688 121.757812 760.960938 121.40625 760.855469 121.007812 L 763.339844 120.703125 C 763.492188 121.511719 764.148438 121.910156 765.058594 121.96875 C 767.085938 121.96875 767.183594 120.09375 767.085938 117.960938 C 766.527344 119.074219 765.566406 119.742188 763.996094 119.742188 C 761.3125 119.742188 760.445312 117.5625 760.445312 114.820312 C 760.445312 111.992188 761.359375 109.964844 764.148438 109.910156 C 765.667969 109.910156 766.476562 110.625 767.136719 111.632812 L 767.230469 110.117188 L 769.617188 110.117188 Z M 765.003906 117.960938 C 766.628906 117.960938 767.085938 116.601562 767.085938 114.773438 C 767.085938 113.003906 766.628906 111.632812 765.058594 111.632812 C 763.433594 111.632812 763.082031 113.105469 763.035156 114.820312 C 763.035156 116.648438 763.492188 117.960938 765.003906 117.960938 "/>
<path style=" stroke:none;fill-rule:nonzero;fill:rgb(0%,0%,0%);fill-opacity:1;" d="M 777.613281 109.910156 C 782.015625 109.863281 780.550781 115.636719 780.808594 119.742188 L 778.269531 119.742188 C 777.917969 116.847656 779.4375 111.785156 776.554688 111.785156 C 773.566406 111.785156 774.832031 116.695312 774.574219 119.742188 L 772.042969 119.742188 L 771.996094 110.117188 L 774.375 110.117188 C 774.472656 110.71875 774.320312 111.535156 774.527344 112.042969 C 775.136719 110.71875 775.945312 109.964844 777.613281 109.910156 "/>
<path style=" stroke:none;fill-rule:nonzero;fill:rgb(0%,0%,0%);fill-opacity:1;" d="M 791.238281 117.304688 C 790.570312 118.828125 789.363281 119.988281 787.078125 119.941406 C 784.042969 119.835938 782.578125 118.066406 782.578125 114.878906 C 782.578125 111.6875 784.089844 109.910156 787.136719 109.910156 C 790.273438 109.910156 791.332031 112.195312 791.386719 115.382812 L 785.203125 115.382812 C 785.203125 116.953125 785.613281 118.171875 787.183594 118.21875 C 788.097656 118.21875 788.707031 117.867188 788.90625 117.105469 Z M 788.953125 113.8125 C 789.210938 111.480469 786.070312 110.625 785.414062 112.746094 C 785.308594 113.050781 785.203125 113.410156 785.203125 113.8125 L 788.953125 113.8125 "/>
<path style=" stroke:none;fill-rule:nonzero;fill:rgb(0%,0%,0%);fill-opacity:1;" d="M 796.449219 109.910156 C 798.019531 109.863281 798.773438 110.671875 799.382812 111.632812 L 799.335938 106.523438 L 801.867188 106.523438 L 801.914062 119.742188 L 799.488281 119.742188 C 799.382812 119.226562 799.488281 118.570312 799.335938 118.171875 C 798.773438 119.332031 797.867188 119.941406 796.242188 119.941406 C 793.617188 119.941406 792.804688 117.65625 792.75 114.925781 C 792.75 112.089844 793.710938 110.015625 796.449219 109.910156 Z M 797.308594 118.21875 C 798.980469 118.21875 799.335938 116.695312 799.382812 114.878906 C 799.4375 113.003906 798.925781 111.632812 797.308594 111.632812 C 795.691406 111.632812 795.386719 113.15625 795.335938 114.925781 C 795.335938 117.105469 795.996094 118.21875 797.308594 118.21875 "/>
<path style=" stroke:none;fill-rule:nonzero;fill:rgb(0%,0%,0%);fill-opacity:1;" d="M 802.875 121.96875 L 802.875 121.253906 L 813.359375 121.253906 L 813.359375 121.96875 L 802.875 121.96875 "/>
<path style=" stroke:none;fill-rule:nonzero;fill:rgb(0%,0%,0%);fill-opacity:1;" d="M 819.03125 119.589844 C 817.203125 120.292969 814.625 119.941406 814.625 117.457031 L 814.625 111.785156 L 813.40625 111.785156 L 813.40625 110.117188 L 814.777344 110.117188 L 815.539062 107.835938 L 817.109375 107.835938 L 817.109375 110.117188 L 818.925781 110.117188 L 818.925781 111.785156 L 817.109375 111.785156 L 817.109375 116.800781 C 817.050781 117.960938 817.917969 118.371094 819.03125 118.066406 L 819.03125 119.589844 "/>
<path style=" stroke:none;fill-rule:nonzero;fill:rgb(0%,0%,0%);fill-opacity:1;" d="M 826.519531 119.742188 L 824.292969 116.238281 L 822.019531 119.742188 L 819.335938 119.742188 L 822.875 114.773438 L 819.535156 110.117188 L 822.21875 110.117188 L 824.292969 113.257812 L 826.320312 110.117188 L 829.050781 110.117188 L 825.664062 114.726562 L 829.257812 119.742188 L 826.519531 119.742188 "/>
<path style=" stroke:none;fill-rule:nonzero;fill:rgb(0%,0%,0%);fill-opacity:1;" d="M 834.523438 115.03125 C 834.523438 118.777344 833.410156 121.253906 831.886719 123.539062 L 829.355469 123.539062 C 830.878906 121.207031 832.09375 118.828125 832.039062 115.03125 C 832.039062 111.28125 830.925781 108.796875 829.355469 106.523438 L 831.886719 106.523438 C 833.410156 108.796875 834.523438 111.28125 834.523438 115.03125 "/>
<path style="fill:none;stroke-width:1;stroke-linecap:butt;stroke-linejoin:miter;stroke:rgb(0%,0%,0%);stroke-opacity:1;stroke-miterlimit:4;" d="M 1499.148709 617.319779 L 1582.050696 617.319779 " transform="matrix(2.05052,0,0,2.050955,-2427.81575,-1076.751592)"/>
<path style="fill-rule:nonzero;fill:rgb(0%,0%,0%);fill-opacity:1;stroke-width:1;stroke-linecap:butt;stroke-linejoin:miter;stroke:rgb(0%,0%,0%);stroke-opacity:1;stroke-miterlimit:4;" d="M 1484.379209 617.319779 L 1498.647693 612.6916 L 1498.647693 621.949862 Z M 1484.379209 617.319779 " transform="matrix(2.05052,0,0,2.050955,-2427.81575,-1076.751592)"/>
<path style="fill-rule:nonzero;fill:rgb(0%,0%,0%);fill-opacity:1;stroke-width:0.05;stroke-linecap:butt;stroke-linejoin:miter;stroke:rgb(0%,0%,0%);stroke-opacity:1;stroke-miterlimit:4;" d="M 1582.942238 617.820689 L 1582.039266 617.820689 L 1582.039266 616.820773 L 1582.180237 616.820773 Z M 1582.942238 617.820689 " transform="matrix(2.05052,0,0,2.050955,-2427.81575,-1076.751592)"/>
<path style=" stroke:none;fill-rule:nonzero;fill:rgb(0%,0%,0%);fill-opacity:1;" d="M 662.132812 204.542969 C 660.15625 203.933594 659.097656 205.199219 659.097656 207.425781 L 659.097656 212.136719 L 656.566406 212.136719 L 656.511719 202.515625 L 658.890625 202.515625 C 658.992188 203.171875 658.839844 203.980469 659.042969 204.542969 C 659.347656 203.125 660.410156 201.859375 662.132812 202.460938 L 662.132812 204.542969 "/>
<path style=" stroke:none;fill-rule:nonzero;fill:rgb(0%,0%,0%);fill-opacity:1;" d="M 669.222656 202.308594 C 671.90625 202.308594 672.761719 204.542969 672.761719 207.273438 C 672.761719 210.109375 671.800781 212.234375 669.070312 212.339844 C 667.5 212.386719 666.789062 211.480469 666.082031 210.617188 C 666.234375 212.289062 666.1875 214.109375 666.1875 215.933594 L 663.648438 215.933594 L 663.597656 202.515625 L 666.035156 202.515625 C 666.128906 203.019531 666.035156 203.675781 666.1875 204.085938 C 666.738281 202.867188 667.652344 202.308594 669.222656 202.308594 Z M 668.15625 210.617188 C 669.832031 210.617188 670.136719 209.046875 670.183594 207.273438 C 670.183594 205.351562 669.726562 204.03125 668.15625 204.03125 C 665.320312 204.03125 665.371094 210.617188 668.15625 210.617188 "/>
<path style=" stroke:none;fill-rule:nonzero;fill:rgb(0%,0%,0%);fill-opacity:1;" d="M 683.09375 208.949219 C 682.742188 211.070312 681.171875 212.339844 678.738281 212.339844 C 675.75 212.339844 674.484375 210.414062 674.179688 207.378906 C 673.570312 201.804688 681.980469 200.441406 682.992188 205.550781 L 680.507812 205.65625 C 680.414062 204.695312 679.753906 204.03125 678.738281 204.03125 C 677.222656 204.03125 676.96875 205.449219 676.816406 207.273438 C 676.511719 211.023438 680.109375 211.679688 680.5625 208.796875 "/>
<path style=" stroke:none;fill-rule:nonzero;fill:rgb(0%,0%,0%);fill-opacity:1;" d="M 683.398438 214.363281 L 683.398438 213.652344 L 693.875 213.652344 L 693.875 214.363281 L 683.398438 214.363281 "/>
<path style=" stroke:none;fill-rule:nonzero;fill:rgb(0%,0%,0%);fill-opacity:1;" d="M 700.558594 204.542969 C 698.585938 203.933594 697.519531 205.199219 697.519531 207.425781 L 697.519531 212.136719 L 694.988281 212.136719 L 694.941406 202.515625 L 697.320312 202.515625 C 697.425781 203.171875 697.273438 203.980469 697.472656 204.542969 C 697.777344 203.125 698.84375 201.859375 700.558594 202.460938 L 700.558594 204.542969 "/>
<path style=" stroke:none;fill-rule:nonzero;fill:rgb(0%,0%,0%);fill-opacity:1;" d="M 710.175781 209.703125 C 709.519531 211.222656 708.308594 212.386719 706.027344 212.339844 C 702.992188 212.234375 701.527344 210.464844 701.527344 207.273438 C 701.527344 204.085938 703.039062 202.308594 706.074219 202.308594 C 709.214844 202.308594 710.28125 204.589844 710.328125 207.78125 L 704.152344 207.78125 C 704.152344 209.351562 704.5625 210.566406 706.132812 210.617188 C 707.046875 210.617188 707.644531 210.261719 707.855469 209.5 Z M 707.902344 206.210938 C 708.160156 203.878906 705.019531 203.019531 704.363281 205.144531 C 704.257812 205.449219 704.152344 205.808594 704.152344 206.210938 L 707.902344 206.210938 "/>
<path style=" stroke:none;fill-rule:nonzero;fill:rgb(0%,0%,0%);fill-opacity:1;" d="M 717.875 205.144531 C 717.929688 203.675781 714.332031 203.429688 714.277344 204.941406 C 715.039062 207.273438 720.253906 205.296875 720.308594 209.300781 C 720.355469 213.5 712.003906 213.148438 711.59375 209.757812 L 713.773438 209.398438 C 713.980469 210.367188 714.789062 210.664062 716 210.664062 C 717.675781 211.070312 718.890625 209.148438 717.21875 208.589844 C 715.039062 207.882812 712.050781 208.035156 711.953125 205.246094 C 711.851562 201.195312 719.75 201.5 720.101562 204.894531 "/>
<path style=" stroke:none;fill-rule:nonzero;fill:rgb(0%,0%,0%);fill-opacity:1;" d="M 727.902344 202.308594 C 730.585938 202.308594 731.441406 204.542969 731.441406 207.273438 C 731.441406 210.109375 730.480469 212.234375 727.75 212.339844 C 726.179688 212.386719 725.46875 211.480469 724.761719 210.617188 C 724.914062 212.289062 724.867188 214.109375 724.867188 215.933594 L 722.335938 215.933594 L 722.28125 202.515625 L 724.714844 202.515625 C 724.8125 203.019531 724.714844 203.675781 724.867188 204.085938 C 725.417969 202.867188 726.332031 202.308594 727.902344 202.308594 Z M 726.835938 210.617188 C 728.511719 210.617188 728.816406 209.046875 728.863281 207.273438 C 728.863281 205.351562 728.40625 204.03125 726.835938 204.03125 C 724 204.03125 724.050781 210.617188 726.835938 210.617188 "/>
<path style=" stroke:none;fill-rule:nonzero;fill:rgb(0%,0%,0%);fill-opacity:1;" d="M 737.722656 202.308594 C 740.964844 202.308594 742.585938 204.132812 742.585938 207.324219 C 742.585938 210.566406 740.8125 212.339844 737.675781 212.339844 C 734.582031 212.339844 732.859375 210.511719 732.859375 207.324219 C 732.859375 204.183594 734.582031 202.308594 737.722656 202.308594 Z M 737.675781 210.617188 C 739.445312 210.617188 739.949219 209.199219 739.949219 207.324219 C 739.949219 205.296875 739.445312 204.03125 737.769531 204.03125 C 736.054688 204.03125 735.496094 205.351562 735.496094 207.324219 C 735.496094 209.148438 736 210.617188 737.675781 210.617188 "/>
<path style=" stroke:none;fill-rule:nonzero;fill:rgb(0%,0%,0%);fill-opacity:1;" d="M 750.074219 202.308594 C 754.480469 202.257812 753.011719 208.035156 753.269531 212.136719 L 750.738281 212.136719 C 750.378906 209.246094 751.898438 204.183594 749.015625 204.183594 C 746.027344 204.183594 747.292969 209.09375 747.039062 212.136719 L 744.507812 212.136719 L 744.457031 202.515625 L 746.835938 202.515625 C 746.941406 203.125 746.789062 203.933594 746.988281 204.4375 C 747.597656 203.125 748.40625 202.363281 750.074219 202.308594 "/>
<path style=" stroke:none;fill-rule:nonzero;fill:rgb(0%,0%,0%);fill-opacity:1;" d="M 761.261719 205.144531 C 761.320312 203.675781 757.722656 203.429688 757.675781 204.941406 C 758.429688 207.273438 763.640625 205.296875 763.699219 209.300781 C 763.746094 213.5 755.390625 213.148438 754.992188 209.757812 L 757.164062 209.398438 C 757.371094 210.367188 758.179688 210.664062 759.390625 210.664062 C 761.0625 211.070312 762.28125 209.148438 760.605469 208.589844 C 758.429688 207.882812 755.441406 208.035156 755.34375 205.246094 C 755.238281 201.195312 763.136719 201.5 763.492188 204.894531 "/>
<path style=" stroke:none;fill-rule:nonzero;fill:rgb(0%,0%,0%);fill-opacity:1;" d="M 773.824219 209.703125 C 773.167969 211.222656 771.949219 212.386719 769.675781 212.339844 C 766.628906 212.234375 765.164062 210.464844 765.164062 207.273438 C 765.164062 204.085938 766.6875 202.308594 769.722656 202.308594 C 772.863281 202.308594 773.925781 204.589844 773.976562 207.78125 L 767.800781 207.78125 C 767.800781 209.351562 768.199219 210.566406 769.769531 210.617188 C 770.683594 210.617188 771.292969 210.261719 771.492188 209.5 Z M 771.546875 206.210938 C 771.796875 203.878906 768.65625 203.019531 768 205.144531 C 767.894531 205.449219 767.800781 205.808594 767.800781 206.210938 L 771.546875 206.210938 "/>
</g>
</svg>
