<?xml version="1.0" encoding="UTF-8"?>
<svg xmlns="http://www.w3.org/2000/svg" xmlns:xlink="http://www.w3.org/1999/xlink" width="1100px" height="298px" viewBox="0 0 1100 298" version="1.1">
<g id="surface1">
<rect x="0" y="0" width="1100" height="298" style="fill:rgb(100%,100%,100%);fill-opacity:1;stroke:none;"/>
<path style="fill-rule:nonzero;fill:rgb(95.686275%,85.098039%,100%);fill-opacity:1;stroke-width:1;stroke-linecap:butt;stroke-linejoin:miter;stroke:rgb(22.745098%,25.490196%,29.019608%);stroke-opacity:1;stroke-miterlimit:4;" d="M 1244.569844 390.319578 C 1245.678086 389.196178 1247.192109 388.564624 1248.769297 388.564624 C 1250.348398 388.564624 1251.860508 389.196178 1252.970664 390.319578 L 1290.670039 428.73912 C 1293.009023 431.114146 1293.009023 434.926437 1290.670039 437.299549 L 1252.970664 475.719091 C 1251.860508 476.844405 1250.348398 477.47596 1248.769297 477.47596 C 1247.192109 477.47596 1245.678086 476.844405 1244.569844 475.719091 L 1206.870469 437.299549 C 1204.531484 434.926437 1204.531484 431.114146 1206.870469 428.73912 Z M 1244.569844 390.319578 " transform="matrix(2.040816,0,0,2.041096,-2410.204082,-745)"/>
<path style=" stroke:none;fill-rule:nonzero;fill:rgb(22.745098%,25.490196%,29.019608%);fill-opacity:1;" d="M 112.785156 129.910156 C 115.128906 129.910156 116.414062 130.890625 117.320312 132.402344 L 117.242188 124.84375 L 119.664062 124.84375 L 119.738281 144.574219 L 117.46875 144.574219 C 117.320312 143.816406 117.46875 142.835938 117.242188 142.230469 C 116.488281 143.96875 115.128906 144.875 112.785156 144.875 C 108.777344 144.875 107.570312 141.929688 107.492188 137.46875 C 107.492188 132.480469 109.230469 129.910156 112.785156 129.910156 Z M 113.464844 131.722656 C 110.441406 131.722656 109.988281 134.292969 109.988281 137.390625 C 109.988281 140.417969 110.441406 142.988281 113.390625 142.988281 C 116.5625 142.988281 117.242188 140.566406 117.242188 137.242188 C 117.242188 134.066406 116.5625 131.648438 113.464844 131.722656 "/>
<path style=" stroke:none;fill-rule:nonzero;fill:rgb(22.745098%,25.490196%,29.019608%);fill-opacity:1;" d="M 136.972656 144.574219 L 134.855469 139.132812 L 126.3125 139.132812 L 124.199219 144.574219 L 121.550781 144.574219 L 129.1875 125.828125 L 132.058594 125.828125 L 139.542969 144.574219 Z M 134.097656 137.089844 L 130.546875 127.792969 C 129.640625 131.195312 128.203125 133.992188 127.070312 137.089844 Z M 134.097656 137.089844 "/>
<path style=" stroke:none;fill-rule:nonzero;fill:rgb(22.745098%,25.490196%,29.019608%);fill-opacity:1;" d="M 148.308594 129.910156 C 152.464844 129.984375 153.601562 133.007812 153.601562 137.316406 C 153.601562 141.625 152.390625 144.726562 148.308594 144.875 C 145.964844 144.875 144.605469 143.894531 143.773438 142.304688 L 143.851562 150.242188 L 141.429688 150.242188 L 141.355469 130.210938 L 143.699219 130.210938 L 143.851562 132.480469 C 144.605469 130.890625 145.964844 129.910156 148.308594 129.910156 Z M 147.703125 143.0625 C 150.726562 143.0625 151.105469 140.492188 151.105469 137.390625 C 151.105469 134.292969 150.652344 131.875 147.703125 131.796875 C 144.53125 131.796875 143.851562 134.21875 143.851562 137.542969 C 143.851562 140.792969 144.605469 143.0625 147.703125 143.0625 "/>
<path style=" stroke:none;fill-rule:nonzero;fill:rgb(22.745098%,25.490196%,29.019608%);fill-opacity:1;" d="M 163.425781 129.910156 C 167.582031 129.984375 168.71875 133.007812 168.71875 137.316406 C 168.71875 141.625 167.507812 144.726562 163.425781 144.875 C 161.082031 144.875 159.722656 143.894531 158.890625 142.304688 L 158.96875 150.242188 L 156.546875 150.242188 L 156.472656 130.210938 L 158.816406 130.210938 L 158.96875 132.480469 C 159.722656 130.890625 161.082031 129.910156 163.425781 129.910156 Z M 162.820312 143.0625 C 165.84375 143.0625 166.222656 140.492188 166.222656 137.390625 C 166.222656 134.292969 165.769531 131.875 162.820312 131.796875 C 159.648438 131.796875 158.96875 134.21875 158.96875 137.542969 C 158.96875 140.792969 159.722656 143.0625 162.820312 143.0625 "/>
<path style="fill-rule:nonzero;fill:rgb(100%,100%,100%);fill-opacity:1;stroke-width:1;stroke-linecap:butt;stroke-linejoin:miter;stroke:rgb(22.745098%,25.490196%,29.019608%);stroke-opacity:1;stroke-miterlimit:4;" d="M 1597.400469 450.420564 C 1587.799531 450.420564 1579.999727 442.619914 1579.999727 433.020292 C 1579.999727 425.319159 1584.700664 418.850514 1592.020039 416.479315 C 1591.600859 393.879247 1620.589336 389.529179 1632.190469 398.229315 C 1637.990078 385.179111 1666.970898 389.529179 1666.970898 402.579383 C 1684.369727 398.229315 1701.770469 415.620019 1690.169336 437.379929 C 1701.770469 454.75915 1690.169336 476.50949 1666.970898 467.809354 C 1661.169375 479.129483 1637.970937 479.129483 1632.169414 467.809354 C 1620.570195 476.50949 1597.390898 472.170905 1597.390898 450.430133 Z M 1597.400469 450.420564 " transform="matrix(2.040816,0,0,2.041096,-2410.204082,-745)"/>
<path style=" stroke:none;fill-rule:nonzero;fill:rgb(22.745098%,25.490196%,29.019608%);fill-opacity:1;" d="M 849.773438 131.605469 C 849.394531 127.976562 840.476562 127.523438 840.402344 131.757812 C 841.457031 137.425781 852.34375 132.816406 852.722656 140.753906 C 852.949219 146.648438 843.574219 147.328125 839.492188 144.910156 C 838.207031 144.15625 837.378906 142.945312 837 141.433594 L 839.492188 140.902344 C 839.871094 145.136719 850.152344 145.667969 850.152344 140.828125 C 850.152344 134.933594 838.433594 139.769531 837.90625 131.90625 C 837.527344 125.710938 848.867188 125.558594 851.4375 129.335938 C 851.8125 129.867188 852.039062 130.546875 852.265625 131.226562 "/>
<path style=" stroke:none;fill-rule:nonzero;fill:rgb(22.745098%,25.490196%,29.019608%);fill-opacity:1;" d="M 861.488281 131.226562 C 866.175781 131.152344 867.914062 134.023438 867.914062 138.710938 C 867.988281 143.472656 865.871094 146.195312 861.414062 146.195312 C 856.953125 146.195312 855.140625 143.246094 855.0625 138.710938 C 855.0625 133.722656 857.179688 131.226562 861.488281 131.226562 Z M 861.414062 144.382812 C 864.738281 144.457031 865.417969 142.039062 865.417969 138.710938 C 865.417969 135.460938 864.816406 133.042969 861.566406 133.042969 C 858.3125 133.042969 857.558594 135.460938 857.558594 138.710938 C 857.558594 141.960938 858.3125 144.304688 861.414062 144.382812 "/>
<path style=" stroke:none;fill-rule:nonzero;fill:rgb(22.745098%,25.490196%,29.019608%);fill-opacity:1;" d="M 870.863281 145.894531 L 870.863281 126.164062 L 873.28125 126.164062 L 873.28125 145.894531 Z M 870.863281 145.894531 "/>
<path style=" stroke:none;fill-rule:nonzero;fill:rgb(22.745098%,25.490196%,29.019608%);fill-opacity:1;" d="M 885.675781 143.171875 C 884.542969 144.757812 883.332031 146.269531 880.535156 146.195312 C 877.816406 146.121094 876.152344 144.609375 876.152344 141.886719 C 876.078125 137.046875 880.914062 137.125 885.601562 137.125 C 885.828125 134.476562 884.921875 133.042969 882.5 133.042969 C 880.6875 133.117188 879.402344 133.570312 879.328125 135.386719 L 876.832031 135.160156 C 877.210938 132.363281 879.328125 131.226562 882.578125 131.226562 C 885.980469 131.226562 888.019531 132.738281 888.019531 136.066406 L 888.019531 142.265625 C 887.945312 143.777344 888.546875 144.683594 890.136719 144.304688 L 890.136719 145.816406 C 887.792969 146.496094 885.523438 145.667969 885.675781 143.171875 Z M 878.648438 141.886719 C 878.648438 143.398438 879.554688 144.382812 881.066406 144.382812 C 884.164062 144.15625 885.828125 142.1875 885.601562 138.789062 C 882.351562 138.9375 878.648438 138.410156 878.648438 141.886719 "/>
<path style=" stroke:none;fill-rule:nonzero;fill:rgb(22.745098%,25.490196%,29.019608%);fill-opacity:1;" d="M 898.980469 131.226562 C 905.707031 130.925781 902.984375 139.996094 903.515625 145.894531 L 901.097656 145.894531 L 901.097656 136.746094 C 901.097656 134.402344 900.492188 133.042969 898.148438 133.117188 C 892.707031 133.269531 894.824219 140.828125 894.445312 145.894531 L 892.027344 145.894531 L 891.949219 131.53125 L 894.21875 131.53125 C 894.292969 132.285156 894.140625 133.34375 894.367188 133.949219 C 895.199219 132.285156 896.5625 131.304688 898.980469 131.226562 "/>
<path style=" stroke:none;fill-rule:nonzero;fill:rgb(22.745098%,25.490196%,29.019608%);fill-opacity:1;" d="M 915.910156 143.171875 C 914.777344 144.757812 913.566406 146.269531 910.769531 146.195312 C 908.050781 146.121094 906.386719 144.609375 906.386719 141.886719 C 906.3125 137.046875 911.148438 137.125 915.835938 137.125 C 916.0625 134.476562 915.15625 133.042969 912.734375 133.042969 C 910.921875 133.117188 909.636719 133.570312 909.5625 135.386719 L 907.066406 135.160156 C 907.445312 132.363281 909.5625 131.226562 912.8125 131.226562 C 916.214844 131.226562 918.253906 132.738281 918.253906 136.066406 L 918.253906 142.265625 C 918.179688 143.777344 918.78125 144.683594 920.371094 144.304688 L 920.371094 145.816406 C 918.027344 146.496094 915.757812 145.667969 915.910156 143.171875 Z M 908.882812 141.886719 C 908.882812 143.398438 909.789062 144.382812 911.300781 144.382812 C 914.398438 144.15625 916.0625 142.1875 915.835938 138.789062 C 912.585938 138.9375 908.882812 138.410156 908.882812 141.886719 "/>
<path style=" stroke:none;fill-rule:nonzero;fill:rgb(22.745098%,25.490196%,29.019608%);fill-opacity:1;" d="M 942.289062 145.894531 L 932.3125 129.941406 L 932.386719 145.894531 L 930.195312 145.894531 L 930.195312 127.144531 L 933.144531 127.144531 L 943.199219 143.246094 L 943.046875 127.144531 L 945.390625 127.144531 L 945.390625 145.894531 Z M 942.289062 145.894531 "/>
<path style=" stroke:none;fill-rule:nonzero;fill:rgb(22.745098%,25.490196%,29.019608%);fill-opacity:1;" d="M 955.0625 131.226562 C 959.824219 131.226562 961.566406 134.402344 961.414062 139.242188 L 951.210938 139.242188 C 951.210938 142.265625 952.265625 144.304688 955.214844 144.382812 C 957.179688 144.457031 958.464844 143.472656 958.917969 142.1875 L 961.035156 142.792969 C 960.203125 144.910156 958.238281 146.195312 955.214844 146.195312 C 950.832031 146.195312 948.5625 143.398438 948.640625 138.636719 C 948.714844 134.023438 950.605469 131.226562 955.0625 131.226562 Z M 958.996094 137.351562 C 959.449219 132.816406 953.25 131.53125 951.664062 135.234375 C 951.4375 135.761719 951.210938 136.519531 951.210938 137.351562 Z M 958.996094 137.351562 "/>
<path style=" stroke:none;fill-rule:nonzero;fill:rgb(22.745098%,25.490196%,29.019608%);fill-opacity:1;" d="M 967.082031 142.339844 C 966.929688 144.15625 968.441406 144.53125 969.953125 144.003906 L 969.953125 145.816406 C 967.460938 146.574219 964.664062 146.195312 964.664062 142.871094 L 964.664062 133.269531 L 963 133.269531 L 963 131.53125 L 964.816406 131.53125 L 965.496094 128.28125 L 967.082031 128.28125 L 967.082031 131.53125 L 969.726562 131.53125 L 969.726562 133.269531 L 967.082031 133.269531 Z M 967.082031 142.339844 "/>
<path style=" stroke:none;fill-rule:nonzero;fill:rgb(22.745098%,25.490196%,29.019608%);fill-opacity:1;" d="M 985.753906 145.894531 L 983.03125 145.894531 L 980.007812 133.496094 L 976.910156 145.894531 L 974.1875 145.894531 L 970.105469 131.53125 L 972.523438 131.53125 L 975.472656 143.925781 L 978.722656 131.53125 L 981.292969 131.53125 L 984.390625 143.925781 L 987.566406 131.53125 L 989.910156 131.53125 "/>
<path style=" stroke:none;fill-rule:nonzero;fill:rgb(22.745098%,25.490196%,29.019608%);fill-opacity:1;" d="M 997.316406 131.226562 C 1002.003906 131.152344 1003.742188 134.023438 1003.742188 138.710938 C 1003.816406 143.472656 1001.699219 146.195312 997.242188 146.195312 C 992.78125 146.195312 990.96875 143.246094 990.890625 138.710938 C 990.890625 133.722656 993.007812 131.226562 997.316406 131.226562 Z M 997.242188 144.382812 C 1000.566406 144.457031 1001.246094 142.039062 1001.246094 138.710938 C 1001.246094 135.460938 1000.640625 133.042969 997.390625 133.042969 C 994.140625 133.042969 993.386719 135.460938 993.386719 138.710938 C 993.386719 141.960938 994.140625 144.304688 997.242188 144.382812 "/>
<path style=" stroke:none;fill-rule:nonzero;fill:rgb(22.745098%,25.490196%,29.019608%);fill-opacity:1;" d="M 1013.492188 133.570312 C 1007.597656 132.363281 1009.484375 140.449219 1009.183594 145.894531 L 1006.765625 145.894531 L 1006.6875 131.53125 L 1008.957031 131.53125 C 1009.03125 132.4375 1008.882812 133.722656 1009.109375 134.476562 C 1009.5625 132.4375 1010.847656 130.773438 1013.492188 131.378906 Z M 1013.492188 133.570312 "/>
<path style=" stroke:none;fill-rule:nonzero;fill:rgb(22.745098%,25.490196%,29.019608%);fill-opacity:1;" d="M 1024.679688 145.894531 L 1019.839844 139.316406 L 1018.101562 140.753906 L 1018.101562 145.894531 L 1015.683594 145.894531 L 1015.683594 126.164062 L 1018.101562 126.164062 L 1018.101562 138.484375 L 1024.375 131.53125 L 1027.171875 131.53125 L 1021.351562 137.730469 L 1027.550781 145.894531 Z M 1024.679688 145.894531 "/>
<path style="fill-rule:nonzero;fill:rgb(81.176471%,89.411765%,100%);fill-opacity:1;stroke-width:1;stroke-linecap:butt;stroke-linejoin:miter;stroke:rgb(22.745098%,25.490196%,29.019608%);stroke-opacity:1;stroke-miterlimit:4;" d="M 1486.440352 414.020082 C 1496.940898 414.020082 1505.439336 422.519269 1505.439336 433.020292 C 1505.439336 443.5194 1496.940898 452.020501 1486.440352 452.020501 L 1448.440469 452.020501 C 1437.939922 452.020501 1429.43957 443.5194 1429.43957 433.020292 C 1429.43957 422.519269 1437.939922 414.020082 1448.440469 414.020082 Z M 1486.440352 414.020082 " transform="matrix(2.040816,0,0,2.041096,-2410.204082,-745)"/>
<path style=" stroke:none;fill-rule:nonzero;fill:rgb(22.745098%,25.490196%,29.019608%);fill-opacity:1;" d="M 573.535156 133.449219 C 573.460938 136.546875 571.796875 138.289062 569 138.742188 L 574.292969 146.828125 L 571.421875 146.828125 L 566.507812 139.042969 L 560.6875 139.042969 L 560.6875 146.828125 L 558.191406 146.828125 L 558.191406 128.082031 C 564.84375 128.308594 573.6875 126.496094 573.535156 133.449219 Z M 560.6875 137.078125 C 565.222656 136.925781 571.042969 138.058594 571.042969 133.523438 C 571.042969 128.914062 564.996094 130.351562 560.6875 130.121094 Z M 560.6875 137.078125 "/>
<path style=" stroke:none;fill-rule:nonzero;fill:rgb(22.745098%,25.490196%,29.019608%);fill-opacity:1;" d="M 577.769531 128.082031 C 584.34375 128.15625 592.207031 126.949219 592.207031 133.75 C 592.207031 139.648438 586.386719 139.800781 580.265625 139.496094 L 580.265625 146.828125 L 577.769531 146.828125 Z M 580.265625 137.53125 C 584.570312 137.53125 589.636719 138.363281 589.636719 133.75 C 589.636719 129.292969 584.496094 130.199219 580.265625 130.121094 Z M 580.265625 137.53125 "/>
<path style=" stroke:none;fill-rule:nonzero;fill:rgb(22.745098%,25.490196%,29.019608%);fill-opacity:1;" d="M 609.667969 133.296875 C 608.910156 131.179688 607.019531 129.894531 604.148438 129.894531 C 599.6875 129.894531 597.574219 132.917969 597.574219 137.378906 C 597.574219 141.914062 599.765625 145.015625 604.300781 145.015625 C 607.550781 145.015625 608.988281 143.199219 610.195312 141.085938 L 612.238281 142.144531 C 610.875 145.015625 608.382812 147.132812 604.148438 147.132812 C 598.101562 147.132812 595.304688 143.351562 595.003906 137.378906 C 594.550781 129.519531 602.484375 125.8125 609.136719 128.988281 C 610.574219 129.667969 611.480469 130.953125 612.085938 132.464844 "/>
<path style="fill:none;stroke-width:1;stroke-linecap:butt;stroke-linejoin:miter;stroke:rgb(0%,0%,0%);stroke-opacity:1;stroke-miterlimit:4;" d="M 1279.199063 415.819054 L 1423.040859 415.819054 " transform="matrix(2.040816,0,0,2.041096,-2410.204082,-745)"/>
<path style="fill-rule:nonzero;fill:rgb(0%,0%,0%);fill-opacity:1;stroke-width:0.05;stroke-linecap:butt;stroke-linejoin:miter;stroke:rgb(0%,0%,0%);stroke-opacity:1;stroke-miterlimit:4;" d="M 1279.199063 416.32047 L 1278.199922 415.319552 L 1279.199063 415.319552 Z M 1279.199063 416.32047 " transform="matrix(2.040816,0,0,2.041096,-2410.204082,-745)"/>
<path style="fill-rule:nonzero;fill:rgb(0%,0%,0%);fill-opacity:1;stroke-width:1;stroke-linecap:butt;stroke-linejoin:miter;stroke:rgb(0%,0%,0%);stroke-opacity:1;stroke-miterlimit:4;" d="M 1437.800195 415.819054 L 1423.54043 420.450451 L 1423.54043 411.180002 Z M 1437.800195 415.819054 " transform="matrix(2.040816,0,0,2.041096,-2410.204082,-745)"/>
<path style=" stroke:none;fill-rule:nonzero;fill:rgb(0%,0%,0%);fill-opacity:1;" d="M 224.90625 81.347656 C 224.957031 79.886719 221.378906 79.632812 221.328125 81.144531 C 222.085938 83.464844 227.277344 81.5 227.324219 85.480469 C 227.375 89.664062 219.0625 89.308594 218.660156 85.933594 L 220.824219 85.582031 C 221.027344 86.539062 221.832031 86.839844 223.042969 86.839844 C 224.707031 87.242188 225.914062 85.328125 224.253906 84.773438 C 222.085938 84.070312 219.113281 84.21875 219.011719 81.449219 C 218.910156 77.417969 226.773438 77.71875 227.125 81.09375 "/>
<path style=" stroke:none;fill-rule:nonzero;fill:rgb(0%,0%,0%);fill-opacity:1;" d="M 237.402344 85.882812 C 236.75 87.394531 235.539062 88.554688 233.273438 88.503906 C 230.25 88.402344 228.789062 86.640625 228.789062 83.464844 C 228.789062 80.289062 230.300781 78.523438 233.324219 78.523438 C 236.445312 78.523438 237.503906 80.792969 237.554688 83.96875 L 231.40625 83.96875 C 231.40625 85.53125 231.8125 86.738281 233.371094 86.789062 C 234.28125 86.789062 234.882812 86.4375 235.085938 85.679688 Z M 235.136719 82.40625 C 235.386719 80.085938 232.265625 79.230469 231.609375 81.347656 C 231.507812 81.648438 231.40625 82.003906 231.40625 82.40625 Z M 235.136719 82.40625 "/>
<path style=" stroke:none;fill-rule:nonzero;fill:rgb(0%,0%,0%);fill-opacity:1;" d="M 244.960938 78.523438 C 249.347656 78.472656 247.886719 84.21875 248.136719 88.300781 L 245.617188 88.300781 C 245.265625 85.429688 246.777344 80.390625 243.90625 80.390625 C 240.929688 80.390625 242.191406 85.277344 241.9375 88.300781 L 239.417969 88.300781 L 239.371094 78.726562 L 241.738281 78.726562 C 241.839844 79.332031 241.6875 80.136719 241.890625 80.640625 C 242.492188 79.332031 243.300781 78.574219 244.960938 78.523438 "/>
<path style=" stroke:none;fill-rule:nonzero;fill:rgb(0%,0%,0%);fill-opacity:1;" d="M 253.628906 78.523438 C 255.191406 78.472656 255.949219 79.28125 256.550781 80.238281 L 256.503906 75.148438 L 259.023438 75.148438 L 259.070312 88.300781 L 256.652344 88.300781 C 256.550781 87.796875 256.652344 87.144531 256.503906 86.738281 C 255.949219 87.898438 255.039062 88.503906 253.429688 88.503906 C 250.808594 88.503906 250 86.234375 249.953125 83.515625 C 249.953125 80.691406 250.910156 78.625 253.628906 78.523438 Z M 254.488281 86.789062 C 256.148438 86.789062 256.503906 85.277344 256.550781 83.464844 C 256.601562 81.597656 256.097656 80.238281 254.488281 80.238281 C 252.875 80.238281 252.570312 81.75 252.519531 83.515625 C 252.519531 85.679688 253.175781 86.789062 254.488281 86.789062 "/>
<path style=" stroke:none;fill-rule:nonzero;fill:rgb(0%,0%,0%);fill-opacity:1;" d="M 267.085938 77.820312 L 267.085938 88.300781 L 264.464844 88.300781 L 264.464844 77.820312 L 260.433594 77.820312 L 260.433594 75.804688 L 271.117188 75.804688 L 271.117188 77.820312 Z M 267.085938 77.820312 "/>
<path style=" stroke:none;fill-rule:nonzero;fill:rgb(0%,0%,0%);fill-opacity:1;" d="M 277.0625 80.742188 C 275.097656 80.136719 274.039062 81.398438 274.039062 83.613281 L 274.039062 88.300781 L 271.519531 88.300781 L 271.46875 78.726562 L 273.835938 78.726562 C 273.9375 79.382812 273.785156 80.1875 273.988281 80.742188 C 274.289062 79.332031 275.347656 78.070312 277.0625 78.675781 Z M 277.0625 80.742188 "/>
<path style=" stroke:none;fill-rule:nonzero;fill:rgb(0%,0%,0%);fill-opacity:1;" d="M 284.015625 86.589844 C 283.210938 87.546875 282.503906 88.554688 280.789062 88.503906 C 278.925781 88.453125 277.867188 87.496094 277.867188 85.582031 C 277.816406 82.554688 280.640625 82.40625 283.714844 82.507812 C 283.761719 81.195312 283.5625 80.136719 282.300781 80.136719 C 281.394531 80.1875 280.992188 80.589844 280.890625 81.5 L 278.269531 81.398438 C 278.625 79.480469 280.085938 78.472656 282.402344 78.523438 C 284.722656 78.574219 286.132812 79.632812 286.183594 81.953125 L 286.234375 86.085938 C 286.183594 86.789062 286.835938 86.992188 287.492188 86.839844 L 287.492188 88.199219 C 285.980469 88.605469 283.914062 88.453125 284.015625 86.589844 Z M 281.597656 86.738281 C 283.058594 86.738281 283.761719 85.53125 283.714844 83.867188 C 282.101562 83.867188 280.386719 83.714844 280.4375 85.378906 C 280.4375 86.234375 280.839844 86.738281 281.597656 86.738281 "/>
<path style=" stroke:none;fill-rule:nonzero;fill:rgb(0%,0%,0%);fill-opacity:1;" d="M 294.195312 78.523438 C 298.578125 78.472656 297.117188 84.21875 297.367188 88.300781 L 294.847656 88.300781 C 294.496094 85.429688 296.007812 80.390625 293.136719 80.390625 C 290.164062 80.390625 291.421875 85.277344 291.171875 88.300781 L 288.652344 88.300781 L 288.601562 78.726562 L 290.96875 78.726562 C 291.070312 79.332031 290.917969 80.136719 291.121094 80.640625 C 291.726562 79.332031 292.53125 78.574219 294.195312 78.523438 "/>
<path style=" stroke:none;fill-rule:nonzero;fill:rgb(0%,0%,0%);fill-opacity:1;" d="M 305.332031 81.347656 C 305.378906 79.886719 301.804688 79.632812 301.753906 81.144531 C 302.507812 83.464844 307.699219 81.5 307.75 85.480469 C 307.800781 89.664062 299.484375 89.308594 299.082031 85.933594 L 301.25 85.582031 C 301.449219 86.539062 302.257812 86.839844 303.464844 86.839844 C 305.128906 87.242188 306.339844 85.328125 304.675781 84.773438 C 302.507812 84.070312 299.535156 84.21875 299.433594 81.449219 C 299.332031 77.417969 307.195312 77.71875 307.546875 81.09375 "/>
<path style=" stroke:none;fill-rule:nonzero;fill:rgb(0%,0%,0%);fill-opacity:1;" d="M 315.207031 86.589844 C 314.402344 87.546875 313.695312 88.554688 311.980469 88.503906 C 310.117188 88.453125 309.058594 87.496094 309.058594 85.582031 C 309.007812 82.554688 311.832031 82.40625 314.90625 82.507812 C 314.953125 81.195312 314.753906 80.136719 313.492188 80.136719 C 312.585938 80.1875 312.183594 80.589844 312.082031 81.5 L 309.460938 81.398438 C 309.816406 79.480469 311.277344 78.472656 313.59375 78.523438 C 315.914062 78.574219 317.324219 79.632812 317.375 81.953125 L 317.425781 86.085938 C 317.375 86.789062 318.027344 86.992188 318.683594 86.839844 L 318.683594 88.199219 C 317.171875 88.605469 315.105469 88.453125 315.207031 86.589844 Z M 312.789062 86.738281 C 314.25 86.738281 314.953125 85.53125 314.90625 83.867188 C 313.292969 83.867188 311.578125 83.714844 311.628906 85.378906 C 311.628906 86.234375 312.03125 86.738281 312.789062 86.738281 "/>
<path style=" stroke:none;fill-rule:nonzero;fill:rgb(0%,0%,0%);fill-opacity:1;" d="M 328.15625 85.125 C 327.804688 87.242188 326.242188 88.503906 323.824219 88.503906 C 320.851562 88.503906 319.589844 86.589844 319.289062 83.566406 C 318.683594 78.019531 327.046875 76.660156 328.054688 81.75 L 325.585938 81.851562 C 325.488281 80.894531 324.832031 80.238281 323.824219 80.238281 C 322.3125 80.238281 322.058594 81.648438 321.910156 83.464844 C 321.605469 87.191406 325.183594 87.847656 325.636719 84.976562 "/>
<path style=" stroke:none;fill-rule:nonzero;fill:rgb(0%,0%,0%);fill-opacity:1;" d="M 334.457031 88.152344 C 332.640625 88.855469 330.070312 88.503906 330.070312 86.035156 L 330.070312 80.390625 L 328.863281 80.390625 L 328.863281 78.726562 L 330.222656 78.726562 L 330.980469 76.457031 L 332.542969 76.457031 L 332.542969 78.726562 L 334.355469 78.726562 L 334.355469 80.390625 L 332.542969 80.390625 L 332.542969 85.378906 C 332.492188 86.539062 333.347656 86.941406 334.457031 86.640625 Z M 334.457031 88.152344 "/>
<path style=" stroke:none;fill-rule:nonzero;fill:rgb(0%,0%,0%);fill-opacity:1;" d="M 335.917969 77.011719 L 335.917969 75.148438 L 338.4375 75.148438 L 338.4375 77.011719 Z M 335.917969 88.300781 L 335.917969 78.726562 L 338.4375 78.726562 L 338.4375 88.300781 Z M 335.917969 88.300781 "/>
<path style=" stroke:none;fill-rule:nonzero;fill:rgb(0%,0%,0%);fill-opacity:1;" d="M 345.238281 78.523438 C 348.464844 78.523438 350.078125 80.339844 350.078125 83.515625 C 350.078125 86.738281 348.3125 88.503906 345.1875 88.503906 C 342.117188 88.503906 340.402344 86.6875 340.402344 83.515625 C 340.402344 80.390625 342.117188 78.523438 345.238281 78.523438 Z M 345.1875 86.789062 C 346.953125 86.789062 347.457031 85.378906 347.457031 83.515625 C 347.457031 81.5 346.953125 80.238281 345.289062 80.238281 C 343.578125 80.238281 343.023438 81.546875 343.023438 83.515625 C 343.023438 85.328125 343.527344 86.789062 345.1875 86.789062 "/>
<path style=" stroke:none;fill-rule:nonzero;fill:rgb(0%,0%,0%);fill-opacity:1;" d="M 357.535156 78.523438 C 361.917969 78.472656 360.457031 84.21875 360.710938 88.300781 L 358.191406 88.300781 C 357.835938 85.429688 359.347656 80.390625 356.476562 80.390625 C 353.503906 80.390625 354.761719 85.277344 354.511719 88.300781 L 351.992188 88.300781 L 351.941406 78.726562 L 354.308594 78.726562 C 354.410156 79.332031 354.257812 80.136719 354.460938 80.640625 C 355.066406 79.332031 355.871094 78.574219 357.535156 78.523438 "/>
<path style=" stroke:none;fill-rule:nonzero;fill:rgb(0%,0%,0%);fill-opacity:1;" d="M 365.144531 83.613281 C 365.144531 87.34375 366.253906 89.8125 367.816406 92.082031 L 365.296875 92.082031 C 363.785156 89.8125 362.675781 87.394531 362.675781 83.613281 C 362.675781 79.835938 363.785156 77.417969 365.296875 75.148438 L 367.816406 75.148438 C 366.203125 77.367188 365.144531 79.886719 365.144531 83.613281 "/>
<path style=" stroke:none;fill-rule:nonzero;fill:rgb(0%,0%,0%);fill-opacity:1;" d="M 374.667969 81.347656 C 374.71875 79.886719 371.140625 79.632812 371.089844 81.144531 C 371.847656 83.464844 377.035156 81.5 377.085938 85.480469 C 377.136719 89.664062 368.824219 89.308594 368.417969 85.933594 L 370.585938 85.582031 C 370.789062 86.539062 371.59375 86.839844 372.804688 86.839844 C 374.464844 87.242188 375.675781 85.328125 374.011719 84.773438 C 371.847656 84.070312 368.871094 84.21875 368.773438 81.449219 C 368.671875 77.417969 376.53125 77.71875 376.886719 81.09375 "/>
<path style=" stroke:none;fill-rule:nonzero;fill:rgb(0%,0%,0%);fill-opacity:1;" d="M 379.101562 77.011719 L 379.101562 75.148438 L 381.621094 75.148438 L 381.621094 77.011719 Z M 379.101562 88.300781 L 379.101562 78.726562 L 381.621094 78.726562 L 381.621094 88.300781 Z M 379.101562 88.300781 "/>
<path style=" stroke:none;fill-rule:nonzero;fill:rgb(0%,0%,0%);fill-opacity:1;" d="M 392.707031 88 C 393.261719 92.433594 386.660156 93.339844 384.445312 90.621094 C 384.242188 90.316406 384.140625 89.964844 384.039062 89.5625 L 386.507812 89.257812 C 386.660156 90.066406 387.316406 90.46875 388.222656 90.519531 C 390.238281 90.519531 390.339844 88.65625 390.238281 86.539062 C 389.683594 87.648438 388.726562 88.300781 387.164062 88.300781 C 384.492188 88.300781 383.636719 86.136719 383.636719 83.414062 C 383.636719 80.589844 384.542969 78.574219 387.316406 78.523438 C 388.828125 78.523438 389.632812 79.230469 390.289062 80.238281 L 390.390625 78.726562 L 392.757812 78.726562 Z M 388.171875 86.539062 C 389.785156 86.539062 390.238281 85.175781 390.238281 83.363281 C 390.238281 81.597656 389.785156 80.238281 388.222656 80.238281 C 386.609375 80.238281 386.257812 81.699219 386.207031 83.414062 C 386.207031 85.226562 386.660156 86.539062 388.171875 86.539062 "/>
<path style=" stroke:none;fill-rule:nonzero;fill:rgb(0%,0%,0%);fill-opacity:1;" d="M 400.71875 78.523438 C 405.105469 78.472656 403.640625 84.21875 403.894531 88.300781 L 401.375 88.300781 C 401.023438 85.429688 402.535156 80.390625 399.660156 80.390625 C 396.6875 80.390625 397.949219 85.277344 397.695312 88.300781 L 395.175781 88.300781 L 395.125 78.726562 L 397.496094 78.726562 C 397.59375 79.332031 397.445312 80.136719 397.644531 80.640625 C 398.25 79.332031 399.058594 78.574219 400.71875 78.523438 "/>
<path style=" stroke:none;fill-rule:nonzero;fill:rgb(0%,0%,0%);fill-opacity:1;" d="M 414.273438 85.882812 C 413.621094 87.394531 412.410156 88.554688 410.144531 88.503906 C 407.121094 88.402344 405.65625 86.640625 405.65625 83.464844 C 405.65625 80.289062 407.167969 78.523438 410.191406 78.523438 C 413.316406 78.523438 414.375 80.792969 414.425781 83.96875 L 408.277344 83.96875 C 408.277344 85.53125 408.679688 86.738281 410.242188 86.789062 C 411.152344 86.789062 411.753906 86.4375 411.957031 85.679688 Z M 412.007812 82.40625 C 412.257812 80.085938 409.136719 79.230469 408.480469 81.347656 C 408.378906 81.648438 408.277344 82.003906 408.277344 82.40625 Z M 412.007812 82.40625 "/>
<path style=" stroke:none;fill-rule:nonzero;fill:rgb(0%,0%,0%);fill-opacity:1;" d="M 419.464844 78.523438 C 421.027344 78.472656 421.78125 79.28125 422.386719 80.238281 L 422.335938 75.148438 L 424.855469 75.148438 L 424.90625 88.300781 L 422.488281 88.300781 C 422.386719 87.796875 422.488281 87.144531 422.335938 86.738281 C 421.78125 87.898438 420.875 88.503906 419.261719 88.503906 C 416.644531 88.503906 415.835938 86.234375 415.785156 83.515625 C 415.785156 80.691406 416.742188 78.625 419.464844 78.523438 Z M 420.320312 86.789062 C 421.984375 86.789062 422.335938 85.277344 422.386719 83.464844 C 422.4375 81.597656 421.933594 80.238281 420.320312 80.238281 C 418.710938 80.238281 418.40625 81.75 418.355469 83.515625 C 418.355469 85.679688 419.011719 86.789062 420.320312 86.789062 "/>
<path style=" stroke:none;fill-rule:nonzero;fill:rgb(0%,0%,0%);fill-opacity:1;" d="M 425.863281 90.519531 L 425.863281 89.8125 L 436.296875 89.8125 L 436.296875 90.519531 Z M 425.863281 90.519531 "/>
<path style=" stroke:none;fill-rule:nonzero;fill:rgb(0%,0%,0%);fill-opacity:1;" d="M 441.9375 88.152344 C 440.125 88.855469 437.554688 88.503906 437.554688 86.035156 L 437.554688 80.390625 L 436.347656 80.390625 L 436.347656 78.726562 L 437.707031 78.726562 L 438.460938 76.457031 L 440.023438 76.457031 L 440.023438 78.726562 L 441.839844 78.726562 L 441.839844 80.390625 L 440.023438 80.390625 L 440.023438 85.378906 C 439.972656 86.539062 440.832031 86.941406 441.9375 86.640625 Z M 441.9375 88.152344 "/>
<path style=" stroke:none;fill-rule:nonzero;fill:rgb(0%,0%,0%);fill-opacity:1;" d="M 449.398438 88.300781 L 447.179688 84.824219 L 444.914062 88.300781 L 442.242188 88.300781 L 445.769531 83.363281 L 442.441406 78.726562 L 445.113281 78.726562 L 447.179688 81.851562 L 449.195312 78.726562 L 451.917969 78.726562 L 448.539062 83.3125 L 452.117188 88.300781 Z M 449.398438 88.300781 "/>
<path style=" stroke:none;fill-rule:nonzero;fill:rgb(0%,0%,0%);fill-opacity:1;" d="M 457.359375 83.613281 C 457.359375 87.34375 456.25 89.8125 454.738281 92.082031 L 452.21875 92.082031 C 453.730469 89.761719 454.941406 87.394531 454.890625 83.613281 C 454.890625 79.886719 453.78125 77.417969 452.21875 75.148438 L 454.738281 75.148438 C 456.25 77.417969 457.359375 79.886719 457.359375 83.613281 "/>
<path style="fill:none;stroke-width:1;stroke-linecap:butt;stroke-linejoin:miter;stroke:rgb(22.745098%,25.490196%,29.019608%);stroke-opacity:1;stroke-miterlimit:4;" d="M 1506.440391 433.020292 L 1563.61918 433.020292 " transform="matrix(2.040816,0,0,2.041096,-2410.204082,-745)"/>
<path style="fill-rule:nonzero;fill:rgb(22.745098%,25.490196%,29.019608%);fill-opacity:1;stroke-width:0.05;stroke-linecap:butt;stroke-linejoin:miter;stroke:rgb(22.745098%,25.490196%,29.019608%);stroke-opacity:1;stroke-miterlimit:4;" d="M 1506.459531 433.519793 L 1505.87957 433.519793 L 1505.94082 433.020292 L 1505.87957 432.52079 L 1506.459531 432.52079 Z M 1506.459531 433.519793 " transform="matrix(2.040816,0,0,2.041096,-2410.204082,-745)"/>
<path style="fill-rule:nonzero;fill:rgb(22.745098%,25.490196%,29.019608%);fill-opacity:1;stroke-width:1;stroke-linecap:butt;stroke-linejoin:miter;stroke:rgb(22.745098%,25.490196%,29.019608%);stroke-opacity:1;stroke-miterlimit:4;" d="M 1578.38043 433.020292 L 1564.120664 437.649775 L 1564.120664 428.390809 Z M 1578.38043 433.020292 " transform="matrix(2.040816,0,0,2.041096,-2410.204082,-745)"/>
<path style="fill:none;stroke-width:1;stroke-linecap:butt;stroke-linejoin:miter;stroke:rgb(0%,0%,0%);stroke-opacity:1;stroke-miterlimit:4;" d="M 1300.360938 444.849491 L 1432.639883 444.849491 " transform="matrix(2.040816,0,0,2.041096,-2410.204082,-745)"/>
<path style="fill-rule:nonzero;fill:rgb(0%,0%,0%);fill-opacity:1;stroke-width:1;stroke-linecap:butt;stroke-linejoin:miter;stroke:rgb(0%,0%,0%);stroke-opacity:1;stroke-miterlimit:4;" d="M 1285.599688 444.849491 L 1299.859453 440.210439 L 1299.859453 449.490457 Z M 1285.599688 444.849491 " transform="matrix(2.040816,0,0,2.041096,-2410.204082,-745)"/>
<path style="fill-rule:nonzero;fill:rgb(0%,0%,0%);fill-opacity:1;stroke-width:0.05;stroke-linecap:butt;stroke-linejoin:miter;stroke:rgb(0%,0%,0%);stroke-opacity:1;stroke-miterlimit:4;" d="M 1433.520352 445.350907 L 1432.620742 445.350907 L 1432.620742 444.34999 L 1432.760469 444.34999 Z M 1433.520352 445.350907 " transform="matrix(2.040816,0,0,2.041096,-2410.204082,-745)"/>
<path style=" stroke:none;fill-rule:nonzero;fill:rgb(0%,0%,0%);fill-opacity:1;" d="M 309.804688 178.089844 C 307.839844 177.488281 306.78125 178.746094 306.78125 180.964844 L 306.78125 185.652344 L 304.261719 185.652344 L 304.210938 176.074219 L 306.578125 176.074219 C 306.679688 176.730469 306.53125 177.539062 306.730469 178.089844 C 307.035156 176.679688 308.089844 175.421875 309.804688 176.027344 Z M 309.804688 178.089844 "/>
<path style=" stroke:none;fill-rule:nonzero;fill:rgb(0%,0%,0%);fill-opacity:1;" d="M 316.859375 175.875 C 319.53125 175.875 320.386719 178.089844 320.386719 180.8125 C 320.386719 183.636719 319.429688 185.753906 316.707031 185.851562 C 315.144531 185.902344 314.441406 184.996094 313.734375 184.140625 C 313.886719 185.800781 313.835938 187.617188 313.835938 189.429688 L 311.316406 189.429688 L 311.265625 176.074219 L 313.683594 176.074219 C 313.785156 176.578125 313.683594 177.234375 313.835938 177.636719 C 314.390625 176.429688 315.296875 175.875 316.859375 175.875 Z M 315.800781 184.140625 C 317.464844 184.140625 317.765625 182.578125 317.816406 180.8125 C 317.816406 178.898438 317.363281 177.585938 315.800781 177.585938 C 312.980469 177.585938 313.03125 184.140625 315.800781 184.140625 "/>
<path style=" stroke:none;fill-rule:nonzero;fill:rgb(0%,0%,0%);fill-opacity:1;" d="M 330.667969 182.476562 C 330.3125 184.59375 328.75 185.851562 326.332031 185.851562 C 323.359375 185.851562 322.101562 183.9375 321.796875 180.914062 C 321.191406 175.371094 329.558594 174.007812 330.566406 179.101562 L 328.097656 179.199219 C 327.996094 178.242188 327.339844 177.585938 326.332031 177.585938 C 324.820312 177.585938 324.570312 179 324.417969 180.8125 C 324.117188 184.542969 327.695312 185.199219 328.148438 182.324219 "/>
<path style=" stroke:none;fill-rule:nonzero;fill:rgb(0%,0%,0%);fill-opacity:1;" d="M 330.96875 187.867188 L 330.96875 187.164062 L 341.398438 187.164062 L 341.398438 187.867188 Z M 330.96875 187.867188 "/>
<path style=" stroke:none;fill-rule:nonzero;fill:rgb(0%,0%,0%);fill-opacity:1;" d="M 348.050781 178.089844 C 346.085938 177.488281 345.027344 178.746094 345.027344 180.964844 L 345.027344 185.652344 L 342.507812 185.652344 L 342.457031 176.074219 L 344.828125 176.074219 C 344.925781 176.730469 344.777344 177.539062 344.976562 178.089844 C 345.28125 176.679688 346.339844 175.421875 348.050781 176.027344 Z M 348.050781 178.089844 "/>
<path style=" stroke:none;fill-rule:nonzero;fill:rgb(0%,0%,0%);fill-opacity:1;" d="M 357.625 183.230469 C 356.96875 184.746094 355.761719 185.902344 353.492188 185.851562 C 350.46875 185.753906 349.007812 183.988281 349.007812 180.8125 C 349.007812 177.636719 350.519531 175.875 353.542969 175.875 C 356.667969 175.875 357.726562 178.140625 357.777344 181.316406 L 351.628906 181.316406 C 351.628906 182.878906 352.03125 184.089844 353.59375 184.140625 C 354.5 184.140625 355.105469 183.785156 355.308594 183.03125 Z M 355.359375 179.753906 C 355.609375 177.4375 352.484375 176.578125 351.832031 178.695312 C 351.730469 179 351.628906 179.351562 351.628906 179.753906 Z M 355.359375 179.753906 "/>
<path style=" stroke:none;fill-rule:nonzero;fill:rgb(0%,0%,0%);fill-opacity:1;" d="M 365.285156 178.695312 C 365.335938 177.234375 361.757812 176.984375 361.707031 178.496094 C 362.464844 180.8125 367.652344 178.847656 367.703125 182.828125 C 367.753906 187.011719 359.441406 186.660156 359.035156 183.28125 L 361.203125 182.929688 C 361.40625 183.886719 362.210938 184.191406 363.421875 184.191406 C 365.082031 184.59375 366.292969 182.679688 364.628906 182.125 C 362.464844 181.417969 359.488281 181.570312 359.390625 178.796875 C 359.289062 174.765625 367.148438 175.066406 367.503906 178.445312 "/>
<path style=" stroke:none;fill-rule:nonzero;fill:rgb(0%,0%,0%);fill-opacity:1;" d="M 375.261719 175.875 C 377.933594 175.875 378.789062 178.089844 378.789062 180.8125 C 378.789062 183.636719 377.832031 185.753906 375.109375 185.851562 C 373.550781 185.902344 372.84375 184.996094 372.136719 184.140625 C 372.289062 185.800781 372.238281 187.617188 372.238281 189.429688 L 369.71875 189.429688 L 369.667969 176.074219 L 372.085938 176.074219 C 372.1875 176.578125 372.085938 177.234375 372.238281 177.636719 C 372.792969 176.429688 373.699219 175.875 375.261719 175.875 Z M 374.203125 184.140625 C 375.867188 184.140625 376.167969 182.578125 376.21875 180.8125 C 376.21875 178.898438 375.765625 177.585938 374.203125 177.585938 C 371.382812 177.585938 371.433594 184.140625 374.203125 184.140625 "/>
<path style=" stroke:none;fill-rule:nonzero;fill:rgb(0%,0%,0%);fill-opacity:1;" d="M 385.039062 175.875 C 388.261719 175.875 389.875 177.6875 389.875 180.863281 C 389.875 184.089844 388.113281 185.851562 384.988281 185.851562 C 381.914062 185.851562 380.199219 184.039062 380.199219 180.863281 C 380.199219 177.738281 381.914062 175.875 385.039062 175.875 Z M 384.988281 184.140625 C 386.75 184.140625 387.253906 182.726562 387.253906 180.863281 C 387.253906 178.847656 386.75 177.585938 385.089844 177.585938 C 383.375 177.585938 382.820312 178.898438 382.820312 180.863281 C 382.820312 182.679688 383.324219 184.140625 384.988281 184.140625 "/>
<path style=" stroke:none;fill-rule:nonzero;fill:rgb(0%,0%,0%);fill-opacity:1;" d="M 397.332031 175.875 C 401.71875 175.824219 400.257812 181.570312 400.507812 185.652344 L 397.988281 185.652344 C 397.636719 182.777344 399.148438 177.738281 396.273438 177.738281 C 393.300781 177.738281 394.5625 182.628906 394.308594 185.652344 L 391.789062 185.652344 L 391.738281 176.074219 L 394.109375 176.074219 C 394.210938 176.679688 394.058594 177.488281 394.257812 177.992188 C 394.863281 176.679688 395.671875 175.925781 397.332031 175.875 "/>
<path style=" stroke:none;fill-rule:nonzero;fill:rgb(0%,0%,0%);fill-opacity:1;" d="M 408.46875 178.695312 C 408.519531 177.234375 404.941406 176.984375 404.890625 178.496094 C 405.648438 180.8125 410.839844 178.847656 410.886719 182.828125 C 410.9375 187.011719 402.625 186.660156 402.222656 183.28125 L 404.386719 182.929688 C 404.589844 183.886719 405.394531 184.191406 406.605469 184.191406 C 408.269531 184.59375 409.476562 182.679688 407.816406 182.125 C 405.648438 181.417969 402.675781 181.570312 402.574219 178.796875 C 402.472656 174.765625 410.335938 175.066406 410.6875 178.445312 "/>
<path style=" stroke:none;fill-rule:nonzero;fill:rgb(0%,0%,0%);fill-opacity:1;" d="M 420.964844 183.230469 C 420.3125 184.746094 419.101562 185.902344 416.835938 185.851562 C 413.8125 185.753906 412.351562 183.988281 412.351562 180.8125 C 412.351562 177.636719 413.863281 175.875 416.886719 175.875 C 420.007812 175.875 421.066406 178.140625 421.117188 181.316406 L 414.96875 181.316406 C 414.96875 182.878906 415.375 184.089844 416.933594 184.140625 C 417.84375 184.140625 418.445312 183.785156 418.648438 183.03125 Z M 418.699219 179.753906 C 418.949219 177.4375 415.828125 176.578125 415.171875 178.695312 C 415.070312 179 414.96875 179.351562 414.96875 179.753906 Z M 418.699219 179.753906 "/>
</g>
</svg>
